<svg xmlns="http://www.w3.org/2000/svg" width="11" height="11" viewBox="0 0 11 11">
    <path fill="#7F7F7F" fill-rule="evenodd" d="M.563 5.625H4.5v3.938c0 .164.053.298.158.404.106.105.24.158.404.158a.547.547 0 0 0 .405-.158.547.547 0 0 0 .158-.405V5.626h3.938a.547.547 0 0 0 .404-.158.547.547 0 0 0 .158-.404.547.547 0 0 0-.158-.405.547.547 0 0 0-.405-.158H5.626V.562a.547.547 0 0 0-.158-.404A.547.547 0 0 0 5.063 0a.547.547 0 0 0-.405.158.547.547 0 0 0-.158.404V4.5H.562a.547.547 0 0 0-.404.158.547.547 0 0 0-.158.404c0 .165.053.3.158.405.106.105.24.158.404.158z"/>
</svg>
