<?xml version="1.0"?>
<svg xmlns="http://www.w3.org/2000/svg" xmlns:xlink="http://www.w3.org/1999/xlink" version="1.1" id="Capa_1" x="0px" y="0px" viewBox="0 0 58 58" style="enable-background:new 0 0 58 58;" xml:space="preserve" width="512px" height="512px" class=""><g><g>
	<path style="fill:#0391FD;" d="M48,19.929v21.141C48,43.793,45.793,46,43.071,46H22L12,57V46H4.929C2.207,46,0,43.793,0,41.071   l0-21.141C0,17.207,2.207,15,4.929,15h38.141C45.793,15,48,17.207,48,19.929z" data-original="#0391FD" class=""/>
	<path style="fill:#4362A5;" d="M53.071,1H14.929C12.207,1,10,3.207,10,5.93V15h33.071C45.793,15,48,17.207,48,19.93V32h5.071   C55.793,32,58,29.793,58,27.07V5.93C58,3.207,55.793,1,53.071,1z" data-original="#4362A5" class=""/>
	<circle cx="11" cy="31" r="3" data-original="#FFFFFF" class="active-path" style="fill:#FFFFFF"/>
	<circle cx="24" cy="31" r="3" data-original="#FFFFFF" class="active-path" style="fill:#FFFFFF"/>
	<circle cx="37" cy="31" r="3" data-original="#FFFFFF" class="active-path" style="fill:#FFFFFF"/>
</g></g> </svg>
