<?xml version="1.0"?>
<svg xmlns="http://www.w3.org/2000/svg" xmlns:xlink="http://www.w3.org/1999/xlink" version="1.1" id="Capa_1" x="0px" y="0px" viewBox="0 0 45.781 45.781" style="enable-background:new 0 0 45.781 45.781;" xml:space="preserve" width="512px" height="512px" class=""><g><g>
	<path d="M40.04,26.153c1.492-0.292,2.096-1.146,2.096-3.939c0-3.418-1.098-3.605-3.037-3.642l-0.29-0.006   c-1.59-0.036-2.233-0.005-2.73,0.019c-0.425,0.02-0.738,0.035-1.474-0.005c-0.066-0.647,0.234-2.895,0.504-4.897   c0.18-1.341,0.376-2.804,0.533-4.223c0.364-3.289,0.42-8.889-3.296-9.438C32.262,0.01,32.13,0,31.967,0   c-1.156,0-2.508,0.445-2.512,1.699c-0.001,0.297,0.003,0.583,0.008,0.865c0.024,1.686,0.047,3.142-1.026,6.048   c-1.305,3.531-6.295,5.399-9.939,6.763l-0.419,0.157c-1.619,0.607-2.688,2.382-3.267,5.424c-0.029,0.151-0.475,0.907-6.427,0.907   c-1.062,0-2.083-0.021-2.921-0.04C4.877,21.811,4.38,21.8,4.02,21.8c-0.1,0-0.195,0.04-0.265,0.11   c-0.071,0.071-0.11,0.166-0.11,0.266l0.027,18.789c0,0.206,0.168,0.374,0.375,0.374c1.33,0,2.565-0.061,3.654-0.113   c0.921-0.045,1.768-0.086,2.545-0.086c1.635,0,2.686,0.194,3.511,0.648c0.465,0.256,0.891,0.756,1.342,1.285   c0.928,1.089,2.083,2.442,4.294,2.531c1.265,0,2.875,0.036,4.647,0.075c2.156,0.048,4.599,0.102,6.934,0.102   c2.423,0,4.355-0.059,5.907-0.178c1.476-0.113,2.8-0.483,2.8-3.737c0-1.264-0.65-1.936-1.536-2.308   c1.308-0.327,2.611-1.171,2.628-3.347c0.014-1.816-0.093-2.722-0.992-3.19c0.892-0.366,1.565-1.163,1.651-2.849   c0.083-1.655,0.09-2.793-0.561-3.489C40.66,26.452,40.389,26.282,40.04,26.153z M40.683,30.133   c-0.103,2.03-1.101,2.428-2.789,2.428c-0.219,0-0.443-0.007-0.669-0.017l-0.717-0.038c-0.528-0.03-1.074-0.061-1.623-0.061   c-0.001,0-0.1,0-0.101,0c-0.204,0.001-0.357,0.166-0.36,0.37s0.17,0.374,0.374,0.381c0.689,0.022,1.294,0.043,1.819,0.067   l0.563,0.029c2.863,0.168,2.862,0.375,2.843,2.91c-0.015,1.996-1.187,2.81-4.042,2.81c-0.521,0-1.043-0.023-1.539-0.046   l-0.473-0.021c-0.238,0.006-0.371,0.143-0.389,0.342c-0.019,0.199,0.123,0.377,0.321,0.404c0.373,0.053,0.8,0.08,1.248,0.109   c2.214,0.143,3.781,0.374,3.781,2.062c0,2.828-1.023,2.906-2.106,2.989c-1.533,0.118-3.447,0.176-5.851,0.176   c-2.326,0-4.765-0.054-6.917-0.102c-1.771-0.039-3.38-0.075-4.633-0.075c-0.005,0-0.011,0-0.016,0   c-1.869-0.074-2.82-1.189-3.739-2.268c-0.497-0.583-0.966-1.133-1.551-1.455c-0.944-0.521-2.103-0.742-3.873-0.742   c-0.792,0-1.662,0.042-2.582,0.087c-0.977,0.048-2.072,0.101-3.243,0.11L4.393,22.549c0.299,0.004,0.655,0.011,1.053,0.02   c0.842,0.018,1.869,0.04,2.937,0.04c4.882,0,6.958-0.439,7.164-1.517c0.526-2.765,1.44-4.355,2.794-4.863l0.418-0.157   c3.78-1.415,8.957-3.353,10.379-7.206c1.122-3.038,1.098-4.631,1.073-6.319c-0.005-0.277-0.009-0.559-0.008-0.852   c0.003-0.924,1.582-0.951,1.762-0.951c0.116,0,0.21,0.006,0.27,0.015c3.209,0.475,2.929,6.182,2.659,8.613   c-0.156,1.414-0.352,2.871-0.531,4.206c-0.551,4.104-0.647,5.187-0.34,5.562c0.066,0.08,0.223,0.164,0.327,0.17   c0.93,0.059,1.276,0.042,1.763,0.019c0.487-0.024,1.117-0.054,2.677-0.018l0.294,0.006c1.674,0.032,2.301,0.043,2.301,2.893   c0,3.262-0.506,3.275-3.8,3.362c-0.832,0.022-1.775,0.047-2.909,0.133c-0.199,0.016-0.341,0.185-0.335,0.385   s0.179,0.361,0.379,0.364c3.332,0.062,5.004,0.092,5.604,0.735C40.734,27.631,40.767,28.491,40.683,30.133z" data-original="#000000" class="active-path" data-old_color="#FFB200" fill="#FFAA00"/>
</g></g> </svg>
