<svg xmlns="http://www.w3.org/2000/svg" width="12" height="12" viewBox="0 0 12 12">
    <path fill="#7F7F7F" fill-rule="nonzero" d="M6 0C2.692 0 0 2.692 0 6s2.692 6 6 6 6-2.692 6-6-2.692-6-6-6zm0 10a1 1 0 1 1 0-2 1 1 0 0 1 0 2zm1.781-5.151c-.144.275-.419.584-.824.927-.655.575-.637.703-.637 1.224H5.17c0-.407-.007-.72.178-1.1.119-.244.336-.503.65-.778.38-.32.747-.63.747-1.169 0-.505-.364-.685-.79-.685-.433 0-.927.169-1.482.505L4 2.646c1.009-.672 2.6-.975 3.471-.134.639.618.643 1.705.31 2.337z" opacity=".5"/>
</svg>
