<?xml version="1.0" standalone="no"?>
<!DOCTYPE svg PUBLIC "-//W3C//DTD SVG 1.1//EN" "http://www.w3.org/Graphics/SVG/1.1/DTD/svg11.dtd" >
<svg xmlns="http://www.w3.org/2000/svg" xmlns:xlink="http://www.w3.org/1999/xlink" version="1.1">
<metadata>
Created by FontForge 20160407 at Mon Oct 10 14:56:27 2016
 By Jimmy Warting
2013 published by FontShop International GmbH
</metadata>
<defs>
<font id="MarkPro-Light" horiz-adv-x="1" >
  <font-face 
    font-family="MarkPro-Light"
    font-weight="350"
    font-stretch="normal"
    units-per-em="2000"
    panose-1="2 11 5 4 2 1 1 1 1 2"
    ascent="1580"
    descent="-420"
    x-height="941"
    cap-height="1400"
    bbox="-1343 -478 3117 2203"
    underline-thickness="103"
    underline-position="-260"
    stemh="104"
    stemv="114"
    unicode-range="U+000D-FEFF"
  />
<missing-glyph horiz-adv-x="1198" 
d="M182 0v1400h834v-1400h-834zM285 103h628v1194h-628v-1194z" />
    <glyph glyph-name=".notdef" horiz-adv-x="1198" 
d="M182 0v1400h834v-1400h-834zM285 103h628v1194h-628v-1194z" />
    <glyph glyph-name=".null" horiz-adv-x="0" 
 />
    <glyph glyph-name=".null" horiz-adv-x="0" 
 />
    <glyph glyph-name="CR" unicode="&#xd;" horiz-adv-x="530" 
 />
    <glyph glyph-name="space" unicode=" " horiz-adv-x="530" 
 />
    <glyph glyph-name="exclam" unicode="!" horiz-adv-x="520" 
d="M329 1400l-18 -965h-103l-18 965h139zM260 178c51 0 96 -44 96 -95c0 -52 -45 -97 -96 -97s-96 45 -96 97c0 51 45 95 96 95z" />
    <glyph glyph-name="quotedbl" unicode="&#x22;" horiz-adv-x="1013" 
d="M293 1440h114v-484h-114v484zM605 1440h114v-484h-114v484z" />
    <glyph glyph-name="numbersign" unicode="#" horiz-adv-x="1456" 
d="M261 1025h234l80 375h107l-80 -375h390l80 375h107l-80 -375h231l-22 -102h-231l-93 -440h230l-21 -101h-231l-81 -382h-107l81 382h-390l-81 -382h-107l81 382h-233l22 101h233l93 440h-233zM580 923l-93 -440h390l93 440h-390z" />
    <glyph glyph-name="dollar" unicode="$" horiz-adv-x="1400" 
d="M656 1585h106v-191c183 -10 334 -71 443 -147l-60 -96c-96 66 -230 121 -383 131v-528l54 -6c243 -29 414 -139 412 -350c-3 -245 -208 -373 -466 -392v-196h-105v195c-180 9 -372 79 -482 164l63 94c89 -68 256 -136 419 -147l-1 536l-45 5c-252 28 -402 151 -400 352
c2 230 194 368 445 384v192zM764 640h-2v-523c200 16 346 105 347 275c1 138 -120 221 -345 248zM330 1012c-1 -127 94 -218 326 -246v516c-191 -15 -325 -113 -326 -270z" />
    <glyph glyph-name="percent" unicode="%" horiz-adv-x="1912" 
d="M456 1415c204 0 358 -152 358 -353c0 -202 -154 -354 -358 -354c-201 0 -355 152 -355 354c0 201 154 353 355 353zM456 1315c-141 0 -248 -106 -248 -253s107 -253 248 -253c144 0 251 106 251 253s-107 253 -251 253zM1458 1400l-883 -1400h-120l883 1400h120z
M1453 692c204 0 359 -153 359 -354c0 -202 -155 -353 -359 -353c-201 0 -354 151 -354 353c0 201 153 354 354 354zM1453 591c-140 0 -247 -106 -247 -253s107 -253 247 -253c144 0 252 106 252 253s-108 253 -252 253z" />
    <glyph glyph-name="ampersand" unicode="&#x26;" horiz-adv-x="1379" 
d="M1339 0h-165l-238 232c-105 -136 -233 -247 -434 -247c-234 0 -386 131 -386 339c0 190 142 314 290 424c-145 142 -213 230 -213 365c0 166 137 302 331 302c193 0 330 -127 330 -294c0 -163 -133 -273 -275 -378l346 -338l230 339l92 -58l-242 -359zM508 92
c154 0 251 86 349 217l-374 364c-130 -98 -245 -201 -245 -346c0 -139 111 -235 270 -235zM315 1106c0 -94 50 -155 187 -289c125 92 232 181 232 299c0 109 -84 192 -210 192c-124 0 -209 -88 -209 -202z" />
    <glyph glyph-name="quotesingle" unicode="'" horiz-adv-x="701" 
d="M293 1440h114v-484h-114v484z" />
    <glyph glyph-name="parenleft" unicode="(" horiz-adv-x="799" 
d="M676 1424l39 -105c-266 -101 -443 -405 -443 -751c0 -345 177 -649 443 -750l-39 -105c-310 112 -525 453 -525 855s215 743 525 856z" />
    <glyph glyph-name="parenright" unicode=")" horiz-adv-x="799" 
d="M123 -286l-39 105c266 101 443 405 443 751c0 345 -177 649 -443 750l39 105c310 -112 525 -453 525 -855s-215 -743 -525 -856z" />
    <glyph glyph-name="asterisk" unicode="*" horiz-adv-x="866" 
d="M132 1253l258 -85v272h88v-271l256 84l27 -84l-257 -84l160 -219l-71 -51l-160 218l-159 -218l-71 51l159 219l-257 84z" />
    <glyph glyph-name="plus" unicode="+" horiz-adv-x="1200" 
d="M650 103h-105v372h-371v103h371v377h105v-377h376v-103h-376v-372z" />
    <glyph glyph-name="comma" unicode="," horiz-adv-x="488" 
d="M205 234h133l-96 -483h-99z" />
    <glyph glyph-name="hyphen" unicode="-" horiz-adv-x="835" 
d="M689 578v-103h-542v103h542z" />
    <glyph glyph-name="period" unicode="." horiz-adv-x="520" 
d="M260 177c51 0 96 -44 96 -96c0 -51 -45 -96 -96 -96s-96 45 -96 96c0 52 45 96 96 96z" />
    <glyph glyph-name="slash" unicode="/" horiz-adv-x="984" 
d="M978 1540l-849 -1740h-125l849 1740h125z" />
    <glyph glyph-name="zero" unicode="0" horiz-adv-x="1417" 
d="M709 1415c314 0 571 -268 571 -715c0 -446 -257 -715 -571 -715c-315 0 -572 269 -572 715c0 447 257 715 572 715zM709 1302c-247 0 -449 -217 -449 -602c0 -384 202 -602 449 -602s448 218 448 602c0 385 -201 602 -448 602z" />
    <glyph glyph-name="one" unicode="1" horiz-adv-x="855" 
d="M635 1414v-1414h-118v1243l-448 -194v123z" />
    <glyph glyph-name="two" unicode="2" horiz-adv-x="1091" 
d="M174 1115l-85 69c66 102 187 231 417 231c281 0 438 -186 438 -424c0 -172 -95 -299 -189 -397l-458 -482h698v-112h-872v92l542 570c90 94 156 198 156 329c0 173 -112 312 -318 312c-170 0 -263 -90 -329 -188z" />
    <glyph glyph-name="three" unicode="3" horiz-adv-x="1097" 
d="M494 1415c271 0 455 -154 455 -374c0 -173 -96 -284 -239 -334c158 -50 270 -166 270 -335c0 -262 -231 -387 -473 -387c-188 0 -337 66 -438 175l75 79c90 -90 216 -144 360 -144c187 0 353 90 353 282c0 174 -162 276 -359 276h-193v108h193c184 0 328 93 328 275
c0 161 -144 269 -339 269c-145 0 -256 -73 -323 -164l-86 72c82 116 222 202 416 202z" />
    <glyph glyph-name="four" unicode="4" horiz-adv-x="1152" 
d="M844 817v-399h253v-111h-253v-307h-117v307h-672v91l523 1001h133l-515 -981h531v399h117z" />
    <glyph glyph-name="five" unicode="5" horiz-adv-x="1151" 
d="M967 1400v-111h-636l-17 -458h219c331 0 494 -181 494 -408c0 -277 -206 -438 -471 -438c-194 0 -351 72 -467 214l79 77c95 -116 236 -179 387 -179c221 0 350 137 350 316c0 173 -118 306 -407 306h-295l20 681h744z" />
    <glyph glyph-name="six" unicode="6" horiz-adv-x="1150" 
d="M741 1400l-350 -553c58 25 123 39 191 39c276 0 479 -193 479 -451c0 -257 -207 -450 -489 -450s-490 193 -490 450c0 101 33 190 91 284l424 681h144zM572 777c-213 0 -369 -144 -369 -342s156 -341 369 -341c212 0 368 143 368 341s-156 342 -368 342z" />
    <glyph glyph-name="seven" unicode="7" horiz-adv-x="1094" 
d="M1025 1400v-92l-648 -1308h-137l644 1289h-802v111h943z" />
    <glyph glyph-name="eight" unicode="8" horiz-adv-x="1256" 
d="M627 1415c262 0 478 -135 478 -374c0 -172 -103 -278 -237 -332c152 -53 271 -161 271 -340c0 -247 -231 -384 -512 -384s-511 137 -511 384c0 179 118 287 270 340c-135 54 -237 160 -237 332c0 239 216 374 478 374zM627 655c-213 0 -387 -97 -387 -279
c0 -186 175 -282 387 -282s387 96 387 282c0 182 -174 279 -387 279zM627 1305c-194 0 -353 -93 -353 -270c0 -183 159 -277 353 -277s354 94 354 277c0 177 -160 270 -354 270z" />
    <glyph glyph-name="nine" unicode="9" horiz-adv-x="1150" 
d="M409 0l349 553c-57 -25 -122 -39 -191 -39c-276 0 -478 193 -478 451c0 257 206 450 489 450c282 0 490 -193 490 -450c0 -101 -33 -190 -91 -284l-424 -681h-144zM578 623c213 0 368 144 369 342c0 197 -156 341 -369 341s-368 -144 -368 -341c0 -198 155 -342 368 -342
z" />
    <glyph glyph-name="colon" unicode=":" horiz-adv-x="520" 
d="M260 956c51 0 96 -44 96 -96c0 -51 -45 -96 -96 -96s-96 45 -96 96c0 52 45 96 96 96zM260 178c51 0 96 -44 96 -95c0 -52 -45 -97 -96 -97s-96 45 -96 97c0 51 45 95 96 95z" />
    <glyph glyph-name="semicolon" unicode=";" horiz-adv-x="488" 
d="M251 956c51 0 95 -44 95 -96c0 -51 -44 -96 -95 -96s-96 45 -96 96c0 52 45 96 96 96zM205 234h133l-96 -483h-99z" />
    <glyph glyph-name="less" unicode="&#x3c;" horiz-adv-x="1200" 
d="M986 225v-122l-770 368v113l770 368v-122l-656 -302z" />
    <glyph glyph-name="equal" unicode="=" horiz-adv-x="1200" 
d="M1026 403v-104h-852v104h852zM1026 754v-103h-852v103h852z" />
    <glyph glyph-name="greater" unicode="&#x3e;" horiz-adv-x="1200" 
d="M215 830v122l770 -368v-113l-770 -368v122l656 302z" />
    <glyph glyph-name="question" unicode="?" horiz-adv-x="848" 
d="M324 435h-104v310h49c238 0 383 107 383 283c0 167 -151 272 -375 272c-43 0 -89 -4 -124 -7l-10 116c39 6 95 10 140 10c298 0 495 -153 495 -387c0 -225 -165 -370 -447 -395zM272 177c51 0 96 -44 96 -96c0 -51 -45 -96 -96 -96s-96 45 -96 96c0 52 45 96 96 96z" />
    <glyph glyph-name="at" unicode="@" horiz-adv-x="1979" 
d="M1367 884v-485c0 -147 47 -208 128 -208c119 0 205 124 205 339c0 407 -308 680 -710 680s-710 -304 -710 -710c0 -412 308 -718 710 -718c165 0 315 51 441 141l54 -74c-142 -103 -312 -159 -495 -159c-464 0 -814 353 -814 810c0 452 350 802 814 802
s814 -320 814 -772c0 -243 -119 -430 -314 -430c-122 0 -193 68 -214 170c-61 -99 -167 -167 -312 -167c-216 0 -384 169 -384 397s168 397 384 397c141 0 244 -67 305 -164v151h98zM977 804c-174 0 -296 -132 -296 -304s122 -304 296 -304c172 0 296 130 296 304
s-124 304 -296 304z" />
    <glyph glyph-name="A" unicode="A" horiz-adv-x="1406" 
d="M778 1400l588 -1400h-131l-170 409h-728l-170 -409h-127l588 1400h150zM701 1281l-315 -756h630z" />
    <glyph glyph-name="B" unicode="B" horiz-adv-x="1399" 
d="M209 1400h541c291 0 495 -103 495 -363c0 -169 -96 -276 -241 -316c160 -41 270 -152 270 -339c0 -267 -197 -382 -501 -382h-564v1400zM768 656h-437v-541h437c228 0 378 68 378 271s-150 270 -378 270zM746 1285h-415v-515h416c214 0 371 59 371 258
c0 197 -158 257 -372 257z" />
    <glyph glyph-name="C" unicode="C" horiz-adv-x="1528" 
d="M843 1416c240 0 455 -110 566 -288l-102 -68c-97 147 -268 238 -464 238c-332 0 -590 -241 -590 -598s258 -598 590 -598c195 0 366 89 463 238l100 -73c-116 -175 -325 -283 -563 -283c-409 0 -717 296 -717 716s308 716 717 716z" />
    <glyph glyph-name="D" unicode="D" horiz-adv-x="1602" 
d="M209 1400h511c466 0 757 -270 757 -700s-291 -700 -757 -700h-511v1400zM720 1284h-389v-1168h389c407 0 629 229 629 584c0 356 -222 584 -629 584z" />
    <glyph glyph-name="E" unicode="E" horiz-adv-x="1341" 
d="M1173 115v-115h-964v1400h957v-115h-835v-523h811v-114h-811v-533h842z" />
    <glyph glyph-name="F" unicode="F" horiz-adv-x="1287" 
d="M1128 763v-116h-797v-647h-122v1400h952v-116h-830v-521h797z" />
    <glyph glyph-name="G" unicode="G" horiz-adv-x="1637" 
d="M843 1416c220 0 414 -90 542 -239l-90 -87c-107 129 -268 208 -452 208c-332 0 -590 -241 -590 -598s258 -598 584 -598c320 0 523 202 541 522h-474v114h606c2 -13 2 -22 2 -33c0 -411 -260 -720 -675 -720c-373 0 -711 270 -711 715c0 421 310 716 717 716z" />
    <glyph glyph-name="H" unicode="H" horiz-adv-x="1565" 
d="M331 1400v-637h902v637h122v-1400h-122v647h-902v-647h-122v1400h122z" />
    <glyph glyph-name="I" unicode="I" horiz-adv-x="541" 
d="M331 1400v-1400h-122v1400h122z" />
    <glyph glyph-name="J" unicode="J" horiz-adv-x="1151" 
d="M952 1400v-898c0 -333 -209 -517 -485 -517c-211 0 -343 96 -422 186l82 84c70 -82 182 -153 339 -153c214 0 364 142 364 411v887h122z" />
    <glyph glyph-name="K" unicode="K" horiz-adv-x="1367" 
d="M1167 0l-651 646h-185v-646h-122v1400h122v-638h187l615 638h158l-675 -689l717 -711h-166z" />
    <glyph glyph-name="L" unicode="L" horiz-adv-x="1204" 
d="M1162 116v-116h-953v1400h122v-1284h831z" />
    <glyph glyph-name="M" unicode="M" horiz-adv-x="1860" 
d="M1650 1400v-1400h-122v1261l-534 -1095h-129l-534 1089v-1255h-122v1400h184l537 -1091l536 1091h184z" />
    <glyph glyph-name="N" unicode="N" horiz-adv-x="1569" 
d="M1359 1400v-1400h-110l-917 1190l-1 -1190h-122v1400h110l918 -1190v1190h122z" />
    <glyph glyph-name="O" unicode="O" horiz-adv-x="1685" 
d="M843 1416c409 0 717 -296 717 -716s-308 -716 -717 -716s-717 296 -717 716s308 716 717 716zM843 1298c-332 0 -590 -241 -590 -598s258 -598 590 -598c331 0 589 241 589 598s-258 598 -589 598z" />
    <glyph glyph-name="P" unicode="P" horiz-adv-x="1331" 
d="M729 570h-398v-570h-122v1400h520c309 0 495 -153 495 -415s-186 -415 -495 -415zM726 1285h-395v-599h395c234 0 371 101 371 299s-137 300 -371 300z" />
    <glyph glyph-name="Q" unicode="Q" horiz-adv-x="1685" 
d="M843 1416c409 0 717 -296 717 -716c0 -180 -57 -338 -156 -459l192 -241h-144l-128 157c-125 -110 -294 -173 -481 -173c-409 0 -717 296 -717 716s308 716 717 716zM843 1298c-332 0 -590 -241 -590 -598s258 -598 590 -598c158 0 300 55 404 151l-344 431h146l275 -342
c68 96 108 218 108 358c0 357 -258 598 -589 598z" />
    <glyph glyph-name="R" unicode="R" horiz-adv-x="1341" 
d="M209 1400h534c309 0 483 -141 483 -389c0 -241 -184 -390 -482 -390h-55l530 -621h-152l-522 621h-214v-621h-122v1400zM742 1285h-411v-553h411c232 0 358 99 358 279c0 179 -128 274 -358 274z" />
    <glyph glyph-name="S" unicode="S" horiz-adv-x="1343" 
d="M1183 1261l-63 -99c-109 77 -254 137 -438 137c-225 0 -390 -104 -390 -279c0 -139 103 -224 342 -251l153 -17c249 -28 430 -126 430 -359c0 -272 -248 -408 -550 -408c-210 0 -418 77 -542 175l67 97c98 -78 280 -156 474 -156c237 0 424 93 424 282
c0 152 -122 226 -355 252l-159 18c-256 29 -411 144 -411 359c0 258 230 403 518 403c217 0 379 -68 500 -154z" />
    <glyph glyph-name="T" unicode="T" horiz-adv-x="1215" 
d="M1173 1400v-116h-505v-1284h-122v1284h-504v116h1131z" />
    <glyph glyph-name="U" unicode="U" horiz-adv-x="1510" 
d="M1321 1400v-855c0 -374 -253 -560 -567 -560s-566 186 -566 560v855h122v-846c0 -308 192 -452 444 -452c253 0 444 144 444 452v846h123z" />
    <glyph glyph-name="V" unicode="V" horiz-adv-x="1385" 
d="M1345 1400l-577 -1400h-151l-577 1400h130l524 -1279l525 1279h126z" />
    <glyph glyph-name="W" unicode="W" horiz-adv-x="2208" 
d="M2144 1400l-472 -1400h-149l-419 1241l-419 -1241h-149l-472 1400h129l419 -1265l425 1265h137l424 -1263l420 1263h126z" />
    <glyph glyph-name="X" unicode="X" horiz-adv-x="1373" 
d="M1279 1400l-517 -684l542 -716h-148l-470 624l-473 -624h-144l541 716l-515 684h148l445 -591l446 591h145z" />
    <glyph glyph-name="Y" unicode="Y" horiz-adv-x="1263" 
d="M1251 1400l-558 -800v-600h-122v602l-559 798h146l475 -685l475 685h143z" />
    <glyph glyph-name="Z" unicode="Z" horiz-adv-x="1327" 
d="M1197 1400v-94l-910 -1190h914v-116h-1076v95l909 1189h-894v116h1057z" />
    <glyph glyph-name="bracketleft" unicode="[" horiz-adv-x="738" 
d="M654 -157v-106h-445v1663h445v-106h-328v-1451h328z" />
    <glyph glyph-name="backslash" unicode="\" horiz-adv-x="984" 
d="M855 -200l-849 1740h125l849 -1740h-125z" />
    <glyph glyph-name="bracketright" unicode="]" horiz-adv-x="738" 
d="M84 1294v106h445v-1663h-445v106h328v1451h-328z" />
    <glyph glyph-name="asciicircum" unicode="^" horiz-adv-x="1200" 
d="M309 656h-121l356 744h112l356 -744h-124l-290 626z" />
    <glyph glyph-name="underscore" unicode="_" horiz-adv-x="935" 
d="M940 -150v-103h-945v103h945z" />
    <glyph glyph-name="grave" unicode="`" horiz-adv-x="904" 
d="M634 1082h-113l-251 300h144z" />
    <glyph glyph-name="a" unicode="a" horiz-adv-x="1244" 
d="M1063 941v-941h-113v181c-76 -118 -202 -196 -373 -196c-264 0 -470 205 -470 485s206 486 470 486c171 0 297 -79 373 -196v181h113zM590 849c-216 0 -367 -166 -367 -379c0 -212 153 -378 367 -378c213 0 366 162 366 378s-153 379 -366 379z" />
    <glyph glyph-name="b" unicode="b" horiz-adv-x="1245" 
d="M667 956c265 0 471 -206 471 -486s-206 -485 -471 -485c-170 0 -296 77 -371 194v-179h-114v1440h114v-678c75 116 201 194 371 194zM654 849c-212 0 -366 -163 -366 -379s154 -378 366 -378c217 0 367 166 367 378c0 213 -152 379 -367 379z" />
    <glyph glyph-name="c" unicode="c" horiz-adv-x="1023" 
d="M589 956c139 0 263 -52 347 -146l-74 -77c-73 73 -165 116 -276 116c-206 0 -363 -160 -363 -379s157 -378 363 -378c111 0 208 47 279 117l71 -78c-85 -94 -208 -146 -347 -146c-283 0 -482 208 -482 485s199 486 482 486z" />
    <glyph glyph-name="d" unicode="d" horiz-adv-x="1244" 
d="M577 956c171 0 297 -79 373 -196v680h113v-1440h-113v181c-76 -118 -202 -196 -373 -196c-264 0 -470 205 -470 485s206 486 470 486zM590 849c-216 0 -367 -166 -367 -379c0 -212 153 -378 367 -378c213 0 366 162 366 378s-153 379 -366 379z" />
    <glyph glyph-name="e" unicode="e" horiz-adv-x="1121" 
d="M573 956c251 0 438 -199 441 -480c0 -17 -1 -33 -2 -47h-789c17 -219 171 -345 364 -345c131 0 235 52 318 134l61 -78c-119 -121 -250 -155 -386 -155c-275 0 -473 198 -473 485c0 284 201 486 466 486zM571 855c-191 0 -324 -137 -346 -328h673
c-17 195 -150 328 -327 328z" />
    <glyph glyph-name="f" unicode="f" horiz-adv-x="875" 
d="M805 941v-104h-405v-837h-114v837h-231v104h231v162c0 207 87 352 311 352c104 0 189 -30 254 -70l-41 -95c-53 32 -128 58 -206 58c-146 0 -204 -91 -204 -245v-162h405z" />
    <glyph glyph-name="g" unicode="g" horiz-adv-x="1236" 
d="M574 956c169 0 294 -79 367 -199v184h114v-877c0 -313 -217 -476 -494 -476c-155 0 -303 51 -396 136l58 83c89 -70 206 -115 338 -115c211 0 380 121 380 367v134c-73 -120 -198 -198 -367 -198c-265 0 -467 199 -467 481c0 281 202 480 467 480zM586 849
c-214 0 -363 -165 -363 -373c0 -210 149 -374 363 -374c211 0 364 161 364 374c0 212 -153 373 -364 373z" />
    <glyph glyph-name="h" unicode="h" horiz-adv-x="1198" 
d="M296 1440v-662c74 124 206 178 335 178c236 0 396 -146 396 -379v-577h-114v542c0 190 -110 306 -302 306c-177 0 -315 -127 -315 -312v-536h-114v1440h114z" />
    <glyph glyph-name="i" unicode="i" horiz-adv-x="477" 
d="M296 941v-941h-114v941h114zM239 1362c46 0 82 -37 82 -83s-36 -81 -82 -81s-81 35 -81 81s35 83 81 83z" />
    <glyph glyph-name="j" unicode="j" horiz-adv-x="480" 
d="M299 941v-1119c0 -152 -79 -234 -210 -234c-48 0 -98 14 -130 33l28 98c25 -14 58 -24 93 -24c67 0 105 42 105 132v1114h114zM241 1362c46 0 82 -37 82 -83s-36 -81 -82 -81s-81 35 -81 81s35 83 81 83z" />
    <glyph glyph-name="k" unicode="k" horiz-adv-x="1042" 
d="M296 1440v-896h153l396 397h144l-448 -444l456 -497h-145l-403 441h-153v-441h-114v1440h114z" />
    <glyph glyph-name="l" unicode="l" horiz-adv-x="477" 
d="M296 1440v-1440h-114v1440h114z" />
    <glyph glyph-name="m" unicode="m" horiz-adv-x="1930" 
d="M1362 956c236 0 397 -146 397 -379v-577h-114v542c0 190 -111 306 -303 306c-177 0 -315 -127 -315 -312v-536h-114v542c0 190 -110 306 -302 306c-177 0 -315 -127 -315 -312v-536h-114v941h113v-165c74 126 206 180 336 180c176 0 310 -81 366 -219
c70 154 219 219 365 219z" />
    <glyph glyph-name="n" unicode="n" horiz-adv-x="1198" 
d="M631 956c236 0 396 -146 396 -379v-577h-114v542c0 190 -110 306 -302 306c-177 0 -315 -127 -315 -312v-536h-114v941h113v-165c74 126 206 180 336 180z" />
    <glyph glyph-name="o" unicode="o" horiz-adv-x="1192" 
d="M595 956c279 0 490 -209 490 -486s-211 -485 -490 -485s-488 208 -488 485s209 486 488 486zM595 849c-211 0 -372 -160 -372 -379s161 -378 372 -378c212 0 373 159 373 378s-161 379 -373 379z" />
    <glyph glyph-name="p" unicode="p" horiz-adv-x="1245" 
d="M667 956c265 0 471 -206 471 -486s-206 -485 -471 -485c-170 0 -296 77 -371 194v-579h-114v1341h114v-179c75 116 201 194 371 194zM654 849c-212 0 -366 -163 -366 -379s154 -378 366 -378c217 0 367 166 367 378c0 213 -152 379 -367 379z" />
    <glyph glyph-name="q" unicode="q" horiz-adv-x="1244" 
d="M577 956c171 0 297 -79 373 -196v181h113v-1341h-113v581c-76 -118 -202 -196 -373 -196c-264 0 -470 205 -470 485s206 486 470 486zM590 849c-216 0 -367 -166 -367 -379c0 -212 153 -378 367 -378c213 0 366 162 366 378s-153 379 -366 379z" />
    <glyph glyph-name="r" unicode="r" horiz-adv-x="814" 
d="M584 957c67 0 125 -11 176 -36l-29 -111c-46 25 -110 38 -167 38c-157 0 -269 -127 -269 -317v-531h-113v941h112v-160c61 110 166 176 290 176z" />
    <glyph glyph-name="s" unicode="s" horiz-adv-x="974" 
d="M858 850l-49 -88c-64 45 -187 94 -319 94c-147 0 -250 -64 -250 -170c0 -87 69 -135 214 -152l120 -14c196 -23 309 -104 309 -253c0 -178 -163 -282 -405 -282c-137 0 -278 37 -387 120l53 85c73 -57 173 -106 335 -106c170 0 287 58 287 176c0 87 -72 140 -217 156
l-121 13c-213 24 -305 117 -305 251c0 173 149 276 366 276c149 0 284 -45 369 -106z" />
    <glyph glyph-name="t" unicode="t" horiz-adv-x="904" 
d="M819 941v-104h-434v-513c0 -159 84 -232 209 -232c81 0 155 28 210 72l54 -85c-67 -56 -160 -94 -273 -94c-196 0 -314 109 -314 337v515h-216v104h216v307h114v-307h434z" />
    <glyph glyph-name="u" unicode="u" horiz-adv-x="1186" 
d="M1015 941v-552c0 -267 -191 -404 -422 -404c-232 0 -422 137 -422 404v552h114v-542c0 -202 127 -307 308 -307c180 0 308 105 308 307v542h114z" />
    <glyph glyph-name="v" unicode="v" horiz-adv-x="1030" 
d="M996 941l-415 -943h-131l-416 943h124l358 -828l360 828h120z" />
    <glyph glyph-name="w" unicode="w" horiz-adv-x="1725" 
d="M927 941l310 -825l319 825h118l-369 -941h-134l-310 822l-308 -822h-133l-369 941h121l318 -824l309 824h128z" />
    <glyph glyph-name="x" unicode="x" horiz-adv-x="1006" 
d="M957 941l-379 -459l392 -482h-140l-331 398l-329 -398h-134l392 481l-379 460h140l316 -382l317 382h135z" />
    <glyph glyph-name="y" unicode="y" horiz-adv-x="1028" 
d="M1011 941l-779 -1344h-126l360 613l-442 731h128l379 -619l355 619h125z" />
    <glyph glyph-name="z" unicode="z" horiz-adv-x="1066" 
d="M931 941v-84l-652 -754h660v-103h-812v83l657 754h-637v104h784z" />
    <glyph glyph-name="braceleft" unicode="{" horiz-adv-x="839" 
d="M755 1294h-66c-137 0 -230 -79 -221 -255l8 -149c10 -176 -68 -282 -203 -321c135 -39 213 -145 203 -321l-8 -149c-9 -176 84 -255 221 -255h66v-106h-66c-220 0 -352 129 -338 373l8 150c9 176 -87 255 -233 255v106c146 0 242 79 233 255l-8 150
c-13 244 118 373 338 373h66v-106z" />
    <glyph glyph-name="bar" unicode="|" horiz-adv-x="701" 
d="M407 1400v-1665h-114v1665h114z" />
    <glyph glyph-name="braceright" unicode="}" horiz-adv-x="839" 
d="M84 -156h66c137 0 230 79 221 255l-8 149c-10 176 68 282 203 321c-135 39 -213 145 -203 321l8 149c9 176 -84 255 -221 255h-66v106h66c220 0 352 -129 338 -373l-8 -150c-9 -176 87 -255 233 -255v-106c-146 0 -242 -79 -233 -255l8 -150c13 -244 -118 -373 -338 -373
h-66v106z" />
    <glyph glyph-name="asciitilde" unicode="~" horiz-adv-x="1200" 
d="M973 620l63 -72c-69 -77 -143 -115 -254 -115c-181 0 -219 91 -373 91c-75 0 -126 -30 -184 -89l-63 72c69 77 143 115 254 115c182 0 219 -91 373 -91c75 0 126 30 184 89z" />
    <glyph glyph-name="uni00A0" unicode="&#xa0;" horiz-adv-x="530" 
 />
    <glyph glyph-name="exclamdown" unicode="&#xa1;" horiz-adv-x="520" 
d="M191 -459l18 965h103l18 -965h-139zM260 763c-51 0 -96 44 -96 95c0 52 45 97 96 97s96 -45 96 -97c0 -51 -45 -95 -96 -95z" />
    <glyph glyph-name="cent" unicode="&#xa2;" horiz-adv-x="1400" 
d="M692 1400h106v-216c130 -6 247 -58 329 -145l-68 -74c-71 68 -158 109 -261 116v-762c104 7 196 51 265 117l64 -75c-83 -88 -199 -140 -329 -146v-215h-106v220c-249 35 -417 230 -417 480c0 249 168 444 417 479v221zM387 700c0 -194 127 -341 305 -375v750
c-178 -34 -305 -181 -305 -375z" />
    <glyph glyph-name="sterling" unicode="&#xa3;" horiz-adv-x="1400" 
d="M1210 112v-112h-1020v112h187v536h-187v104h187v171c0 326 204 492 452 492c148 0 276 -58 362 -173l-87 -75c-65 90 -161 136 -275 136c-189 0 -335 -124 -335 -389v-162h545v-104h-545v-536h716z" />
    <glyph glyph-name="currency" unicode="&#xa4;" horiz-adv-x="1400" 
d="M226 1108l66 68l145 -145c72 58 164 93 265 93c100 0 192 -34 264 -92l144 144l67 -68l-143 -144c58 -72 93 -164 93 -264c0 -101 -35 -193 -93 -266l144 -143l-68 -68l-144 144c-72 -58 -164 -92 -264 -92c-101 0 -193 35 -266 93l-143 -145l-67 68l143 143
c-58 73 -92 165 -92 266c0 100 34 192 92 264zM702 369c184 0 330 146 330 331c0 184 -146 330 -330 330s-330 -146 -330 -330c0 -185 146 -331 330 -331z" />
    <glyph glyph-name="yen" unicode="&#xa5;" horiz-adv-x="1400" 
d="M1172 433v-95h-409v-338h-118v338h-410v95h410v220h-410v95h358l-475 652h140l446 -616l441 616h138l-469 -652h358v-95h-409v-220h409z" />
    <glyph glyph-name="brokenbar" unicode="&#xa6;" horiz-adv-x="701" 
d="M407 1400v-694h-114v694h114zM407 429v-694h-114v694h114z" />
    <glyph glyph-name="section" unicode="&#xa7;" horiz-adv-x="1310" 
d="M1121 1272l-55 -93c-96 70 -236 129 -395 129c-204 0 -353 -85 -354 -228c0 -122 115 -188 318 -208l135 -13c206 -20 389 -112 389 -304c0 -117 -65 -203 -166 -258c88 -49 146 -125 146 -233c0 -236 -227 -349 -496 -349c-201 0 -381 72 -493 159l60 92
c92 -71 245 -145 433 -145c213 0 379 76 380 234c0 124 -136 186 -323 206l-143 15c-217 23 -376 119 -376 306c0 111 62 198 162 254c-88 50 -142 128 -142 237c0 215 207 342 469 342c189 0 343 -64 451 -143zM578 767c-46 5 -88 13 -128 25c-95 -38 -153 -110 -153 -204
c0 -121 114 -185 317 -206l137 -15c47 -5 93 -14 135 -27c96 38 157 106 157 206c0 124 -136 189 -322 207z" />
    <glyph glyph-name="dieresis" unicode="&#xa8;" horiz-adv-x="914" 
d="M252 1310c46 0 82 -37 82 -83s-36 -81 -82 -81s-81 35 -81 81s35 83 81 83zM661 1310c46 0 83 -37 83 -83s-37 -81 -83 -81s-81 35 -81 81s35 83 81 83z" />
    <glyph glyph-name="copyright" unicode="&#xa9;" horiz-adv-x="1898" 
d="M949 1500c441 0 799 -356 799 -794c0 -439 -358 -796 -799 -796s-798 357 -798 796c0 438 357 794 798 794zM949 1400c-384 0 -694 -310 -694 -694c0 -385 310 -695 694 -695s695 310 695 695c0 384 -311 694 -695 694zM1310 957l-85 -58c-54 83 -147 133 -255 133
c-175 0 -314 -133 -314 -326c0 -202 143 -326 315 -326c107 0 200 50 256 132l80 -63c-72 -105 -193 -169 -336 -169c-239 0 -422 175 -422 426c0 250 183 426 422 426c142 0 269 -67 339 -175z" />
    <glyph glyph-name="ordfeminine" unicode="&#xaa;" horiz-adv-x="781" 
d="M372 1298c170 0 284 -84 284 -271v-393h-93v100c-55 -61 -138 -111 -247 -111c-142 0 -232 81 -232 197c0 115 96 190 271 190h206v8c0 138 -76 196 -199 196c-89 0 -156 -35 -204 -75l-38 73c64 51 148 86 252 86zM337 701c94 0 173 49 225 110v132h-193
c-131 0 -186 -54 -186 -121s57 -121 154 -121z" />
    <glyph glyph-name="guillemotleft" unicode="&#xab;" horiz-adv-x="998" 
d="M640 527l194 -364h-123l-193 364l193 364h123zM261 527l194 -364h-123l-193 364l193 364h123z" />
    <glyph glyph-name="logicalnot" unicode="&#xac;" horiz-adv-x="1200" 
d="M1026 578v-420h-106v317h-746v103h852z" />
    <glyph glyph-name="uni00AD" unicode="&#xad;" horiz-adv-x="835" 
d="M689 578v-103h-542v103h542z" />
    <glyph glyph-name="registered" unicode="&#xae;" horiz-adv-x="880" 
d="M442 1431c214 0 388 -172 388 -384c0 -210 -174 -382 -388 -382c-219 0 -392 172 -392 382c0 212 173 384 392 384zM442 734c172 0 311 140 311 313c0 175 -138 314 -311 314c-177 0 -315 -139 -315 -314c0 -173 138 -313 315 -313zM303 1234h162c89 0 142 -44 142 -114
c0 -61 -45 -103 -121 -110l123 -144h-75l-118 144h-50v-144h-63v368zM464 1179h-98v-118h98c48 0 79 20 79 59c0 38 -31 59 -79 59z" />
    <glyph glyph-name="macron" unicode="&#xaf;" horiz-adv-x="904" 
d="M160 1180v93h585v-93h-585z" />
    <glyph glyph-name="degree" unicode="&#xb0;" horiz-adv-x="768" 
d="M384 753c-184 0 -334 148 -334 332c0 182 150 330 334 330s334 -148 334 -330c0 -184 -150 -332 -334 -332zM384 846c129 0 236 106 236 239c0 131 -107 237 -236 237c-130 0 -236 -106 -236 -237c0 -133 106 -239 236 -239z" />
    <glyph glyph-name="plusminus" unicode="&#xb1;" horiz-adv-x="1200" 
d="M650 298h-105v325h-371v104h371v361h105v-361h376v-104h-376v-325zM1026 176v-104h-852v104h852z" />
    <glyph glyph-name="twosuperior" unicode="&#xb2;" horiz-adv-x="657" 
d="M128 1220l-62 59c41 59 114 129 246 129c157 0 247 -100 247 -234c0 -92 -45 -160 -110 -225l-224 -227h361v-88h-496v74l292 295c47 47 80 99 80 164c0 84 -58 150 -158 150c-87 0 -139 -46 -176 -97z" />
    <glyph glyph-name="threesuperior" unicode="&#xb3;" horiz-adv-x="658" 
d="M293 1408c154 0 261 -85 261 -207c0 -91 -53 -153 -133 -181c90 -27 149 -92 149 -181c0 -145 -132 -214 -271 -214c-106 0 -190 37 -248 98l55 63c48 -47 113 -75 189 -75c94 0 177 43 177 136c0 83 -82 131 -181 131h-103v84h103c93 0 165 46 165 132
c0 77 -69 128 -167 128c-79 0 -139 -37 -177 -84l-58 60c51 63 128 110 239 110z" />
    <glyph glyph-name="acute" unicode="&#xb4;" horiz-adv-x="904" 
d="M383 1082h-113l220 300h144z" />
    <glyph glyph-name="mu" unicode="&#xb5;" horiz-adv-x="1197" 
d="M284 -400h-113v1341h114v-542c0 -190 110 -306 302 -306c177 0 315 127 315 312v536h114v-941h-113v165c-74 -126 -206 -180 -336 -180c-116 0 -214 35 -283 107v-492z" />
    <glyph glyph-name="paragraph" unicode="&#xb6;" horiz-adv-x="1117" 
d="M537 0v749h-2c-242 0 -385 121 -385 325c0 205 143 326 385 326h93v-1400h-91zM733 0v1400h91v-1400h-91z" />
    <glyph glyph-name="periodcentered" unicode="&#xb7;" horiz-adv-x="749" 
d="M375 623c51 0 95 -44 95 -96c0 -51 -44 -96 -95 -96s-96 45 -96 96c0 52 45 96 96 96z" />
    <glyph glyph-name="cedilla" unicode="&#xb8;" horiz-adv-x="973" 
d="M598 5l-103 -328h-119l108 329z" />
    <glyph glyph-name="onesuperior" unicode="&#xb9;" horiz-adv-x="541" 
d="M378 1407v-773h-95v641l-232 -95v94z" />
    <glyph glyph-name="ordmasculine" unicode="&#xba;" horiz-adv-x="849" 
d="M424 1298c195 0 341 -144 341 -337s-146 -338 -341 -338c-194 0 -340 145 -340 338s146 337 340 337zM424 1210c-138 0 -243 -106 -243 -249c0 -144 105 -249 243 -249c139 0 245 105 245 249c0 143 -106 249 -245 249z" />
    <glyph glyph-name="guillemotright" unicode="&#xbb;" horiz-adv-x="998" 
d="M358 527l-194 364h123l193 -364l-193 -364h-123zM737 527l-194 364h123l193 -364l-193 -364h-123z" />
    <glyph glyph-name="onequarter" unicode="&#xbc;" horiz-adv-x="1582" 
d="M1271 1400l-883 -1400h-115l883 1400h115zM1413 461v-217h128v-87h-128v-157h-95v157h-365v69l274 538h104l-266 -520h253v217h95zM378 1407v-773h-95v641l-232 -95v94z" />
    <glyph glyph-name="onehalf" unicode="&#xbd;" horiz-adv-x="1640" 
d="M1271 1400l-883 -1400h-115l883 1400h115zM1111 586l-62 59c41 59 114 129 246 129c157 0 247 -100 247 -234c0 -92 -45 -160 -110 -225l-224 -227h361v-88h-496v74l292 295c47 47 80 99 80 164c0 84 -58 150 -158 150c-87 0 -139 -46 -176 -97zM378 1407v-773h-95v641
l-232 -95v94z" />
    <glyph glyph-name="threequarters" unicode="&#xbe;" horiz-adv-x="1677" 
d="M1367 1400l-883 -1400h-115l883 1400h115zM1508 461v-217h128v-87h-128v-157h-95v157h-365v69l274 538h104l-266 -520h253v217h95zM293 1408c154 0 261 -85 261 -207c0 -91 -53 -153 -133 -181c90 -27 149 -92 149 -181c0 -145 -132 -214 -271 -214
c-106 0 -190 37 -248 98l55 63c48 -47 113 -75 189 -75c94 0 177 43 177 136c0 83 -82 131 -181 131h-103v84h103c93 0 165 46 165 132c0 77 -69 128 -167 128c-79 0 -139 -37 -177 -84l-58 60c51 63 128 110 239 110z" />
    <glyph glyph-name="questiondown" unicode="&#xbf;" horiz-adv-x="848" 
d="M524 506h104v-310h-49c-238 0 -383 -107 -383 -283c0 -167 151 -272 375 -272c43 0 89 4 124 7l10 -116c-39 -6 -95 -10 -140 -10c-298 0 -495 153 -495 387c0 224 164 370 446 394zM576 764c-51 0 -96 44 -96 96c0 51 45 96 96 96s96 -45 96 -96c0 -52 -45 -96 -96 -96z
" />
    <glyph glyph-name="Agrave" unicode="&#xc0;" horiz-adv-x="1406" 
d="M778 1400l588 -1400h-131l-170 409h-728l-170 -409h-127l588 1400h150zM701 1281l-315 -756h630zM713 1497l-251 300h144l220 -300h-113z" />
    <glyph glyph-name="Aacute" unicode="&#xc1;" horiz-adv-x="1406" 
d="M778 1400l588 -1400h-131l-170 409h-728l-170 -409h-127l588 1400h150zM701 1281l-315 -756h630zM685 1497h-113l220 300h144z" />
    <glyph glyph-name="Acircumflex" unicode="&#xc2;" horiz-adv-x="1406" 
d="M778 1400l588 -1400h-131l-170 409h-728l-170 -409h-127l588 1400h150zM701 1281l-315 -756h630zM1026 1503h-123l-200 205l-200 -205h-123l248 282h150z" />
    <glyph glyph-name="Atilde" unicode="&#xc3;" horiz-adv-x="1406" 
d="M778 1400l588 -1400h-131l-170 409h-728l-170 -409h-127l588 1400h150zM701 1281l-315 -756h630zM431 1567l-68 65c55 73 115 110 206 110c135 0 172 -86 267 -86c56 0 96 26 138 77l69 -65c-56 -73 -116 -111 -207 -111c-133 0 -170 87 -267 87c-56 0 -95 -26 -138 -77z
" />
    <glyph glyph-name="Adieresis" unicode="&#xc4;" horiz-adv-x="1406" 
d="M778 1400l588 -1400h-131l-170 409h-728l-170 -409h-127l588 1400h150zM701 1281l-315 -756h630zM498 1725c46 0 82 -37 82 -83s-36 -81 -82 -81s-81 35 -81 81s35 83 81 83zM907 1725c46 0 83 -37 83 -83s-37 -81 -83 -81s-81 35 -81 81s35 83 81 83z" />
    <glyph glyph-name="Aring" unicode="&#xc5;" horiz-adv-x="1406" 
d="M778 1400l588 -1400h-131l-170 409h-728l-170 -409h-127l588 1400h150zM701 1281l-315 -756h630zM703 1481c-118 0 -215 95 -215 213c0 117 97 213 215 213s215 -96 215 -213c0 -118 -97 -213 -215 -213zM703 1554c76 0 138 62 138 140c0 77 -62 139 -138 139
s-138 -62 -138 -139c0 -78 62 -140 138 -140z" />
    <glyph glyph-name="AE" unicode="&#xc6;" horiz-adv-x="2265" 
d="M2097 115v-115h-964v390h-658l-296 -390h-147l1067 1400h991v-115h-835v-523h811v-114h-811v-533h842zM564 506h569v748z" />
    <glyph glyph-name="Ccedilla" unicode="&#xc7;" horiz-adv-x="1528" 
d="M843 1416c240 0 455 -110 566 -288l-102 -68c-97 147 -268 238 -464 238c-332 0 -590 -241 -590 -598s258 -598 590 -598c195 0 366 89 463 238l100 -73c-106 -159 -288 -263 -499 -280l-97 -310h-124l102 309c-381 24 -662 313 -662 714c0 420 308 716 717 716z" />
    <glyph glyph-name="Egrave" unicode="&#xc8;" horiz-adv-x="1341" 
d="M1173 115v-115h-964v1400h957v-115h-835v-523h811v-114h-811v-533h842zM691 1497l-251 300h144l220 -300h-113z" />
    <glyph glyph-name="Eacute" unicode="&#xc9;" horiz-adv-x="1341" 
d="M1173 115v-115h-964v1400h957v-115h-835v-523h811v-114h-811v-533h842zM663 1497h-113l220 300h144z" />
    <glyph glyph-name="Ecircumflex" unicode="&#xca;" horiz-adv-x="1341" 
d="M1173 115v-115h-964v1400h957v-115h-835v-523h811v-114h-811v-533h842zM1004 1503h-123l-200 205l-200 -205h-123l248 282h150z" />
    <glyph glyph-name="Edieresis" unicode="&#xcb;" horiz-adv-x="1341" 
d="M1173 115v-115h-964v1400h957v-115h-835v-523h811v-114h-811v-533h842zM476 1725c46 0 82 -37 82 -83s-36 -81 -82 -81s-81 35 -81 81s35 83 81 83zM885 1725c46 0 83 -37 83 -83s-37 -81 -83 -81s-81 35 -81 81s35 83 81 83z" />
    <glyph glyph-name="Igrave" unicode="&#xcc;" horiz-adv-x="541" 
d="M331 1400v-1400h-122v1400h122zM280 1497l-251 300h144l220 -300h-113z" />
    <glyph glyph-name="Iacute" unicode="&#xcd;" horiz-adv-x="541" 
d="M331 1400v-1400h-122v1400h122zM252 1497h-113l220 300h144z" />
    <glyph glyph-name="Icircumflex" unicode="&#xce;" horiz-adv-x="541" 
d="M331 1400v-1400h-122v1400h122zM593 1503h-123l-200 205l-200 -205h-123l248 282h150z" />
    <glyph glyph-name="Idieresis" unicode="&#xcf;" horiz-adv-x="541" 
d="M331 1400v-1400h-122v1400h122zM65 1725c46 0 82 -37 82 -83s-36 -81 -82 -81s-81 35 -81 81s35 83 81 83zM474 1725c46 0 83 -37 83 -83s-37 -81 -83 -81s-81 35 -81 81s35 83 81 83z" />
    <glyph glyph-name="Eth" unicode="&#xd0;" horiz-adv-x="1775" 
d="M382 1400h511c466 0 757 -270 757 -700s-291 -700 -757 -700h-511v647h-257v116h257v637zM924 763v-116h-420v-531h389c407 0 629 229 629 584c0 356 -222 584 -629 584h-389v-521h420z" />
    <glyph glyph-name="Ntilde" unicode="&#xd1;" horiz-adv-x="1569" 
d="M1359 1400v-1400h-110l-917 1190l-1 -1190h-122v1400h110l918 -1190v1190h122zM512 1567l-68 65c55 73 115 110 206 110c135 0 172 -86 267 -86c56 0 96 26 138 77l69 -65c-56 -73 -116 -111 -207 -111c-133 0 -170 87 -267 87c-56 0 -95 -26 -138 -77z" />
    <glyph glyph-name="Ograve" unicode="&#xd2;" horiz-adv-x="1685" 
d="M843 1416c409 0 717 -296 717 -716s-308 -716 -717 -716s-717 296 -717 716s308 716 717 716zM843 1298c-332 0 -590 -241 -590 -598s258 -598 590 -598c331 0 589 241 589 598s-258 598 -589 598zM853 1497l-251 300h144l220 -300h-113z" />
    <glyph glyph-name="Oacute" unicode="&#xd3;" horiz-adv-x="1685" 
d="M843 1416c409 0 717 -296 717 -716s-308 -716 -717 -716s-717 296 -717 716s308 716 717 716zM843 1298c-332 0 -590 -241 -590 -598s258 -598 590 -598c331 0 589 241 589 598s-258 598 -589 598zM825 1497h-113l220 300h144z" />
    <glyph glyph-name="Ocircumflex" unicode="&#xd4;" horiz-adv-x="1685" 
d="M843 1416c409 0 717 -296 717 -716s-308 -716 -717 -716s-717 296 -717 716s308 716 717 716zM843 1298c-332 0 -590 -241 -590 -598s258 -598 590 -598c331 0 589 241 589 598s-258 598 -589 598zM1166 1503h-123l-200 205l-200 -205h-123l248 282h150z" />
    <glyph glyph-name="Otilde" unicode="&#xd5;" horiz-adv-x="1685" 
d="M843 1416c409 0 717 -296 717 -716s-308 -716 -717 -716s-717 296 -717 716s308 716 717 716zM843 1298c-332 0 -590 -241 -590 -598s258 -598 590 -598c331 0 589 241 589 598s-258 598 -589 598zM571 1567l-68 65c55 73 115 110 206 110c135 0 172 -86 267 -86
c56 0 96 26 138 77l69 -65c-56 -73 -116 -111 -207 -111c-133 0 -170 87 -267 87c-56 0 -95 -26 -138 -77z" />
    <glyph glyph-name="Odieresis" unicode="&#xd6;" horiz-adv-x="1685" 
d="M843 1416c409 0 717 -296 717 -716s-308 -716 -717 -716s-717 296 -717 716s308 716 717 716zM843 1298c-332 0 -590 -241 -590 -598s258 -598 590 -598c331 0 589 241 589 598s-258 598 -589 598zM638 1725c46 0 82 -37 82 -83s-36 -81 -82 -81s-81 35 -81 81
s35 83 81 83zM1047 1725c46 0 83 -37 83 -83s-37 -81 -83 -81s-81 35 -81 81s35 83 81 83z" />
    <glyph glyph-name="multiply" unicode="&#xd7;" horiz-adv-x="1200" 
d="M301 155l-74 74l296 296l-297 299l76 75l297 -298l301 301l73 -74l-300 -301l301 -301l-75 -75l-302 301z" />
    <glyph glyph-name="Oslash" unicode="&#xd8;" horiz-adv-x="1685" 
d="M843 1416c184 0 347 -60 471 -164l163 163l81 -81l-163 -163c104 -122 165 -284 165 -471c0 -420 -308 -716 -717 -716c-184 0 -348 60 -472 164l-162 -162l-81 80l162 162c-103 123 -164 285 -164 472c0 420 308 716 717 716zM843 1298c-332 0 -590 -241 -590 -598
c0 -152 46 -283 126 -383l847 847c-102 85 -235 134 -383 134zM1432 700c0 151 -47 282 -126 382l-848 -847c103 -85 236 -133 385 -133c331 0 589 241 589 598z" />
    <glyph glyph-name="Ugrave" unicode="&#xd9;" horiz-adv-x="1510" 
d="M1321 1400v-855c0 -374 -253 -560 -567 -560s-566 186 -566 560v855h122v-846c0 -308 192 -452 444 -452c253 0 444 144 444 452v846h123zM764 1497l-251 300h144l220 -300h-113z" />
    <glyph glyph-name="Uacute" unicode="&#xda;" horiz-adv-x="1510" 
d="M1321 1400v-855c0 -374 -253 -560 -567 -560s-566 186 -566 560v855h122v-846c0 -308 192 -452 444 -452c253 0 444 144 444 452v846h123zM736 1497h-113l220 300h144z" />
    <glyph glyph-name="Ucircumflex" unicode="&#xdb;" horiz-adv-x="1510" 
d="M1321 1400v-855c0 -374 -253 -560 -567 -560s-566 186 -566 560v855h122v-846c0 -308 192 -452 444 -452c253 0 444 144 444 452v846h123zM1077 1503h-123l-200 205l-200 -205h-123l248 282h150z" />
    <glyph glyph-name="Udieresis" unicode="&#xdc;" horiz-adv-x="1510" 
d="M1321 1400v-855c0 -374 -253 -560 -567 -560s-566 186 -566 560v855h122v-846c0 -308 192 -452 444 -452c253 0 444 144 444 452v846h123zM549 1725c46 0 82 -37 82 -83s-36 -81 -82 -81s-81 35 -81 81s35 83 81 83zM958 1725c46 0 83 -37 83 -83s-37 -81 -83 -81
s-81 35 -81 81s35 83 81 83z" />
    <glyph glyph-name="Yacute" unicode="&#xdd;" horiz-adv-x="1263" 
d="M1251 1400l-558 -800v-600h-122v602l-559 798h146l475 -685l475 685h143zM615 1497h-113l220 300h144z" />
    <glyph glyph-name="Thorn" unicode="&#xde;" horiz-adv-x="1331" 
d="M331 1400v-270h398c309 0 495 -153 495 -415s-186 -415 -495 -415h-398v-300h-122v1400h122zM726 1015h-395v-599h395c234 0 371 101 371 299s-137 300 -371 300z" />
    <glyph glyph-name="germandbls" unicode="&#xdf;" horiz-adv-x="1216" 
d="M173 0v1020c0 252 159 435 449 435c249 0 447 -149 447 -377c0 -180 -103 -297 -234 -341c153 -39 274 -174 274 -352c0 -251 -186 -400 -410 -400c-109 0 -182 20 -245 49l28 103c54 -28 118 -46 200 -46c180 0 311 104 311 298c0 187 -143 289 -350 289h-71v103h48
c176 0 333 77 333 280c0 188 -149 287 -333 287c-201 0 -333 -126 -333 -336v-1012h-114z" />
    <glyph glyph-name="agrave" unicode="&#xe0;" horiz-adv-x="1244" 
d="M1063 941v-941h-113v181c-76 -118 -202 -196 -373 -196c-264 0 -470 205 -470 485s206 486 470 486c171 0 297 -79 373 -196v181h113zM590 849c-216 0 -367 -166 -367 -379c0 -212 153 -378 367 -378c213 0 366 162 366 378s-153 379 -366 379zM599 1082l-251 300h144
l220 -300h-113z" />
    <glyph glyph-name="aacute" unicode="&#xe1;" horiz-adv-x="1244" 
d="M1063 941v-941h-113v181c-76 -118 -202 -196 -373 -196c-264 0 -470 205 -470 485s206 486 470 486c171 0 297 -79 373 -196v181h113zM590 849c-216 0 -367 -166 -367 -379c0 -212 153 -378 367 -378c213 0 366 162 366 378s-153 379 -366 379zM601 1082h-113l220 300
h144z" />
    <glyph glyph-name="acircumflex" unicode="&#xe2;" horiz-adv-x="1244" 
d="M1063 941v-941h-113v181c-76 -118 -202 -196 -373 -196c-264 0 -470 205 -470 485s206 486 470 486c171 0 297 -79 373 -196v181h113zM590 849c-216 0 -367 -166 -367 -379c0 -212 153 -378 367 -378c213 0 366 162 366 378s-153 379 -366 379zM929 1088h-123l-200 205
l-200 -205h-123l248 282h150z" />
    <glyph glyph-name="atilde" unicode="&#xe3;" horiz-adv-x="1244" 
d="M1063 941v-941h-113v181c-76 -118 -202 -196 -373 -196c-264 0 -470 205 -470 485s206 486 470 486c171 0 297 -79 373 -196v181h113zM590 849c-216 0 -367 -166 -367 -379c0 -212 153 -378 367 -378c213 0 366 162 366 378s-153 379 -366 379zM345 1152l-68 65
c55 73 115 110 206 110c135 0 172 -86 267 -86c56 0 96 26 138 77l69 -65c-56 -73 -116 -111 -207 -111c-133 0 -170 87 -267 87c-56 0 -95 -26 -138 -77z" />
    <glyph glyph-name="adieresis" unicode="&#xe4;" horiz-adv-x="1244" 
d="M1063 941v-941h-113v181c-76 -118 -202 -196 -373 -196c-264 0 -470 205 -470 485s206 486 470 486c171 0 297 -79 373 -196v181h113zM590 849c-216 0 -367 -166 -367 -379c0 -212 153 -378 367 -378c213 0 366 162 366 378s-153 379 -366 379zM401 1310
c46 0 82 -37 82 -83s-36 -81 -82 -81s-81 35 -81 81s35 83 81 83zM810 1310c46 0 83 -37 83 -83s-37 -81 -83 -81s-81 35 -81 81s35 83 81 83z" />
    <glyph glyph-name="aring" unicode="&#xe5;" horiz-adv-x="1244" 
d="M1063 941v-941h-113v181c-76 -118 -202 -196 -373 -196c-264 0 -470 205 -470 485s206 486 470 486c171 0 297 -79 373 -196v181h113zM590 849c-216 0 -367 -166 -367 -379c0 -212 153 -378 367 -378c213 0 366 162 366 378s-153 379 -366 379zM606 1066
c-118 0 -215 95 -215 213c0 117 97 213 215 213s215 -96 215 -213c0 -118 -97 -213 -215 -213zM606 1139c76 0 138 62 138 140c0 77 -62 139 -138 139s-138 -62 -138 -139c0 -78 62 -140 138 -140z" />
    <glyph glyph-name="ae" unicode="&#xe6;" horiz-adv-x="1819" 
d="M1272 956c251 0 437 -199 440 -481c0 -16 -1 -32 -2 -46h-788c17 -219 171 -345 363 -345c132 0 237 54 318 133l61 -77c-118 -121 -250 -155 -385 -155c-171 0 -312 75 -394 200c-88 -113 -232 -200 -415 -200c-224 0 -363 111 -363 273c0 159 133 269 390 269h309v29
c0 208 -116 297 -301 297c-124 0 -219 -47 -288 -100l-54 85c98 75 217 118 356 118c178 0 315 -65 365 -231c73 140 220 231 388 231zM487 85c136 0 274 72 354 186c-19 49 -31 103 -35 161h-297c-201 0 -280 -74 -280 -174c0 -99 93 -173 258 -173zM1270 854
c-190 0 -323 -136 -346 -327h672c-16 194 -150 327 -326 327z" />
    <glyph glyph-name="ccedilla" unicode="&#xe7;" horiz-adv-x="1023" 
d="M589 956c139 0 263 -52 347 -146l-74 -77c-73 73 -165 116 -276 116c-206 0 -363 -160 -363 -379s157 -378 363 -378c111 0 208 47 279 117l71 -78c-75 -83 -179 -132 -298 -143l-97 -311h-119l102 312c-248 29 -417 225 -417 481c0 277 199 486 482 486z" />
    <glyph glyph-name="egrave" unicode="&#xe8;" horiz-adv-x="1121" 
d="M573 956c251 0 438 -199 441 -480c0 -17 -1 -33 -2 -47h-789c17 -219 171 -345 364 -345c131 0 235 52 318 134l61 -78c-119 -121 -250 -155 -386 -155c-275 0 -473 198 -473 485c0 284 201 486 466 486zM571 855c-191 0 -324 -137 -346 -328h673
c-17 195 -150 328 -327 328zM564 1082l-251 300h144l220 -300h-113z" />
    <glyph glyph-name="eacute" unicode="&#xe9;" horiz-adv-x="1121" 
d="M573 956c251 0 438 -199 441 -480c0 -17 -1 -33 -2 -47h-789c17 -219 171 -345 364 -345c131 0 235 52 318 134l61 -78c-119 -121 -250 -155 -386 -155c-275 0 -473 198 -473 485c0 284 201 486 466 486zM571 855c-191 0 -324 -137 -346 -328h673
c-17 195 -150 328 -327 328zM566 1082h-113l220 300h144z" />
    <glyph glyph-name="ecircumflex" unicode="&#xea;" horiz-adv-x="1121" 
d="M573 956c251 0 438 -199 441 -480c0 -17 -1 -33 -2 -47h-789c17 -219 171 -345 364 -345c131 0 235 52 318 134l61 -78c-119 -121 -250 -155 -386 -155c-275 0 -473 198 -473 485c0 284 201 486 466 486zM571 855c-191 0 -324 -137 -346 -328h673
c-17 195 -150 328 -327 328zM894 1088h-123l-200 205l-200 -205h-123l248 282h150z" />
    <glyph glyph-name="edieresis" unicode="&#xeb;" horiz-adv-x="1121" 
d="M573 956c251 0 438 -199 441 -480c0 -17 -1 -33 -2 -47h-789c17 -219 171 -345 364 -345c131 0 235 52 318 134l61 -78c-119 -121 -250 -155 -386 -155c-275 0 -473 198 -473 485c0 284 201 486 466 486zM571 855c-191 0 -324 -137 -346 -328h673
c-17 195 -150 328 -327 328zM366 1310c46 0 82 -37 82 -83s-36 -81 -82 -81s-81 35 -81 81s35 83 81 83zM775 1310c46 0 83 -37 83 -83s-37 -81 -83 -81s-81 35 -81 81s35 83 81 83z" />
    <glyph glyph-name="igrave" unicode="&#xec;" horiz-adv-x="477" 
d="M296 941v-941h-114v941h114zM232 1082l-251 300h144l220 -300h-113z" />
    <glyph glyph-name="iacute" unicode="&#xed;" horiz-adv-x="477" 
d="M296 941v-941h-114v941h114zM234 1082h-113l220 300h144z" />
    <glyph glyph-name="icircumflex" unicode="&#xee;" horiz-adv-x="477" 
d="M296 941v-941h-114v941h114zM562 1088h-123l-200 205l-200 -205h-123l248 282h150z" />
    <glyph glyph-name="idieresis" unicode="&#xef;" horiz-adv-x="477" 
d="M296 941v-941h-114v941h114zM34 1310c46 0 82 -37 82 -83s-36 -81 -82 -81s-81 35 -81 81s35 83 81 83zM443 1310c46 0 83 -37 83 -83s-37 -81 -83 -81s-81 35 -81 81s35 83 81 83z" />
    <glyph glyph-name="eth" unicode="&#xf0;" horiz-adv-x="1189" 
d="M883 1425l43 -69l-222 -129c208 -183 378 -457 378 -750c0 -280 -211 -492 -487 -492c-278 0 -488 206 -488 478c0 274 204 480 467 480c137 0 256 -56 334 -151c-59 134 -161 265 -301 378l-259 -150l-42 69l230 135c-71 49 -150 94 -236 133l51 92
c106 -46 201 -103 285 -167zM595 836c-211 0 -372 -156 -372 -373c0 -215 161 -371 372 -371c212 0 373 156 373 371c0 217 -161 373 -373 373z" />
    <glyph glyph-name="ntilde" unicode="&#xf1;" horiz-adv-x="1198" 
d="M631 956c236 0 396 -146 396 -379v-577h-114v542c0 190 -110 306 -302 306c-177 0 -315 -127 -315 -312v-536h-114v941h113v-165c74 126 206 180 336 180zM353 1152l-68 65c55 73 115 110 206 110c135 0 172 -86 267 -86c56 0 96 26 138 77l69 -65
c-56 -73 -116 -111 -207 -111c-133 0 -170 87 -267 87c-56 0 -95 -26 -138 -77z" />
    <glyph glyph-name="ograve" unicode="&#xf2;" horiz-adv-x="1192" 
d="M595 956c279 0 490 -209 490 -486s-211 -485 -490 -485s-488 208 -488 485s209 486 488 486zM595 849c-211 0 -372 -160 -372 -379s161 -378 372 -378c212 0 373 159 373 378s-161 379 -373 379zM589 1082l-251 300h144l220 -300h-113z" />
    <glyph glyph-name="oacute" unicode="&#xf3;" horiz-adv-x="1192" 
d="M595 956c279 0 490 -209 490 -486s-211 -485 -490 -485s-488 208 -488 485s209 486 488 486zM595 849c-211 0 -372 -160 -372 -379s161 -378 372 -378c212 0 373 159 373 378s-161 379 -373 379zM591 1082h-113l220 300h144z" />
    <glyph glyph-name="ocircumflex" unicode="&#xf4;" horiz-adv-x="1192" 
d="M595 956c279 0 490 -209 490 -486s-211 -485 -490 -485s-488 208 -488 485s209 486 488 486zM595 849c-211 0 -372 -160 -372 -379s161 -378 372 -378c212 0 373 159 373 378s-161 379 -373 379zM919 1088h-123l-200 205l-200 -205h-123l248 282h150z" />
    <glyph glyph-name="otilde" unicode="&#xf5;" horiz-adv-x="1192" 
d="M595 956c279 0 490 -209 490 -486s-211 -485 -490 -485s-488 208 -488 485s209 486 488 486zM595 849c-211 0 -372 -160 -372 -379s161 -378 372 -378c212 0 373 159 373 378s-161 379 -373 379zM335 1152l-68 65c55 73 115 110 206 110c135 0 172 -86 267 -86
c56 0 96 26 138 77l69 -65c-56 -73 -116 -111 -207 -111c-133 0 -170 87 -267 87c-56 0 -95 -26 -138 -77z" />
    <glyph glyph-name="odieresis" unicode="&#xf6;" horiz-adv-x="1192" 
d="M595 956c279 0 490 -209 490 -486s-211 -485 -490 -485s-488 208 -488 485s209 486 488 486zM595 849c-211 0 -372 -160 -372 -379s161 -378 372 -378c212 0 373 159 373 378s-161 379 -373 379zM391 1310c46 0 82 -37 82 -83s-36 -81 -82 -81s-81 35 -81 81s35 83 81 83
zM800 1310c46 0 83 -37 83 -83s-37 -81 -83 -81s-81 35 -81 81s35 83 81 83z" />
    <glyph glyph-name="divide" unicode="&#xf7;" horiz-adv-x="1200" 
d="M1026 578v-103h-852v103h852zM601 918c42 0 80 -37 80 -80s-38 -81 -80 -81c-43 0 -81 38 -81 81s38 80 81 80zM601 296c42 0 80 -36 80 -80c0 -43 -38 -80 -80 -80c-43 0 -81 37 -81 80c0 44 38 80 81 80z" />
    <glyph glyph-name="oslash" unicode="&#xf8;" horiz-adv-x="1192" 
d="M595 956c120 0 228 -40 312 -106l116 116l70 -68l-117 -117c68 -83 109 -191 109 -311c0 -277 -211 -485 -490 -485c-120 0 -228 38 -311 104l-115 -115l-70 68l116 116c-68 83 -108 191 -108 312c0 277 209 486 488 486zM595 849c-211 0 -372 -160 -372 -379
c0 -90 27 -169 73 -231l532 532c-63 49 -144 78 -233 78zM968 470c0 89 -27 168 -72 231l-532 -532c63 -49 142 -77 231 -77c212 0 373 159 373 378z" />
    <glyph glyph-name="ugrave" unicode="&#xf9;" horiz-adv-x="1186" 
d="M1015 941v-552c0 -267 -191 -404 -422 -404c-232 0 -422 137 -422 404v552h114v-542c0 -202 127 -307 308 -307c180 0 308 105 308 307v542h114zM586 1082l-251 300h144l220 -300h-113z" />
    <glyph glyph-name="uacute" unicode="&#xfa;" horiz-adv-x="1186" 
d="M1015 941v-552c0 -267 -191 -404 -422 -404c-232 0 -422 137 -422 404v552h114v-542c0 -202 127 -307 308 -307c180 0 308 105 308 307v542h114zM588 1082h-113l220 300h144z" />
    <glyph glyph-name="ucircumflex" unicode="&#xfb;" horiz-adv-x="1186" 
d="M1015 941v-552c0 -267 -191 -404 -422 -404c-232 0 -422 137 -422 404v552h114v-542c0 -202 127 -307 308 -307c180 0 308 105 308 307v542h114zM916 1088h-123l-200 205l-200 -205h-123l248 282h150z" />
    <glyph glyph-name="udieresis" unicode="&#xfc;" horiz-adv-x="1186" 
d="M1015 941v-552c0 -267 -191 -404 -422 -404c-232 0 -422 137 -422 404v552h114v-542c0 -202 127 -307 308 -307c180 0 308 105 308 307v542h114zM388 1310c46 0 82 -37 82 -83s-36 -81 -82 -81s-81 35 -81 81s35 83 81 83zM797 1310c46 0 83 -37 83 -83s-37 -81 -83 -81
s-81 35 -81 81s35 83 81 83z" />
    <glyph glyph-name="yacute" unicode="&#xfd;" horiz-adv-x="1028" 
d="M1011 941l-779 -1344h-126l360 613l-442 731h128l379 -619l355 619h125zM514 1082h-113l220 300h144z" />
    <glyph glyph-name="thorn" unicode="&#xfe;" horiz-adv-x="1245" 
d="M667 956c265 0 471 -206 471 -486s-206 -485 -471 -485c-170 0 -296 77 -371 194v-579h-114v1840h114v-678c75 116 201 194 371 194zM654 849c-212 0 -366 -163 -366 -379s154 -378 366 -378c216 0 367 166 367 378c0 213 -153 379 -367 379z" />
    <glyph glyph-name="ydieresis" unicode="&#xff;" horiz-adv-x="1028" 
d="M1011 941l-779 -1344h-126l360 613l-442 731h128l379 -619l355 619h125zM314 1310c46 0 82 -37 82 -83s-36 -81 -82 -81s-81 35 -81 81s35 83 81 83zM723 1310c46 0 83 -37 83 -83s-37 -81 -83 -81s-81 35 -81 81s35 83 81 83z" />
    <glyph glyph-name="Amacron" unicode="&#x100;" horiz-adv-x="1406" 
d="M778 1400l588 -1400h-131l-170 409h-728l-170 -409h-127l588 1400h150zM701 1281l-315 -756h630zM411 1595v93h585v-93h-585z" />
    <glyph glyph-name="amacron" unicode="&#x101;" horiz-adv-x="1244" 
d="M1063 941v-941h-113v181c-76 -118 -202 -196 -373 -196c-264 0 -470 205 -470 485s206 486 470 486c171 0 297 -79 373 -196v181h113zM590 849c-216 0 -367 -166 -367 -379c0 -212 153 -378 367 -378c213 0 366 162 366 378s-153 379 -366 379zM314 1180v93h585v-93h-585
z" />
    <glyph glyph-name="Abreve" unicode="&#x102;" horiz-adv-x="1406" 
d="M778 1400l588 -1400h-131l-170 409h-728l-170 -409h-127l588 1400h150zM701 1281l-315 -756h630zM378 1771l92 28c37 -134 119 -201 233 -201s196 67 233 201l93 -28c-48 -176 -166 -270 -326 -270s-278 94 -325 270z" />
    <glyph glyph-name="abreve" unicode="&#x103;" horiz-adv-x="1244" 
d="M1063 941v-941h-113v181c-76 -118 -202 -196 -373 -196c-264 0 -470 205 -470 485s206 486 470 486c171 0 297 -79 373 -196v181h113zM590 849c-216 0 -367 -166 -367 -379c0 -212 153 -378 367 -378c213 0 366 162 366 378s-153 379 -366 379zM281 1356l92 28
c37 -134 119 -201 233 -201s196 67 233 201l93 -28c-48 -176 -166 -270 -326 -270s-278 94 -325 270z" />
    <glyph glyph-name="Aogonek" unicode="&#x104;" horiz-adv-x="1406" 
d="M1311 -256l62 -74c-54 -56 -116 -82 -186 -82c-116 0 -200 65 -200 167c0 107 88 182 243 257l-165 397h-728l-170 -409h-127l588 1402h150l588 -1402h-33c-159 -74 -238 -142 -238 -223c0 -56 41 -91 102 -91c44 0 82 21 114 58zM701 1282l-315 -757h630z" />
    <glyph glyph-name="aogonek" unicode="&#x105;" horiz-adv-x="1244" 
d="M1041 -256l62 -74c-54 -56 -116 -82 -186 -82c-116 0 -200 65 -200 167c0 105 84 179 233 251v175c-76 -118 -202 -196 -373 -196c-264 0 -470 205 -470 485s206 486 470 486c171 0 297 -79 373 -196v181h113v-941c-159 -74 -238 -142 -238 -223c0 -56 41 -91 102 -91
c44 0 82 21 114 58zM590 849c-216 0 -367 -166 -367 -379c0 -212 153 -378 367 -378c213 0 366 162 366 378s-153 379 -366 379z" />
    <glyph glyph-name="Cacute" unicode="&#x106;" horiz-adv-x="1528" 
d="M843 1416c240 0 455 -110 566 -288l-102 -68c-97 147 -268 238 -464 238c-332 0 -590 -241 -590 -598s258 -598 590 -598c195 0 366 89 463 238l100 -73c-116 -175 -325 -283 -563 -283c-409 0 -717 296 -717 716s308 716 717 716zM820 1497h-113l220 300h144z" />
    <glyph glyph-name="cacute" unicode="&#x107;" horiz-adv-x="1023" 
d="M589 956c139 0 263 -52 347 -146l-74 -77c-73 73 -165 116 -276 116c-206 0 -363 -160 -363 -379s157 -378 363 -378c111 0 208 47 279 117l71 -78c-85 -94 -208 -146 -347 -146c-283 0 -482 208 -482 485s199 486 482 486zM577 1082h-113l220 300h144z" />
    <glyph glyph-name="Ccircumflex" unicode="&#x108;" horiz-adv-x="1528" 
d="M843 1416c240 0 455 -110 566 -288l-102 -68c-97 147 -268 238 -464 238c-332 0 -590 -241 -590 -598s258 -598 590 -598c195 0 366 89 463 238l100 -73c-116 -175 -325 -283 -563 -283c-409 0 -717 296 -717 716s308 716 717 716zM1161 1503h-123l-200 205l-200 -205
h-123l248 282h150z" />
    <glyph glyph-name="ccircumflex" unicode="&#x109;" horiz-adv-x="1023" 
d="M589 956c139 0 263 -52 347 -146l-74 -77c-73 73 -165 116 -276 116c-206 0 -363 -160 -363 -379s157 -378 363 -378c111 0 208 47 279 117l71 -78c-85 -94 -208 -146 -347 -146c-283 0 -482 208 -482 485s199 486 482 486zM905 1088h-123l-200 205l-200 -205h-123
l248 282h150z" />
    <glyph glyph-name="Cdotaccent" unicode="&#x10a;" horiz-adv-x="1528" 
d="M843 1416c240 0 455 -110 566 -288l-102 -68c-97 147 -268 238 -464 238c-332 0 -590 -241 -590 -598s258 -598 590 -598c195 0 366 89 463 238l100 -73c-116 -175 -325 -283 -563 -283c-409 0 -717 296 -717 716s308 716 717 716zM828 1730c47 0 84 -38 84 -85
s-37 -83 -84 -83c-48 0 -84 36 -84 83s36 85 84 85z" />
    <glyph glyph-name="cdotaccent" unicode="&#x10b;" horiz-adv-x="1023" 
d="M589 956c139 0 263 -52 347 -146l-74 -77c-73 73 -165 116 -276 116c-206 0 -363 -160 -363 -379s157 -378 363 -378c111 0 208 47 279 117l71 -78c-85 -94 -208 -146 -347 -146c-283 0 -482 208 -482 485s199 486 482 486zM582 1362c46 0 82 -37 82 -83s-36 -81 -82 -81
s-81 35 -81 81s35 83 81 83z" />
    <glyph glyph-name="Ccaron" unicode="&#x10c;" horiz-adv-x="1528" 
d="M843 1416c240 0 455 -110 566 -288l-102 -68c-97 147 -268 238 -464 238c-332 0 -590 -241 -590 -598s258 -598 590 -598c195 0 366 89 463 238l100 -73c-116 -175 -325 -283 -563 -283c-409 0 -717 296 -717 716s308 716 717 716zM515 1782h123l200 -204l200 204h123
l-248 -281h-150z" />
    <glyph glyph-name="ccaron" unicode="&#x10d;" horiz-adv-x="1023" 
d="M589 956c139 0 263 -52 347 -146l-74 -77c-73 73 -165 116 -276 116c-206 0 -363 -160 -363 -379s157 -378 363 -378c111 0 208 47 279 117l71 -78c-85 -94 -208 -146 -347 -146c-283 0 -482 208 -482 485s199 486 482 486zM259 1367h123l200 -204l200 204h123l-248 -281
h-150z" />
    <glyph glyph-name="Dcaron" unicode="&#x10e;" horiz-adv-x="1602" 
d="M209 1400h511c466 0 757 -270 757 -700s-291 -700 -757 -700h-511v1400zM720 1284h-389v-1168h389c407 0 629 229 629 584c0 356 -222 584 -629 584zM413 1782h123l200 -204l200 204h123l-248 -281h-150z" />
    <glyph glyph-name="dcaron" unicode="&#x10f;" horiz-adv-x="1282" 
d="M577 956c171 0 297 -79 373 -196v680h113v-1440h-113v181c-76 -118 -202 -196 -373 -196c-264 0 -470 205 -470 485s206 486 470 486zM590 849c-216 0 -367 -166 -367 -379c0 -212 153 -378 367 -378c213 0 366 162 366 378s-153 379 -366 379zM1282 1051h-96l11 389h117
z" />
    <glyph glyph-name="Dcroat" unicode="&#x110;" horiz-adv-x="1775" 
d="M382 1400h511c466 0 757 -270 757 -700s-291 -700 -757 -700h-511v647h-257v116h257v637zM924 763v-116h-420v-531h389c407 0 629 229 629 584c0 356 -222 584 -629 584h-389v-521h420z" />
    <glyph glyph-name="dcroat" unicode="&#x111;" horiz-adv-x="1244" 
d="M1225 1228v-103h-162v-1125h-113v181c-76 -118 -202 -196 -373 -196c-264 0 -470 205 -470 485s206 486 470 486c171 0 297 -79 373 -196v365h-435v103h435v212h113v-212h162zM590 849c-216 0 -367 -166 -367 -379c0 -212 153 -378 367 -378c213 0 366 162 366 378
s-153 379 -366 379z" />
    <glyph glyph-name="Emacron" unicode="&#x112;" horiz-adv-x="1341" 
d="M1173 115v-115h-964v1400h957v-115h-835v-523h811v-114h-811v-533h842zM389 1595v93h585v-93h-585z" />
    <glyph glyph-name="emacron" unicode="&#x113;" horiz-adv-x="1121" 
d="M573 956c251 0 438 -199 441 -480c0 -17 -1 -33 -2 -47h-789c17 -219 171 -345 364 -345c131 0 235 52 318 134l61 -78c-119 -121 -250 -155 -386 -155c-275 0 -473 198 -473 485c0 284 201 486 466 486zM571 855c-191 0 -324 -137 -346 -328h673
c-17 195 -150 328 -327 328zM279 1180v93h585v-93h-585z" />
    <glyph glyph-name="Ebreve" unicode="&#x114;" horiz-adv-x="1341" 
d="M1173 115v-115h-964v1400h957v-115h-835v-523h811v-114h-811v-533h842zM356 1771l92 28c37 -134 119 -201 233 -201s196 67 233 201l93 -28c-48 -176 -166 -270 -326 -270s-278 94 -325 270z" />
    <glyph glyph-name="ebreve" unicode="&#x115;" horiz-adv-x="1121" 
d="M573 956c251 0 438 -199 441 -480c0 -17 -1 -33 -2 -47h-789c17 -219 171 -345 364 -345c131 0 235 52 318 134l61 -78c-119 -121 -250 -155 -386 -155c-275 0 -473 198 -473 485c0 284 201 486 466 486zM571 855c-191 0 -324 -137 -346 -328h673
c-17 195 -150 328 -327 328zM246 1356l92 28c37 -134 119 -201 233 -201s196 67 233 201l93 -28c-48 -176 -166 -270 -326 -270s-278 94 -325 270z" />
    <glyph glyph-name="Edotaccent" unicode="&#x116;" horiz-adv-x="1341" 
d="M1173 115v-115h-964v1400h957v-115h-835v-523h811v-114h-811v-533h842zM671 1730c47 0 84 -38 84 -85s-37 -83 -84 -83c-48 0 -84 36 -84 83s36 85 84 85z" />
    <glyph glyph-name="edotaccent" unicode="&#x117;" horiz-adv-x="1121" 
d="M573 956c251 0 438 -199 441 -480c0 -17 -1 -33 -2 -47h-789c17 -219 171 -345 364 -345c131 0 235 52 318 134l61 -78c-119 -121 -250 -155 -386 -155c-275 0 -473 198 -473 485c0 284 201 486 466 486zM571 855c-191 0 -324 -137 -346 -328h673
c-17 195 -150 328 -327 328zM571 1362c46 0 82 -37 82 -83s-36 -81 -82 -81s-81 35 -81 81s35 83 81 83z" />
    <glyph glyph-name="Eogonek" unicode="&#x118;" horiz-adv-x="1341" 
d="M1173 115v-115h-183c-104 -58 -158 -117 -158 -195c0 -71 55 -119 139 -119c59 0 111 22 154 63l61 -73c-59 -58 -138 -88 -222 -88c-145 0 -243 83 -243 197c0 95 54 160 153 215h-665v1400h957v-115h-835v-523h811v-114h-811v-533h842z" />
    <glyph glyph-name="eogonek" unicode="&#x119;" horiz-adv-x="1121" 
d="M894 -251l61 -73c-59 -58 -138 -88 -222 -88c-145 0 -243 83 -243 197c0 86 45 148 123 201c-11 -1 -22 -1 -33 -1c-275 0 -473 198 -473 485c0 284 201 486 466 486c251 0 438 -199 441 -480c0 -17 -1 -33 -2 -47h-789c17 -219 171 -345 364 -345c131 0 235 52 318 134
l61 -78c-53 -54 -107 -89 -164 -115c-122 -55 -201 -128 -201 -220c0 -71 55 -119 139 -119c59 0 111 22 154 63zM571 855c-191 0 -324 -137 -346 -328h673c-17 195 -150 328 -327 328z" />
    <glyph glyph-name="Ecaron" unicode="&#x11a;" horiz-adv-x="1341" 
d="M1173 115v-115h-964v1400h957v-115h-835v-523h811v-114h-811v-533h842zM358 1782h123l200 -204l200 204h123l-248 -281h-150z" />
    <glyph glyph-name="ecaron" unicode="&#x11b;" horiz-adv-x="1121" 
d="M573 956c251 0 438 -199 441 -480c0 -17 -1 -33 -2 -47h-789c17 -219 171 -345 364 -345c131 0 235 52 318 134l61 -78c-119 -121 -250 -155 -386 -155c-275 0 -473 198 -473 485c0 284 201 486 466 486zM571 855c-191 0 -324 -137 -346 -328h673
c-17 195 -150 328 -327 328zM248 1367h123l200 -204l200 204h123l-248 -281h-150z" />
    <glyph glyph-name="Gcircumflex" unicode="&#x11c;" horiz-adv-x="1637" 
d="M843 1416c220 0 414 -90 542 -239l-90 -87c-107 129 -268 208 -452 208c-332 0 -590 -241 -590 -598s258 -598 584 -598c320 0 523 202 541 522h-474v114h606c2 -13 2 -22 2 -33c0 -411 -260 -720 -675 -720c-373 0 -711 270 -711 715c0 421 310 716 717 716zM1146 1503
h-123l-200 205l-200 -205h-123l248 282h150z" />
    <glyph glyph-name="gcircumflex" unicode="&#x11d;" horiz-adv-x="1236" 
d="M574 956c169 0 294 -79 367 -199v184h114v-877c0 -313 -217 -476 -494 -476c-155 0 -303 51 -396 136l58 83c89 -70 206 -115 338 -115c211 0 380 121 380 367v134c-73 -120 -198 -198 -367 -198c-265 0 -467 199 -467 481c0 281 202 480 467 480zM586 849
c-214 0 -363 -165 -363 -373c0 -210 149 -374 363 -374c211 0 364 161 364 374c0 212 -153 373 -364 373zM923 1088h-123l-200 205l-200 -205h-123l248 282h150z" />
    <glyph glyph-name="Gbreve" unicode="&#x11e;" horiz-adv-x="1637" 
d="M843 1416c220 0 414 -90 542 -239l-90 -87c-107 129 -268 208 -452 208c-332 0 -590 -241 -590 -598s258 -598 584 -598c320 0 523 202 541 522h-474v114h606c2 -13 2 -22 2 -33c0 -411 -260 -720 -675 -720c-373 0 -711 270 -711 715c0 421 310 716 717 716zM498 1771
l92 28c37 -134 119 -201 233 -201s196 67 233 201l93 -28c-48 -176 -166 -270 -326 -270s-278 94 -325 270z" />
    <glyph glyph-name="gbreve" unicode="&#x11f;" horiz-adv-x="1236" 
d="M574 956c169 0 294 -79 367 -199v184h114v-877c0 -313 -217 -476 -494 -476c-155 0 -303 51 -396 136l58 83c89 -70 206 -115 338 -115c211 0 380 121 380 367v134c-73 -120 -198 -198 -367 -198c-265 0 -467 199 -467 481c0 281 202 480 467 480zM586 849
c-214 0 -363 -165 -363 -373c0 -210 149 -374 363 -374c211 0 364 161 364 374c0 212 -153 373 -364 373zM275 1356l92 28c37 -134 119 -201 233 -201s196 67 233 201l93 -28c-48 -176 -166 -270 -326 -270s-278 94 -325 270z" />
    <glyph glyph-name="Gdotaccent" unicode="&#x120;" horiz-adv-x="1637" 
d="M843 1416c220 0 414 -90 542 -239l-90 -87c-107 129 -268 208 -452 208c-332 0 -590 -241 -590 -598s258 -598 584 -598c320 0 523 202 541 522h-474v114h606c2 -13 2 -22 2 -33c0 -411 -260 -720 -675 -720c-373 0 -711 270 -711 715c0 421 310 716 717 716zM813 1730
c47 0 84 -38 84 -85s-37 -83 -84 -83c-48 0 -84 36 -84 83s36 85 84 85z" />
    <glyph glyph-name="gdotaccent" unicode="&#x121;" horiz-adv-x="1236" 
d="M574 956c169 0 294 -79 367 -199v184h114v-877c0 -313 -217 -476 -494 -476c-155 0 -303 51 -396 136l58 83c89 -70 206 -115 338 -115c211 0 380 121 380 367v134c-73 -120 -198 -198 -367 -198c-265 0 -467 199 -467 481c0 281 202 480 467 480zM586 849
c-214 0 -363 -165 -363 -373c0 -210 149 -374 363 -374c211 0 364 161 364 374c0 212 -153 373 -364 373zM600 1362c46 0 82 -37 82 -83s-36 -81 -82 -81s-81 35 -81 81s35 83 81 83z" />
    <glyph glyph-name="Gcommaaccent" unicode="&#x122;" horiz-adv-x="1637" 
d="M843 1416c220 0 414 -90 542 -239l-90 -87c-107 129 -268 208 -452 208c-332 0 -590 -241 -590 -598s258 -598 584 -598c320 0 523 202 541 522h-474v114h606c2 -13 2 -22 2 -33c0 -411 -260 -720 -675 -720c-373 0 -711 270 -711 715c0 421 310 716 717 716zM779 -88
h125l-68 -341h-101z" />
    <glyph glyph-name="gcommaaccent" unicode="&#x123;" horiz-adv-x="1236" 
d="M574 956c169 0 294 -79 367 -199v184h114v-877c0 -313 -217 -476 -494 -476c-155 0 -303 51 -396 136l58 83c89 -70 206 -115 338 -115c211 0 380 121 380 367v134c-73 -120 -198 -198 -367 -198c-265 0 -467 199 -467 481c0 281 202 480 467 480zM586 849
c-214 0 -363 -165 -363 -373c0 -210 149 -374 363 -374c211 0 364 161 364 374c0 212 -153 373 -364 373zM653 1082h-125l68 340h101z" />
    <glyph glyph-name="Hcircumflex" unicode="&#x124;" horiz-adv-x="1565" 
d="M331 1400v-637h902v637h122v-1400h-122v647h-902v-647h-122v1400h122zM1105 1503h-123l-200 205l-200 -205h-123l248 282h150z" />
    <glyph glyph-name="hcircumflex" unicode="&#x125;" horiz-adv-x="1198" 
d="M296 1440v-662c74 124 206 178 335 178c236 0 396 -146 396 -379v-577h-114v542c0 190 -110 306 -302 306c-177 0 -315 -127 -315 -312v-536h-114v1440h114zM930 1547h-123l-200 205l-200 -205h-123l248 282h150z" />
    <glyph glyph-name="Hbar" unicode="&#x126;" horiz-adv-x="1621" 
d="M1558 1125v-103h-175v-1022h-122v647h-902v-647h-122v1022h-174v103h174v275h122v-275h902v275h122v-275h175zM359 763h902v259h-902v-259z" />
    <glyph glyph-name="hbar" unicode="&#x127;" horiz-adv-x="1198" 
d="M709 1228v-103h-413v-347c74 124 206 178 335 178c236 0 396 -146 396 -379v-577h-114v542c0 190 -110 306 -302 306c-177 0 -315 -127 -315 -312v-536h-114v1125h-183v103h183v212h114v-212h413z" />
    <glyph glyph-name="Itilde" unicode="&#x128;" horiz-adv-x="541" 
d="M331 1400v-1400h-122v1400h122zM-2 1567l-68 65c55 73 115 110 206 110c135 0 172 -86 267 -86c56 0 96 26 138 77l69 -65c-56 -73 -116 -111 -207 -111c-133 0 -170 87 -267 87c-56 0 -95 -26 -138 -77z" />
    <glyph glyph-name="itilde" unicode="&#x129;" horiz-adv-x="477" 
d="M296 941v-941h-114v941h114zM-22 1152l-68 65c55 73 115 110 206 110c135 0 172 -86 267 -86c56 0 96 26 138 77l69 -65c-56 -73 -116 -111 -207 -111c-133 0 -170 87 -267 87c-56 0 -95 -26 -138 -77z" />
    <glyph glyph-name="Imacron" unicode="&#x12a;" horiz-adv-x="541" 
d="M331 1400v-1400h-122v1400h122zM-22 1595v93h585v-93h-585z" />
    <glyph glyph-name="imacron" unicode="&#x12b;" horiz-adv-x="477" 
d="M296 941v-941h-114v941h114zM-53 1180v93h585v-93h-585z" />
    <glyph glyph-name="Ibreve" unicode="&#x12c;" horiz-adv-x="541" 
d="M331 1400v-1400h-122v1400h122zM-55 1771l92 28c37 -134 119 -201 233 -201s196 67 233 201l93 -28c-48 -176 -166 -270 -326 -270s-278 94 -325 270z" />
    <glyph glyph-name="ibreve" unicode="&#x12d;" horiz-adv-x="477" 
d="M296 941v-941h-114v941h114zM-86 1356l92 28c37 -134 119 -201 233 -201s196 67 233 201l93 -28c-48 -176 -166 -270 -326 -270s-278 94 -325 270z" />
    <glyph glyph-name="Iogonek" unicode="&#x12e;" horiz-adv-x="541" 
d="M399 -256l61 -74c-53 -56 -115 -82 -185 -82c-116 0 -200 65 -200 167c0 91 63 169 163 245h-29v1400h122v-1400c-92 -79 -148 -156 -148 -223c0 -56 41 -91 102 -91c44 0 82 21 114 58z" />
    <glyph glyph-name="iogonek" unicode="&#x12f;" horiz-adv-x="477" 
d="M296 941v-941c-92 -79 -148 -156 -148 -223c0 -56 41 -91 102 -91c44 0 82 21 114 58l61 -74c-53 -56 -115 -82 -185 -82c-116 0 -200 65 -200 167c0 91 63 169 163 245h-21v941h114zM239 1362c46 0 82 -37 82 -83s-36 -81 -82 -81s-81 35 -81 81s35 83 81 83z" />
    <glyph glyph-name="Idotaccent" unicode="&#x130;" horiz-adv-x="541" 
d="M331 1400v-1400h-122v1400h122zM260 1730c47 0 84 -38 84 -85s-37 -83 -84 -83c-48 0 -84 36 -84 83s36 85 84 85z" />
    <glyph glyph-name="dotlessi" unicode="&#x131;" horiz-adv-x="477" 
d="M296 941v-941h-114v941h114z" />
    <glyph glyph-name="IJ" unicode="&#x132;" horiz-adv-x="1692" 
d="M331 1400v-1400h-122v1400h122zM1493 1400v-898c0 -333 -209 -517 -485 -517c-211 0 -343 96 -422 186l82 84c70 -82 182 -153 339 -153c214 0 364 142 364 411v887h122z" />
    <glyph glyph-name="ij" unicode="&#x133;" horiz-adv-x="958" 
d="M776 941v-1119c0 -152 -79 -234 -210 -234c-48 0 -98 14 -130 33l28 98c25 -14 58 -24 93 -24c67 0 105 42 105 132v1114h114zM718 1362c46 0 82 -37 82 -83s-36 -81 -82 -81s-81 35 -81 81s35 83 81 83zM296 941v-941h-114v941h114zM239 1362c46 0 82 -37 82 -83
s-36 -81 -82 -81s-81 35 -81 81s35 83 81 83z" />
    <glyph glyph-name="Jcircumflex" unicode="&#x134;" horiz-adv-x="1151" 
d="M952 1400v-898c0 -333 -209 -517 -485 -517c-211 0 -343 96 -422 186l82 84c70 -82 182 -153 339 -153c214 0 364 142 364 411v887h122zM1214 1503h-123l-200 205l-200 -205h-123l248 282h150z" />
    <glyph glyph-name="jcircumflex" unicode="&#x135;" horiz-adv-x="480" 
d="M299 941v-1119c0 -152 -79 -234 -210 -234c-48 0 -98 14 -130 33l28 98c25 -14 58 -24 93 -24c67 0 105 42 105 132v1114h114zM564 1088h-123l-200 205l-200 -205h-123l248 282h150z" />
    <glyph glyph-name="Kcommaaccent" unicode="&#x136;" horiz-adv-x="1367" 
d="M1167 0l-651 646h-185v-646h-122v1400h122v-638h187l615 638h158l-675 -689l717 -711h-166zM642 -88h125l-68 -341h-101z" />
    <glyph glyph-name="kcommaaccent" unicode="&#x137;" horiz-adv-x="1042" 
d="M296 1440v-896h153l396 397h144l-448 -444l456 -497h-145l-403 441h-153v-441h-114v1440h114zM506 -88h125l-68 -341h-101z" />
    <glyph glyph-name="kgreenlandic" unicode="&#x138;" horiz-adv-x="1027" 
d="M296 941v-397h147l388 397h143l-439 -444l447 -497h-144l-395 441h-147v-441h-114v941h114z" />
    <glyph glyph-name="Lacute" unicode="&#x139;" horiz-adv-x="1204" 
d="M1162 116v-116h-953v1400h122v-1284h831zM252 1497h-113l220 300h144z" />
    <glyph glyph-name="lacute" unicode="&#x13a;" horiz-adv-x="477" 
d="M296 1440v-1440h-114v1440h114zM189 1546h-113l220 300h144z" />
    <glyph glyph-name="Lcommaaccent" unicode="&#x13b;" horiz-adv-x="1204" 
d="M1162 116v-116h-953v1400h122v-1284h831zM634 -88h125l-68 -341h-101z" />
    <glyph glyph-name="lcommaaccent" unicode="&#x13c;" horiz-adv-x="477" 
d="M296 1440v-1440h-114v1440h114zM192 -88h125l-68 -341h-101z" />
    <glyph glyph-name="Lcaron" unicode="&#x13d;" horiz-adv-x="1204" 
d="M1162 116v-116h-953v1400h122v-1284h831zM690 1011h-96l11 389h117z" />
    <glyph glyph-name="lcaron" unicode="&#x13e;" horiz-adv-x="510" 
d="M296 1440v-1440h-114v1440h114zM505 1051h-96l11 389h117z" />
    <glyph glyph-name="Ldot" unicode="&#x13f;" horiz-adv-x="1204" 
d="M1162 116v-116h-953v1400h122v-1284h831zM846 789c47 0 84 -38 84 -85s-37 -83 -84 -83c-48 0 -84 36 -84 83s36 85 84 85z" />
    <glyph glyph-name="ldot" unicode="&#x140;" horiz-adv-x="567" 
d="M296 1440v-1440h-114v1440h114zM518 813c46 0 82 -37 82 -83s-36 -81 -82 -81s-81 35 -81 81s35 83 81 83z" />
    <glyph glyph-name="Lslash" unicode="&#x141;" horiz-adv-x="1348" 
d="M1306 116v-116h-953v530l-228 -128v130l228 128v740h122v-671l537 303v-130l-537 -303v-483h831z" />
    <glyph glyph-name="lslash" unicode="&#x142;" horiz-adv-x="657" 
d="M385 1440v-588l217 159v-119l-217 -159v-733h-114v650l-216 -158v119l216 158v671h114z" />
    <glyph glyph-name="Nacute" unicode="&#x143;" horiz-adv-x="1569" 
d="M1359 1400v-1400h-110l-917 1190l-1 -1190h-122v1400h110l918 -1190v1190h122zM766 1497h-113l220 300h144z" />
    <glyph glyph-name="nacute" unicode="&#x144;" horiz-adv-x="1198" 
d="M631 956c236 0 396 -146 396 -379v-577h-114v542c0 190 -110 306 -302 306c-177 0 -315 -127 -315 -312v-536h-114v941h113v-165c74 126 206 180 336 180zM609 1082h-113l220 300h144z" />
    <glyph glyph-name="Ncommaaccent" unicode="&#x145;" horiz-adv-x="1569" 
d="M1359 1400v-1400h-110l-917 1190l-1 -1190h-122v1400h110l918 -1190v1190h122zM740 -88h125l-68 -341h-101z" />
    <glyph glyph-name="ncommaaccent" unicode="&#x146;" horiz-adv-x="1198" 
d="M631 956c236 0 396 -146 396 -379v-577h-114v542c0 190 -110 306 -302 306c-177 0 -315 -127 -315 -312v-536h-114v941h113v-165c74 126 206 180 336 180zM556 -88h125l-68 -341h-101z" />
    <glyph glyph-name="Ncaron" unicode="&#x147;" horiz-adv-x="1569" 
d="M1359 1400v-1400h-110l-917 1190l-1 -1190h-122v1400h110l918 -1190v1190h122zM461 1782h123l200 -204l200 204h123l-248 -281h-150z" />
    <glyph glyph-name="ncaron" unicode="&#x148;" horiz-adv-x="1198" 
d="M631 956c236 0 396 -146 396 -379v-577h-114v542c0 190 -110 306 -302 306c-177 0 -315 -127 -315 -312v-536h-114v941h113v-165c74 126 206 180 336 180zM291 1367h123l200 -204l200 204h123l-248 -281h-150z" />
    <glyph glyph-name="napostrophe" unicode="&#x149;" horiz-adv-x="1477" 
d="M205 1440h133l-96 -483h-99zM910 956c236 0 396 -146 396 -379v-577h-114v542c0 190 -110 306 -302 306c-177 0 -315 -127 -315 -312v-536h-114v941h113v-165c74 126 206 180 336 180z" />
    <glyph glyph-name="Eng" unicode="&#x14a;" horiz-adv-x="1569" 
d="M1359 1400v-1439c0 -209 -94 -373 -330 -373c-105 0 -191 28 -256 65l45 106c52 -30 124 -54 198 -54c159 0 221 108 221 261v49l-905 1175l-1 -1190h-122v1400h110l918 -1190v1190h122z" />
    <glyph glyph-name="eng" unicode="&#x14b;" horiz-adv-x="1198" 
d="M631 956c236 0 396 -146 396 -379v-671c0 -151 -78 -234 -209 -234c-49 0 -99 15 -131 33l29 98c24 -13 56 -24 92 -24c68 0 105 42 105 133v630c0 190 -110 306 -302 306c-177 0 -315 -127 -315 -312v-536h-114v941h113v-165c74 126 206 180 336 180z" />
    <glyph glyph-name="Omacron" unicode="&#x14c;" horiz-adv-x="1685" 
d="M843 1416c409 0 717 -296 717 -716s-308 -716 -717 -716s-717 296 -717 716s308 716 717 716zM843 1298c-332 0 -590 -241 -590 -598s258 -598 590 -598c331 0 589 241 589 598s-258 598 -589 598zM551 1595v93h585v-93h-585z" />
    <glyph glyph-name="omacron" unicode="&#x14d;" horiz-adv-x="1192" 
d="M595 956c279 0 490 -209 490 -486s-211 -485 -490 -485s-488 208 -488 485s209 486 488 486zM595 849c-211 0 -372 -160 -372 -379s161 -378 372 -378c212 0 373 159 373 378s-161 379 -373 379zM304 1180v93h585v-93h-585z" />
    <glyph glyph-name="Obreve" unicode="&#x14e;" horiz-adv-x="1685" 
d="M843 1416c409 0 717 -296 717 -716s-308 -716 -717 -716s-717 296 -717 716s308 716 717 716zM843 1298c-332 0 -590 -241 -590 -598s258 -598 590 -598c331 0 589 241 589 598s-258 598 -589 598zM518 1771l92 28c37 -134 119 -201 233 -201s196 67 233 201l93 -28
c-48 -176 -166 -270 -326 -270s-278 94 -325 270z" />
    <glyph glyph-name="obreve" unicode="&#x14f;" horiz-adv-x="1192" 
d="M595 956c279 0 490 -209 490 -486s-211 -485 -490 -485s-488 208 -488 485s209 486 488 486zM595 849c-211 0 -372 -160 -372 -379s161 -378 372 -378c212 0 373 159 373 378s-161 379 -373 379zM271 1356l92 28c37 -134 119 -201 233 -201s196 67 233 201l93 -28
c-48 -176 -166 -270 -326 -270s-278 94 -325 270z" />
    <glyph glyph-name="Ohungarumlaut" unicode="&#x150;" horiz-adv-x="1685" 
d="M843 1416c409 0 717 -296 717 -716s-308 -716 -717 -716s-717 296 -717 716s308 716 717 716zM843 1298c-332 0 -590 -241 -590 -598s258 -598 590 -598c331 0 589 241 589 598s-258 598 -589 598zM1042 1497h-115l224 300h134zM701 1497h-117l213 300h130z" />
    <glyph glyph-name="ohungarumlaut" unicode="&#x151;" horiz-adv-x="1192" 
d="M595 956c279 0 490 -209 490 -486s-211 -485 -490 -485s-488 208 -488 485s209 486 488 486zM595 849c-211 0 -372 -160 -372 -379s161 -378 372 -378c212 0 373 159 373 378s-161 379 -373 379zM808 1082h-115l224 300h134zM467 1082h-117l213 300h130z" />
    <glyph glyph-name="OE" unicode="&#x152;" horiz-adv-x="2260" 
d="M2092 115v-115h-1209c-467 0 -757 269 -757 700s290 700 757 700h1202v-115h-835v-523h811v-114h-811v-533h842zM253 700c0 -356 222 -584 630 -584h245v1168h-245c-408 0 -630 -229 -630 -584z" />
    <glyph glyph-name="oe" unicode="&#x153;" horiz-adv-x="1982" 
d="M1434 956c251 0 437 -199 441 -480c0 -17 -1 -33 -3 -47h-788c17 -219 171 -345 364 -345c131 0 236 54 318 133l61 -77c-119 -121 -250 -155 -386 -155c-195 0 -347 98 -420 258c-78 -156 -236 -258 -426 -258c-279 0 -488 208 -488 485s209 486 488 486
c191 0 349 -104 426 -262c74 160 228 262 413 262zM595 849c-211 0 -372 -160 -372 -379s161 -378 372 -378s373 159 373 378s-162 379 -373 379zM1432 855c-191 0 -324 -137 -346 -328h672c-16 195 -149 328 -326 328z" />
    <glyph glyph-name="Racute" unicode="&#x154;" horiz-adv-x="1341" 
d="M209 1400h534c309 0 483 -141 483 -389c0 -241 -184 -390 -482 -390h-55l530 -621h-152l-522 621h-214v-621h-122v1400zM742 1285h-411v-553h411c232 0 358 99 358 279c0 179 -128 274 -358 274zM643 1497h-113l220 300h144z" />
    <glyph glyph-name="racute" unicode="&#x155;" horiz-adv-x="814" 
d="M584 957c67 0 125 -11 176 -36l-29 -111c-46 25 -110 38 -167 38c-157 0 -269 -127 -269 -317v-531h-113v941h112v-160c61 110 166 176 290 176zM461 1082h-113l220 300h144z" />
    <glyph glyph-name="Rcommaaccent" unicode="&#x156;" horiz-adv-x="1341" 
d="M209 1400h534c309 0 483 -141 483 -389c0 -241 -184 -390 -482 -390h-55l530 -621h-152l-522 621h-214v-621h-122v1400zM742 1285h-411v-553h411c232 0 358 99 358 279c0 179 -128 274 -358 274zM620 -88h125l-68 -341h-101z" />
    <glyph glyph-name="rcommaaccent" unicode="&#x157;" horiz-adv-x="814" 
d="M584 957c67 0 125 -11 176 -36l-29 -111c-46 25 -110 38 -167 38c-157 0 -269 -127 -269 -317v-531h-113v941h112v-160c61 110 166 176 290 176zM193 -88h125l-68 -341h-101z" />
    <glyph glyph-name="Rcaron" unicode="&#x158;" horiz-adv-x="1341" 
d="M209 1400h534c309 0 483 -141 483 -389c0 -241 -184 -390 -482 -390h-55l530 -621h-152l-522 621h-214v-621h-122v1400zM742 1285h-411v-553h411c232 0 358 99 358 279c0 179 -128 274 -358 274zM338 1782h123l200 -204l200 204h123l-248 -281h-150z" />
    <glyph glyph-name="rcaron" unicode="&#x159;" horiz-adv-x="814" 
d="M584 957c67 0 125 -11 176 -36l-29 -111c-46 25 -110 38 -167 38c-157 0 -269 -127 -269 -317v-531h-113v941h112v-160c61 110 166 176 290 176zM143 1367h123l200 -204l200 204h123l-248 -281h-150z" />
    <glyph glyph-name="Sacute" unicode="&#x15a;" horiz-adv-x="1343" 
d="M1183 1261l-63 -99c-109 77 -254 137 -438 137c-225 0 -390 -104 -390 -279c0 -139 103 -224 342 -251l153 -17c249 -28 430 -126 430 -359c0 -272 -248 -408 -550 -408c-210 0 -418 77 -542 175l67 97c98 -78 280 -156 474 -156c237 0 424 93 424 282
c0 152 -122 226 -355 252l-159 18c-256 29 -411 144 -411 359c0 258 230 403 518 403c217 0 379 -68 500 -154zM685 1497h-113l220 300h144z" />
    <glyph glyph-name="sacute" unicode="&#x15b;" horiz-adv-x="974" 
d="M858 850l-49 -88c-64 45 -187 94 -319 94c-147 0 -250 -64 -250 -170c0 -87 69 -135 214 -152l120 -14c196 -23 309 -104 309 -253c0 -178 -163 -282 -405 -282c-137 0 -278 37 -387 120l53 85c73 -57 173 -106 335 -106c170 0 287 58 287 176c0 87 -72 140 -217 156
l-121 13c-213 24 -305 117 -305 251c0 173 149 276 366 276c149 0 284 -45 369 -106zM498 1082h-113l220 300h144z" />
    <glyph glyph-name="Scircumflex" unicode="&#x15c;" horiz-adv-x="1343" 
d="M1183 1261l-63 -99c-109 77 -254 137 -438 137c-225 0 -390 -104 -390 -279c0 -139 103 -224 342 -251l153 -17c249 -28 430 -126 430 -359c0 -272 -248 -408 -550 -408c-210 0 -418 77 -542 175l67 97c98 -78 280 -156 474 -156c237 0 424 93 424 282
c0 152 -122 226 -355 252l-159 18c-256 29 -411 144 -411 359c0 258 230 403 518 403c217 0 379 -68 500 -154zM1026 1503h-123l-200 205l-200 -205h-123l248 282h150z" />
    <glyph glyph-name="scircumflex" unicode="&#x15d;" horiz-adv-x="974" 
d="M858 850l-49 -88c-64 45 -187 94 -319 94c-147 0 -250 -64 -250 -170c0 -87 69 -135 214 -152l120 -14c196 -23 309 -104 309 -253c0 -178 -163 -282 -405 -282c-137 0 -278 37 -387 120l53 85c73 -57 173 -106 335 -106c170 0 287 58 287 176c0 87 -72 140 -217 156
l-121 13c-213 24 -305 117 -305 251c0 173 149 276 366 276c149 0 284 -45 369 -106zM826 1088h-123l-200 205l-200 -205h-123l248 282h150z" />
    <glyph glyph-name="Scedilla" unicode="&#x15e;" horiz-adv-x="1343" 
d="M1183 1261l-63 -99c-109 77 -254 137 -438 137c-225 0 -390 -104 -390 -279c0 -139 103 -224 342 -251l153 -17c249 -28 430 -126 430 -359c0 -246 -202 -380 -463 -404l-98 -312h-124l102 309c-199 7 -392 81 -509 174l67 97c98 -78 280 -156 474 -156
c237 0 424 93 424 282c0 152 -122 226 -355 252l-159 18c-256 29 -411 144 -411 359c0 258 230 403 518 403c217 0 379 -68 500 -154z" />
    <glyph glyph-name="scedilla" unicode="&#x15f;" horiz-adv-x="974" 
d="M858 850l-49 -88c-64 45 -187 94 -319 94c-147 0 -250 -64 -250 -170c0 -87 69 -135 214 -152l120 -14c196 -23 309 -104 309 -253c0 -155 -124 -254 -316 -276l-98 -314h-119l101 309c-129 4 -258 41 -360 119l53 85c73 -57 173 -106 335 -106c170 0 287 58 287 176
c0 87 -72 140 -217 156l-121 13c-213 24 -305 117 -305 251c0 173 149 276 366 276c149 0 284 -45 369 -106z" />
    <glyph glyph-name="Scaron" unicode="&#x160;" horiz-adv-x="1343" 
d="M1183 1261l-63 -99c-109 77 -254 137 -438 137c-225 0 -390 -104 -390 -279c0 -139 103 -224 342 -251l153 -17c249 -28 430 -126 430 -359c0 -272 -248 -408 -550 -408c-210 0 -418 77 -542 175l67 97c98 -78 280 -156 474 -156c237 0 424 93 424 282
c0 152 -122 226 -355 252l-159 18c-256 29 -411 144 -411 359c0 258 230 403 518 403c217 0 379 -68 500 -154zM380 1782h123l200 -204l200 204h123l-248 -281h-150z" />
    <glyph glyph-name="scaron" unicode="&#x161;" horiz-adv-x="974" 
d="M858 850l-49 -88c-64 45 -187 94 -319 94c-147 0 -250 -64 -250 -170c0 -87 69 -135 214 -152l120 -14c196 -23 309 -104 309 -253c0 -178 -163 -282 -405 -282c-137 0 -278 37 -387 120l53 85c73 -57 173 -106 335 -106c170 0 287 58 287 176c0 87 -72 140 -217 156
l-121 13c-213 24 -305 117 -305 251c0 173 149 276 366 276c149 0 284 -45 369 -106zM180 1367h123l200 -204l200 204h123l-248 -281h-150z" />
    <glyph glyph-name="Tcommaaccent" unicode="&#x162;" horiz-adv-x="1215" 
d="M1173 1400v-116h-505v-1284h-3l-101 -323h-124l107 323h-1v1284h-504v116h1131z" />
    <glyph glyph-name="tcommaaccent" unicode="&#x163;" horiz-adv-x="904" 
d="M819 941v-104h-434v-513c0 -159 84 -232 209 -232c81 0 155 28 210 72l54 -85c-59 -50 -139 -85 -234 -92l-97 -310h-119l103 314c-152 25 -240 133 -240 331v515h-216v104h216v307h114v-307h434z" />
    <glyph glyph-name="Tcaron" unicode="&#x164;" horiz-adv-x="1215" 
d="M1173 1400v-116h-505v-1284h-122v1284h-504v116h1131zM284 1782h123l200 -204l200 204h123l-248 -281h-150z" />
    <glyph glyph-name="tcaron" unicode="&#x165;" horiz-adv-x="904" 
d="M819 941v-104h-434v-513c0 -159 84 -232 209 -232c81 0 155 28 210 72l54 -85c-67 -56 -160 -94 -273 -94c-196 0 -314 109 -314 337v515h-216v104h216v307h114v-307h434zM626 1051h-96l11 389h117z" />
    <glyph glyph-name="Tbar" unicode="&#x166;" horiz-adv-x="1215" 
d="M1007 763v-116h-339v-647h-122v647h-338v116h338v521h-504v116h1131v-116h-505v-521h339z" />
    <glyph glyph-name="tbar" unicode="&#x167;" horiz-adv-x="904" 
d="M819 941v-104h-434v-259h325v-103h-325v-151c0 -159 84 -232 209 -232c81 0 155 28 210 72l54 -85c-67 -56 -160 -94 -273 -94c-196 0 -314 109 -314 337v153h-207v103h207v259h-216v104h216v307h114v-307h434z" />
    <glyph glyph-name="Utilde" unicode="&#x168;" horiz-adv-x="1510" 
d="M1321 1400v-855c0 -374 -253 -560 -567 -560s-566 186 -566 560v855h122v-846c0 -308 192 -452 444 -452c253 0 444 144 444 452v846h123zM482 1567l-68 65c55 73 115 110 206 110c135 0 172 -86 267 -86c56 0 96 26 138 77l69 -65c-56 -73 -116 -111 -207 -111
c-133 0 -170 87 -267 87c-56 0 -95 -26 -138 -77z" />
    <glyph glyph-name="utilde" unicode="&#x169;" horiz-adv-x="1186" 
d="M1015 941v-552c0 -267 -191 -404 -422 -404c-232 0 -422 137 -422 404v552h114v-542c0 -202 127 -307 308 -307c180 0 308 105 308 307v542h114zM332 1152l-68 65c55 73 115 110 206 110c135 0 172 -86 267 -86c56 0 96 26 138 77l69 -65c-56 -73 -116 -111 -207 -111
c-133 0 -170 87 -267 87c-56 0 -95 -26 -138 -77z" />
    <glyph glyph-name="Umacron" unicode="&#x16a;" horiz-adv-x="1510" 
d="M1321 1400v-855c0 -374 -253 -560 -567 -560s-566 186 -566 560v855h122v-846c0 -308 192 -452 444 -452c253 0 444 144 444 452v846h123zM462 1595v93h585v-93h-585z" />
    <glyph glyph-name="umacron" unicode="&#x16b;" horiz-adv-x="1186" 
d="M1015 941v-552c0 -267 -191 -404 -422 -404c-232 0 -422 137 -422 404v552h114v-542c0 -202 127 -307 308 -307c180 0 308 105 308 307v542h114zM301 1180v93h585v-93h-585z" />
    <glyph glyph-name="Ubreve" unicode="&#x16c;" horiz-adv-x="1510" 
d="M1321 1400v-855c0 -374 -253 -560 -567 -560s-566 186 -566 560v855h122v-846c0 -308 192 -452 444 -452c253 0 444 144 444 452v846h123zM429 1771l92 28c37 -134 119 -201 233 -201s196 67 233 201l93 -28c-48 -176 -166 -270 -326 -270s-278 94 -325 270z" />
    <glyph glyph-name="ubreve" unicode="&#x16d;" horiz-adv-x="1186" 
d="M1015 941v-552c0 -267 -191 -404 -422 -404c-232 0 -422 137 -422 404v552h114v-542c0 -202 127 -307 308 -307c180 0 308 105 308 307v542h114zM268 1356l92 28c37 -134 119 -201 233 -201s196 67 233 201l93 -28c-48 -176 -166 -270 -326 -270s-278 94 -325 270z" />
    <glyph glyph-name="Uring" unicode="&#x16e;" horiz-adv-x="1510" 
d="M1321 1400v-855c0 -374 -253 -560 -567 -560s-566 186 -566 560v855h122v-846c0 -308 192 -452 444 -452c253 0 444 144 444 452v846h123zM754 1481c-118 0 -215 95 -215 213c0 117 97 213 215 213s215 -96 215 -213c0 -118 -97 -213 -215 -213zM754 1554
c76 0 138 62 138 140c0 77 -62 139 -138 139s-138 -62 -138 -139c0 -78 62 -140 138 -140z" />
    <glyph glyph-name="uring" unicode="&#x16f;" horiz-adv-x="1186" 
d="M1015 941v-552c0 -267 -191 -404 -422 -404c-232 0 -422 137 -422 404v552h114v-542c0 -202 127 -307 308 -307c180 0 308 105 308 307v542h114zM593 1066c-118 0 -215 95 -215 213c0 117 97 213 215 213s215 -96 215 -213c0 -118 -97 -213 -215 -213zM593 1139
c76 0 138 62 138 140c0 77 -62 139 -138 139s-138 -62 -138 -139c0 -78 62 -140 138 -140z" />
    <glyph glyph-name="Uhungarumlaut" unicode="&#x170;" horiz-adv-x="1510" 
d="M1321 1400v-855c0 -374 -253 -560 -567 -560s-566 186 -566 560v855h122v-846c0 -308 192 -452 444 -452c253 0 444 144 444 452v846h123zM953 1497h-115l224 300h134zM612 1497h-117l213 300h130z" />
    <glyph glyph-name="uhungarumlaut" unicode="&#x171;" horiz-adv-x="1186" 
d="M1015 941v-552c0 -267 -191 -404 -422 -404c-232 0 -422 137 -422 404v552h114v-542c0 -202 127 -307 308 -307c180 0 308 105 308 307v542h114zM805 1082h-115l224 300h134zM464 1082h-117l213 300h130z" />
    <glyph glyph-name="Uogonek" unicode="&#x172;" horiz-adv-x="1510" 
d="M1117 -251l61 -73c-59 -58 -138 -88 -222 -88c-145 0 -243 83 -243 197c0 88 48 151 130 205c-29 -3 -59 -5 -89 -5c-314 0 -566 186 -566 560v855h122v-846c0 -308 192 -452 444 -452c253 0 444 144 444 452v846h123v-855c0 -247 -110 -409 -273 -496
c-138 -74 -224 -143 -224 -244c0 -71 55 -119 139 -119c59 0 111 22 154 63z" />
    <glyph glyph-name="uogonek" unicode="&#x173;" horiz-adv-x="1186" 
d="M911 -251l61 -73c-59 -58 -138 -88 -222 -88c-145 0 -243 83 -243 197c0 86 45 149 124 202c-12 -1 -25 -2 -38 -2c-232 0 -422 137 -422 404v552h114v-542c0 -202 127 -307 308 -307c180 0 308 105 308 307v542h114v-552c0 -161 -68 -275 -175 -338
c-138 -81 -222 -145 -222 -246c0 -71 55 -119 139 -119c59 0 111 22 154 63z" />
    <glyph glyph-name="Wcircumflex" unicode="&#x174;" horiz-adv-x="2208" 
d="M2144 1400l-472 -1400h-149l-419 1241l-419 -1241h-149l-472 1400h129l419 -1265l425 1265h137l424 -1263l420 1263h126zM1427 1503h-123l-200 205l-200 -205h-123l248 282h150z" />
    <glyph glyph-name="wcircumflex" unicode="&#x175;" horiz-adv-x="1725" 
d="M927 941l310 -825l319 825h118l-369 -941h-134l-310 822l-308 -822h-133l-369 941h121l318 -824l309 824h128zM1186 1088h-123l-200 205l-200 -205h-123l248 282h150z" />
    <glyph glyph-name="Ycircumflex" unicode="&#x176;" horiz-adv-x="1263" 
d="M1251 1400l-558 -800v-600h-122v602l-559 798h146l475 -685l475 685h143zM956 1503h-123l-200 205l-200 -205h-123l248 282h150z" />
    <glyph glyph-name="ycircumflex" unicode="&#x177;" horiz-adv-x="1028" 
d="M1011 941l-779 -1344h-126l360 613l-442 731h128l379 -619l355 619h125zM842 1088h-123l-200 205l-200 -205h-123l248 282h150z" />
    <glyph glyph-name="Ydieresis" unicode="&#x178;" horiz-adv-x="1263" 
d="M1251 1400l-558 -800v-600h-122v602l-559 798h146l475 -685l475 685h143zM428 1725c46 0 82 -37 82 -83s-36 -81 -82 -81s-81 35 -81 81s35 83 81 83zM837 1725c46 0 83 -37 83 -83s-37 -81 -83 -81s-81 35 -81 81s35 83 81 83z" />
    <glyph glyph-name="Zacute" unicode="&#x179;" horiz-adv-x="1327" 
d="M1197 1400v-94l-910 -1190h914v-116h-1076v95l909 1189h-894v116h1057zM650 1497h-113l220 300h144z" />
    <glyph glyph-name="zacute" unicode="&#x17a;" horiz-adv-x="1066" 
d="M931 941v-84l-652 -754h660v-103h-812v83l657 754h-637v104h784zM534 1082h-113l220 300h144z" />
    <glyph glyph-name="Zdotaccent" unicode="&#x17b;" horiz-adv-x="1327" 
d="M1197 1400v-94l-910 -1190h914v-116h-1076v95l909 1189h-894v116h1057zM658 1730c47 0 84 -38 84 -85s-37 -83 -84 -83c-48 0 -84 36 -84 83s36 85 84 85z" />
    <glyph glyph-name="zdotaccent" unicode="&#x17c;" horiz-adv-x="1066" 
d="M931 941v-84l-652 -754h660v-103h-812v83l657 754h-637v104h784zM539 1362c46 0 82 -37 82 -83s-36 -81 -82 -81s-81 35 -81 81s35 83 81 83z" />
    <glyph glyph-name="Zcaron" unicode="&#x17d;" horiz-adv-x="1327" 
d="M1197 1400v-94l-910 -1190h914v-116h-1076v95l909 1189h-894v116h1057zM345 1782h123l200 -204l200 204h123l-248 -281h-150z" />
    <glyph glyph-name="zcaron" unicode="&#x17e;" horiz-adv-x="1066" 
d="M931 941v-84l-652 -754h660v-103h-812v83l657 754h-637v104h784zM216 1367h123l200 -204l200 204h123l-248 -281h-150z" />
    <glyph glyph-name="longs" unicode="&#x17f;" horiz-adv-x="652" 
d="M484 1455c103 0 189 -30 254 -70l-42 -95c-52 32 -128 58 -205 58c-146 0 -204 -91 -204 -245v-1103h-114v1103c0 207 87 352 311 352z" />
    <glyph glyph-name="uni018F" unicode="&#x18f;" horiz-adv-x="1625" 
d="M795 1415c395 0 705 -297 705 -715s-303 -715 -689 -715c-399 0 -685 293 -685 708c0 21 1 43 2 64h1243c-26 320 -271 541 -576 541c-200 0 -359 -87 -477 -226l-86 84c140 159 329 259 563 259zM812 102c295 0 534 219 559 540h-1112c12 -316 243 -540 553 -540z" />
    <glyph glyph-name="florin" unicode="&#x192;" horiz-adv-x="1400" 
d="M1078 777v-104h-324l-36 -370c-19 -190 -103 -318 -280 -318c-92 0 -168 29 -225 66l40 92c45 -31 111 -55 177 -55c109 0 164 84 177 215l37 370h-276v104h286l32 320c19 190 103 318 280 318c91 0 167 -29 224 -66l-40 -92c-45 31 -111 55 -177 55
c-109 0 -164 -84 -177 -215l-32 -320h314z" />
    <glyph glyph-name="uni01B5" unicode="&#x1b5;" horiz-adv-x="1327" 
d="M1063 757v-113h-373l-403 -528h914v-116h-1076v95l422 553h-284v112h370l401 524h-894v116h1057v-94l-420 -549h286z" />
    <glyph glyph-name="uni01B6" unicode="&#x1b6;" horiz-adv-x="1066" 
d="M854 521v-88h-290l-285 -330h660v-103h-812v83l308 354h-213v88h289l273 312h-637v104h784v-84l-290 -336h213z" />
    <glyph glyph-name="uni01CD" unicode="&#x1cd;" horiz-adv-x="1406" 
d="M778 1400l588 -1400h-131l-170 409h-728l-170 -409h-127l588 1400h150zM701 1281l-315 -756h630zM380 1782h123l200 -204l200 204h123l-248 -281h-150z" />
    <glyph glyph-name="uni01CE" unicode="&#x1ce;" horiz-adv-x="1244" 
d="M1063 941v-941h-113v181c-76 -118 -202 -196 -373 -196c-264 0 -470 205 -470 485s206 486 470 486c171 0 297 -79 373 -196v181h113zM590 849c-216 0 -367 -166 -367 -379c0 -212 153 -378 367 -378c213 0 366 162 366 378s-153 379 -366 379zM283 1367h123l200 -204
l200 204h123l-248 -281h-150z" />
    <glyph glyph-name="uni01CF" unicode="&#x1cf;" horiz-adv-x="541" 
d="M331 1400v-1400h-122v1400h122zM-53 1782h123l200 -204l200 204h123l-248 -281h-150z" />
    <glyph glyph-name="uni01D0" unicode="&#x1d0;" horiz-adv-x="477" 
d="M296 941v-941h-114v941h114zM-84 1367h123l200 -204l200 204h123l-248 -281h-150z" />
    <glyph glyph-name="uni01D1" unicode="&#x1d1;" horiz-adv-x="1685" 
d="M843 1416c409 0 717 -296 717 -716s-308 -716 -717 -716s-717 296 -717 716s308 716 717 716zM843 1298c-332 0 -590 -241 -590 -598s258 -598 590 -598c331 0 589 241 589 598s-258 598 -589 598zM520 1782h123l200 -204l200 204h123l-248 -281h-150z" />
    <glyph glyph-name="uni01D2" unicode="&#x1d2;" horiz-adv-x="1192" 
d="M595 956c279 0 490 -209 490 -486s-211 -485 -490 -485s-488 208 -488 485s209 486 488 486zM595 849c-211 0 -372 -160 -372 -379s161 -378 372 -378c212 0 373 159 373 378s-161 379 -373 379zM273 1367h123l200 -204l200 204h123l-248 -281h-150z" />
    <glyph glyph-name="uni01D3" unicode="&#x1d3;" horiz-adv-x="1510" 
d="M1321 1400v-855c0 -374 -253 -560 -567 -560s-566 186 -566 560v855h122v-846c0 -308 192 -452 444 -452c253 0 444 144 444 452v846h123zM431 1782h123l200 -204l200 204h123l-248 -281h-150z" />
    <glyph glyph-name="uni01D4" unicode="&#x1d4;" horiz-adv-x="1186" 
d="M1015 941v-552c0 -267 -191 -404 -422 -404c-232 0 -422 137 -422 404v552h114v-542c0 -202 127 -307 308 -307c180 0 308 105 308 307v542h114zM270 1367h123l200 -204l200 204h123l-248 -281h-150z" />
    <glyph glyph-name="uni01D5" unicode="&#x1d5;" horiz-adv-x="1510" 
d="M1321 1400v-855c0 -374 -253 -560 -567 -560s-566 186 -566 560v855h122v-846c0 -308 192 -452 444 -452c253 0 444 144 444 452v846h123zM462 1927v93h585v-93h-585zM549 1725c46 0 82 -37 82 -83s-36 -81 -82 -81s-81 35 -81 81s35 83 81 83zM958 1725
c46 0 83 -37 83 -83s-37 -81 -83 -81s-81 35 -81 81s35 83 81 83z" />
    <glyph glyph-name="uni01D6" unicode="&#x1d6;" horiz-adv-x="1186" 
d="M1015 941v-552c0 -267 -191 -404 -422 -404c-232 0 -422 137 -422 404v552h114v-542c0 -202 127 -307 308 -307c180 0 308 105 308 307v542h114zM388 1310c46 0 82 -37 82 -83s-36 -81 -82 -81s-81 35 -81 81s35 83 81 83zM797 1310c46 0 83 -37 83 -83s-37 -81 -83 -81
s-81 35 -81 81s35 83 81 83zM301 1505v93h585v-93h-585z" />
    <glyph glyph-name="uni01D7" unicode="&#x1d7;" horiz-adv-x="1510" 
d="M1321 1400v-855c0 -374 -253 -560 -567 -560s-566 186 -566 560v855h122v-846c0 -308 192 -452 444 -452c253 0 444 144 444 452v846h123zM736 1903h-113l220 300h144zM549 1725c46 0 82 -37 82 -83s-36 -81 -82 -81s-81 35 -81 81s35 83 81 83zM958 1725
c46 0 83 -37 83 -83s-37 -81 -83 -81s-81 35 -81 81s35 83 81 83z" />
    <glyph glyph-name="uni01D8" unicode="&#x1d8;" horiz-adv-x="1186" 
d="M1015 941v-552c0 -267 -191 -404 -422 -404c-232 0 -422 137 -422 404v552h114v-542c0 -202 127 -307 308 -307c180 0 308 105 308 307v542h114zM388 1310c46 0 82 -37 82 -83s-36 -81 -82 -81s-81 35 -81 81s35 83 81 83zM797 1310c46 0 83 -37 83 -83s-37 -81 -83 -81
s-81 35 -81 81s35 83 81 83zM575 1481h-113l220 300h144z" />
    <glyph glyph-name="uni01D9" unicode="&#x1d9;" horiz-adv-x="1510" 
d="M1321 1400v-855c0 -374 -253 -560 -567 -560s-566 186 -566 560v855h122v-846c0 -308 192 -452 444 -452c253 0 444 144 444 452v846h123zM431 2188h123l200 -204l200 204h123l-248 -281h-150zM549 1725c46 0 82 -37 82 -83s-36 -81 -82 -81s-81 35 -81 81s35 83 81 83z
M958 1725c46 0 83 -37 83 -83s-37 -81 -83 -81s-81 35 -81 81s35 83 81 83z" />
    <glyph glyph-name="uni01DA" unicode="&#x1da;" horiz-adv-x="1186" 
d="M1015 941v-552c0 -267 -191 -404 -422 -404c-232 0 -422 137 -422 404v552h114v-542c0 -202 127 -307 308 -307c180 0 308 105 308 307v542h114zM388 1310c46 0 82 -37 82 -83s-36 -81 -82 -81s-81 35 -81 81s35 83 81 83zM797 1310c46 0 83 -37 83 -83s-37 -81 -83 -81
s-81 35 -81 81s35 83 81 83zM270 1766h123l200 -204l200 204h123l-248 -281h-150z" />
    <glyph glyph-name="uni01DB" unicode="&#x1db;" horiz-adv-x="1510" 
d="M1321 1400v-855c0 -374 -253 -560 -567 -560s-566 186 -566 560v855h122v-846c0 -308 192 -452 444 -452c253 0 444 144 444 452v846h123zM764 1903l-251 300h144l220 -300h-113zM549 1725c46 0 82 -37 82 -83s-36 -81 -82 -81s-81 35 -81 81s35 83 81 83zM958 1725
c46 0 83 -37 83 -83s-37 -81 -83 -81s-81 35 -81 81s35 83 81 83z" />
    <glyph glyph-name="uni01DC" unicode="&#x1dc;" horiz-adv-x="1186" 
d="M1015 941v-552c0 -267 -191 -404 -422 -404c-232 0 -422 137 -422 404v552h114v-542c0 -202 127 -307 308 -307c180 0 308 105 308 307v542h114zM388 1310c46 0 82 -37 82 -83s-36 -81 -82 -81s-81 35 -81 81s35 83 81 83zM797 1310c46 0 83 -37 83 -83s-37 -81 -83 -81
s-81 35 -81 81s35 83 81 83zM603 1481l-251 300h144l220 -300h-113z" />
    <glyph glyph-name="uni01E2" unicode="&#x1e2;" horiz-adv-x="2265" 
d="M2097 115v-115h-964v390h-658l-296 -390h-147l1067 1400h991v-115h-835v-523h811v-114h-811v-533h842zM564 506h569v748zM1223 1595v93h585v-93h-585z" />
    <glyph glyph-name="uni01E3" unicode="&#x1e3;" horiz-adv-x="1819" 
d="M1272 956c251 0 437 -199 440 -481c0 -16 -1 -32 -2 -46h-788c17 -219 171 -345 363 -345c132 0 237 54 318 133l61 -77c-118 -121 -250 -155 -385 -155c-171 0 -312 75 -394 200c-88 -113 -232 -200 -415 -200c-224 0 -363 111 -363 273c0 159 133 269 390 269h309v29
c0 208 -116 297 -301 297c-124 0 -219 -47 -288 -100l-54 85c98 75 217 118 356 118c178 0 315 -65 365 -231c73 140 220 231 388 231zM487 85c136 0 274 72 354 186c-19 49 -31 103 -35 161h-297c-201 0 -280 -74 -280 -174c0 -99 93 -173 258 -173zM1270 854
c-190 0 -323 -136 -346 -327h672c-16 194 -150 327 -326 327zM608 1180v93h585v-93h-585z" />
    <glyph glyph-name="Gcaron" unicode="&#x1e6;" horiz-adv-x="1637" 
d="M843 1416c220 0 414 -90 542 -239l-90 -87c-107 129 -268 208 -452 208c-332 0 -590 -241 -590 -598s258 -598 584 -598c320 0 523 202 541 522h-474v114h606c2 -13 2 -22 2 -33c0 -411 -260 -720 -675 -720c-373 0 -711 270 -711 715c0 421 310 716 717 716zM500 1782
h123l200 -204l200 204h123l-248 -281h-150z" />
    <glyph glyph-name="gcaron" unicode="&#x1e7;" horiz-adv-x="1236" 
d="M574 956c169 0 294 -79 367 -199v184h114v-877c0 -313 -217 -476 -494 -476c-155 0 -303 51 -396 136l58 83c89 -70 206 -115 338 -115c211 0 380 121 380 367v134c-73 -120 -198 -198 -367 -198c-265 0 -467 199 -467 481c0 281 202 480 467 480zM586 849
c-214 0 -363 -165 -363 -373c0 -210 149 -374 363 -374c211 0 364 161 364 374c0 212 -153 373 -364 373zM277 1367h123l200 -204l200 204h123l-248 -281h-150z" />
    <glyph glyph-name="Aringacute" unicode="&#x1fa;" horiz-adv-x="1406" 
d="M167 0h-127l569 1356c-73 34 -123 108 -123 193c0 117 97 213 215 213s215 -96 215 -213c0 -84 -49 -156 -120 -191l570 -1358h-131l-170 409h-728zM701 1282l-315 -757h630zM701 1409c76 0 138 62 138 140c0 77 -62 139 -138 139s-138 -62 -138 -139
c0 -78 62 -140 138 -140zM683 1817h-113l220 300h144z" />
    <glyph glyph-name="aringacute" unicode="&#x1fb;" horiz-adv-x="1244" 
d="M1063 941v-941h-113v181c-76 -118 -202 -196 -373 -196c-264 0 -470 205 -470 485s206 486 470 486c171 0 297 -79 373 -196v181h113zM590 849c-216 0 -367 -166 -367 -379c0 -212 153 -378 367 -378c213 0 366 162 366 378s-153 379 -366 379zM584 1036
c-118 0 -215 95 -215 213c0 117 97 213 215 213s215 -96 215 -213c0 -118 -97 -213 -215 -213zM584 1109c76 0 138 62 138 140c0 77 -62 139 -138 139s-138 -62 -138 -139c0 -78 62 -140 138 -140zM566 1521h-113l220 300h144z" />
    <glyph glyph-name="AEacute" unicode="&#x1fc;" horiz-adv-x="2265" 
d="M2097 115v-115h-964v390h-658l-296 -390h-147l1067 1400h991v-115h-835v-523h811v-114h-811v-533h842zM564 506h569v748zM1497 1497h-113l220 300h144z" />
    <glyph glyph-name="aeacute" unicode="&#x1fd;" horiz-adv-x="1819" 
d="M1272 956c251 0 437 -199 440 -481c0 -16 -1 -32 -2 -46h-788c17 -219 171 -345 363 -345c132 0 237 54 318 133l61 -77c-118 -121 -250 -155 -385 -155c-171 0 -312 75 -394 200c-88 -113 -232 -200 -415 -200c-224 0 -363 111 -363 273c0 159 133 269 390 269h309v29
c0 208 -116 297 -301 297c-124 0 -219 -47 -288 -100l-54 85c98 75 217 118 356 118c178 0 315 -65 365 -231c73 140 220 231 388 231zM487 85c136 0 274 72 354 186c-19 49 -31 103 -35 161h-297c-201 0 -280 -74 -280 -174c0 -99 93 -173 258 -173zM1270 854
c-190 0 -323 -136 -346 -327h672c-16 194 -150 327 -326 327zM895 1082h-113l220 300h144z" />
    <glyph glyph-name="Oslashacute" unicode="&#x1fe;" horiz-adv-x="1685" 
d="M843 1416c184 0 347 -60 471 -164l163 163l81 -81l-163 -163c104 -122 165 -284 165 -471c0 -420 -308 -716 -717 -716c-184 0 -348 60 -472 164l-162 -162l-81 80l162 162c-103 123 -164 285 -164 472c0 420 308 716 717 716zM843 1298c-332 0 -590 -241 -590 -598
c0 -152 46 -283 126 -383l847 847c-102 85 -235 134 -383 134zM1432 700c0 151 -47 282 -126 382l-848 -847c103 -85 236 -133 385 -133c331 0 589 241 589 598zM825 1497h-113l220 300h144z" />
    <glyph glyph-name="oslashacute" unicode="&#x1ff;" horiz-adv-x="1192" 
d="M595 956c120 0 228 -40 312 -106l116 116l70 -68l-117 -117c68 -83 109 -191 109 -311c0 -277 -211 -485 -490 -485c-120 0 -228 38 -311 104l-115 -115l-70 68l116 116c-68 83 -108 191 -108 312c0 277 209 486 488 486zM595 849c-211 0 -372 -160 -372 -379
c0 -90 27 -169 73 -231l532 532c-63 49 -144 78 -233 78zM968 470c0 89 -27 168 -72 231l-532 -532c63 -49 142 -77 231 -77c212 0 373 159 373 378zM590 1082h-113l220 300h144z" />
    <glyph glyph-name="Scommaaccent" unicode="&#x218;" horiz-adv-x="1343" 
d="M1183 1261l-63 -99c-109 77 -254 137 -438 137c-225 0 -390 -104 -390 -279c0 -139 103 -224 342 -251l153 -17c249 -28 430 -126 430 -359c0 -272 -248 -408 -550 -408c-210 0 -418 77 -542 175l67 97c98 -78 280 -156 474 -156c237 0 424 93 424 282
c0 152 -122 226 -355 252l-159 18c-256 29 -411 144 -411 359c0 258 230 403 518 403c217 0 379 -68 500 -154zM659 -88h125l-68 -341h-101z" />
    <glyph glyph-name="scommaaccent" unicode="&#x219;" horiz-adv-x="974" 
d="M858 850l-49 -88c-64 45 -187 94 -319 94c-147 0 -250 -64 -250 -170c0 -87 69 -135 214 -152l120 -14c196 -23 309 -104 309 -253c0 -178 -163 -282 -405 -282c-137 0 -278 37 -387 120l53 85c73 -57 173 -106 335 -106c170 0 287 58 287 176c0 87 -72 140 -217 156
l-121 13c-213 24 -305 117 -305 251c0 173 149 276 366 276c149 0 284 -45 369 -106zM448 -88h125l-68 -341h-101z" />
    <glyph glyph-name="uni021A" unicode="&#x21a;" horiz-adv-x="1215" 
d="M1173 1400v-116h-505v-1284h-122v1284h-504v116h1131zM567 -88h125l-68 -341h-101z" />
    <glyph glyph-name="uni021B" unicode="&#x21b;" horiz-adv-x="904" 
d="M819 941v-104h-434v-513c0 -159 84 -232 209 -232c81 0 155 28 210 72l54 -85c-67 -56 -160 -94 -273 -94c-196 0 -314 109 -314 337v515h-216v104h216v307h114v-307h434zM506 -88h125l-68 -341h-101z" />
    <glyph glyph-name="uni0232" unicode="&#x232;" horiz-adv-x="1263" 
d="M1251 1400l-558 -800v-600h-122v602l-559 798h146l475 -685l475 685h143zM341 1595v93h585v-93h-585z" />
    <glyph glyph-name="uni0233" unicode="&#x233;" horiz-adv-x="1028" 
d="M1011 941l-779 -1344h-126l360 613l-442 731h128l379 -619l355 619h125zM227 1180v93h585v-93h-585z" />
    <glyph glyph-name="uni0237" unicode="&#x237;" horiz-adv-x="480" 
d="M299 941v-1119c0 -152 -79 -234 -210 -234c-48 0 -98 14 -130 33l28 98c25 -14 58 -24 93 -24c67 0 105 42 105 132v1114h114z" />
    <glyph glyph-name="uni0259" unicode="&#x259;" horiz-adv-x="1121" 
d="M548 -15c-251 0 -438 199 -441 480c0 17 1 33 2 47h789c-17 219 -171 345 -364 345c-133 0 -238 -54 -322 -137l-57 81c119 121 250 155 386 155c275 0 473 -198 473 -485c0 -284 -201 -486 -466 -486zM550 86c191 0 324 137 346 328h-673c17 -195 150 -328 327 -328z
" />
    <glyph glyph-name="uni02BB" unicode="&#x2bb;" horiz-adv-x="488" 
d="M283 957h-133l96 483h99z" />
    <glyph glyph-name="afii57929" unicode="&#x2bc;" horiz-adv-x="488" 
d="M205 1440h133l-96 -483h-99z" />
    <glyph glyph-name="uni02BE" unicode="&#x2be;" horiz-adv-x="533" 
d="M147 776v105c124 0 225 104 225 232c0 130 -101 232 -225 232v105c185 0 336 -150 336 -337c0 -186 -151 -337 -336 -337z" />
    <glyph glyph-name="uni02BF" unicode="&#x2bf;" horiz-adv-x="533" 
d="M386 1451v-105c-124 0 -225 -104 -225 -232c0 -130 101 -232 225 -232v-105c-185 0 -336 150 -336 337c0 186 151 337 336 337z" />
    <glyph glyph-name="circumflex" unicode="&#x2c6;" horiz-adv-x="904" 
d="M775 1089h-123l-200 204l-200 -204h-123l248 281h150z" />
    <glyph glyph-name="caron" unicode="&#x2c7;" horiz-adv-x="904" 
d="M129 1367h123l200 -204l200 204h123l-248 -281h-150z" />
    <glyph glyph-name="breve" unicode="&#x2d8;" horiz-adv-x="904" 
d="M127 1356l92 28c37 -134 119 -201 233 -201s196 67 233 201l92 -28c-47 -176 -165 -270 -325 -270s-278 94 -325 270z" />
    <glyph glyph-name="dotaccent" unicode="&#x2d9;" horiz-adv-x="526" 
d="M263 1362c46 0 82 -37 82 -83s-36 -81 -82 -81s-81 35 -81 81s35 83 81 83z" />
    <glyph glyph-name="ring" unicode="&#x2da;" horiz-adv-x="904" 
d="M452 1066c-118 0 -215 95 -215 213c0 117 97 213 215 213s215 -96 215 -213c0 -118 -97 -213 -215 -213zM452 1139c76 0 138 62 138 140c0 77 -62 139 -138 139s-138 -62 -138 -139c0 -78 62 -140 138 -140z" />
    <glyph glyph-name="ogonek" unicode="&#x2db;" horiz-adv-x="1076" 
d="M831 -251l61 -73c-59 -58 -138 -88 -222 -88c-143 0 -240 83 -240 206c0 137 120 216 292 294l51 -65c-150 -68 -235 -127 -235 -218c0 -71 55 -119 139 -119c60 0 111 22 154 63z" />
    <glyph glyph-name="tilde" unicode="&#x2dc;" horiz-adv-x="904" 
d="M181 1152l-68 65c55 73 115 110 206 110c135 0 172 -86 267 -86c56 0 96 26 138 77l69 -65c-56 -73 -116 -111 -207 -111c-133 0 -170 87 -267 87c-56 0 -95 -26 -138 -77z" />
    <glyph glyph-name="hungarumlaut" unicode="&#x2dd;" horiz-adv-x="904" 
d="M569 1082h-113l220 300h144zM197 1082h-113l220 300h144z" />
    <glyph glyph-name="gravecomb" unicode="&#x300;" 
d="M-603 1082l-251 300h144l220 -300h-113z" />
    <glyph glyph-name="acutecomb" unicode="&#x301;" 
d="M-601 1082h-113l220 300h144z" />
    <glyph glyph-name="uni0302" unicode="&#x302;" 
d="M-273 1088h-123l-200 205l-200 -205h-123l248 282h150z" />
    <glyph glyph-name="tildecomb" unicode="&#x303;" 
d="M-857 1152l-68 65c55 73 115 110 206 110c135 0 172 -86 267 -86c56 0 96 26 138 77l69 -65c-56 -73 -116 -111 -207 -111c-133 0 -170 87 -267 87c-56 0 -95 -26 -138 -77z" />
    <glyph glyph-name="uni0304" unicode="&#x304;" 
d="M-888 1180v93h585v-93h-585z" />
    <glyph glyph-name="uni0306" unicode="&#x306;" 
d="M-921 1356l92 28c37 -134 119 -201 233 -201s196 67 233 201l93 -28c-48 -176 -166 -270 -326 -270s-278 94 -325 270z" />
    <glyph glyph-name="uni0307" unicode="&#x307;" 
d="M-596 1362c46 0 82 -37 82 -83s-36 -81 -82 -81s-81 35 -81 81s35 83 81 83z" />
    <glyph glyph-name="uni0308" unicode="&#x308;" 
d="M-801 1310c46 0 82 -37 82 -83s-36 -81 -82 -81s-81 35 -81 81s35 83 81 83zM-392 1310c46 0 83 -37 83 -83s-37 -81 -83 -81s-81 35 -81 81s35 83 81 83z" />
    <glyph glyph-name="uni030A" unicode="&#x30a;" 
d="M-596 1066c-118 0 -215 95 -215 213c0 117 97 213 215 213s215 -96 215 -213c0 -118 -97 -213 -215 -213zM-596 1139c76 0 138 62 138 140c0 77 -62 139 -138 139s-138 -62 -138 -139c0 -78 62 -140 138 -140z" />
    <glyph glyph-name="uni030B" unicode="&#x30b;" 
d="M-384 1082h-115l224 300h134zM-725 1082h-117l213 300h130z" />
    <glyph glyph-name="uni030C" unicode="&#x30c;" 
d="M-919 1367h123l200 -204l200 204h123l-248 -281h-150z" />
    <glyph glyph-name="uni0312" unicode="&#x312;" 
d="M-543 1082h-125l68 340h101z" />
    <glyph glyph-name="dotbelowcomb" unicode="&#x323;" 
d="M-595 -179c46 0 82 -37 82 -83s-36 -81 -82 -81s-81 35 -81 81s35 83 81 83z" />
    <glyph glyph-name="uni0326" unicode="&#x326;" 
d="M-642 -88h125l-68 -341h-101z" />
    <glyph glyph-name="uni0327" unicode="&#x327;" 
d="M-484 5l-103 -328h-119l108 329z" />
    <glyph glyph-name="uni0328" unicode="&#x328;" 
d="M-423 -251l61 -73c-59 -58 -138 -88 -222 -88c-145 0 -243 83 -243 197c0 143 127 220 321 299l12 -35c-137 -76 -222 -143 -222 -244c0 -71 55 -119 139 -119c59 0 111 22 154 63z" />
    <glyph glyph-name="uni032E" unicode="&#x32e;" 
d="M-920 -138l92 27c36 -134 119 -201 233 -201s196 67 233 201l92 -27c-47 -177 -165 -270 -325 -270s-278 93 -325 270z" />
    <glyph glyph-name="uni0331" unicode="&#x331;" 
d="M-887 -308v93h585v-93h-585z" />
    <glyph glyph-name="uni0335" unicode="&#x335;" 
d="M-241 578v-103h-710v103h710z" />
    <glyph glyph-name="uni0336" unicode="&#x336;" 
d="M152 578v-103h-1495v103h1495z" />
    <glyph glyph-name="uni0394" unicode="&#x394;" horiz-adv-x="1419" 
d="M784 1402l551 -1307v-95h-1251v95l551 1307h149zM710 1277l-489 -1161h976z" />
    <glyph glyph-name="uni03A9" unicode="&#x3a9;" horiz-adv-x="1718" 
d="M84 116h385c-196 109 -327 316 -327 577c0 424 309 723 717 723s717 -299 717 -723c0 -261 -131 -468 -327 -577h385v-116h-588v99c237 75 402 293 402 589c0 365 -257 610 -589 610s-589 -245 -589 -610c0 -296 166 -514 402 -589v-99h-588v116z" />
    <glyph glyph-name="uni03BC" unicode="&#x3bc;" horiz-adv-x="1197" 
d="M284 -400h-113v1341h114v-542c0 -190 110 -306 302 -306c177 0 315 127 315 312v536h114v-941h-113v165c-74 -126 -206 -180 -336 -180c-116 0 -214 35 -283 107v-492z" />
    <glyph glyph-name="pi" unicode="&#x3c0;" horiz-adv-x="1198" 
d="M1027 941v-941h-114v837h-617v-837h-114v941h845z" />
    <glyph glyph-name="uni1E0C" unicode="&#x1e0c;" horiz-adv-x="1602" 
d="M209 1400h511c466 0 757 -270 757 -700s-291 -700 -757 -700h-511v1400zM720 1284h-389v-1168h389c407 0 629 229 629 584c0 356 -222 584 -629 584zM758 -179c46 0 82 -37 82 -83s-36 -81 -82 -81s-81 35 -81 81s35 83 81 83z" />
    <glyph glyph-name="uni1E0D" unicode="&#x1e0d;" horiz-adv-x="1244" 
d="M577 956c171 0 297 -79 373 -196v680h113v-1440h-113v181c-76 -118 -202 -196 -373 -196c-264 0 -470 205 -470 485s206 486 470 486zM590 849c-216 0 -367 -166 -367 -379c0 -212 153 -378 367 -378c213 0 366 162 366 378s-153 379 -366 379zM612 -179
c46 0 82 -37 82 -83s-36 -81 -82 -81s-81 35 -81 81s35 83 81 83z" />
    <glyph glyph-name="uni1E0E" unicode="&#x1e0e;" horiz-adv-x="1602" 
d="M209 1400h511c466 0 757 -270 757 -700s-291 -700 -757 -700h-511v1400zM720 1284h-389v-1168h389c407 0 629 229 629 584c0 356 -222 584 -629 584zM466 -308v93h585v-93h-585z" />
    <glyph glyph-name="uni1E0F" unicode="&#x1e0f;" horiz-adv-x="1244" 
d="M577 956c171 0 297 -79 373 -196v680h113v-1440h-113v181c-76 -118 -202 -196 -373 -196c-264 0 -470 205 -470 485s206 486 470 486zM590 849c-216 0 -367 -166 -367 -379c0 -212 153 -378 367 -378c213 0 366 162 366 378s-153 379 -366 379zM319 -308v93h585v-93h-585
z" />
    <glyph glyph-name="uni1E24" unicode="&#x1e24;" horiz-adv-x="1565" 
d="M331 1400v-637h902v637h122v-1400h-122v647h-902v-647h-122v1400h122zM782 -179c46 0 82 -37 82 -83s-36 -81 -82 -81s-81 35 -81 81s35 83 81 83z" />
    <glyph glyph-name="uni1E25" unicode="&#x1e25;" horiz-adv-x="1198" 
d="M296 1440v-662c74 124 206 178 335 178c236 0 396 -146 396 -379v-577h-114v542c0 190 -110 306 -302 306c-177 0 -315 -127 -315 -312v-536h-114v1440h114zM606 -179c46 0 82 -37 82 -83s-36 -81 -82 -81s-81 35 -81 81s35 83 81 83z" />
    <glyph glyph-name="uni1E28" unicode="&#x1e28;" horiz-adv-x="1565" 
d="M331 1400v-637h902v637h122v-1400h-122v647h-902v-647h-3l-101 -323h-124l107 323h-1v1400h122z" />
    <glyph glyph-name="uni1E29" unicode="&#x1e29;" horiz-adv-x="1198" 
d="M296 1440v-662c74 124 206 178 335 178c236 0 396 -146 396 -379v-577h-114v542c0 190 -110 306 -302 306c-177 0 -315 -127 -315 -312v-536h-2l-101 -323h-119l110 323h-2v1440h114z" />
    <glyph glyph-name="uni1E2A" unicode="&#x1e2a;" horiz-adv-x="1565" 
d="M331 1400v-637h902v637h122v-1400h-122v647h-902v-647h-122v1400h122zM457 -138l92 27c36 -134 119 -201 233 -201s196 67 233 201l92 -27c-47 -177 -165 -270 -325 -270s-278 93 -325 270z" />
    <glyph glyph-name="uni1E2B" unicode="&#x1e2b;" horiz-adv-x="1198" 
d="M296 1440v-662c74 124 206 178 335 178c236 0 396 -146 396 -379v-577h-114v542c0 190 -110 306 -302 306c-177 0 -315 -127 -315 -312v-536h-114v1440h114zM280 -138l92 27c36 -134 119 -201 233 -201s196 67 233 201l92 -27c-47 -177 -165 -270 -325 -270
s-278 93 -325 270z" />
    <glyph glyph-name="uni1E32" unicode="&#x1e32;" horiz-adv-x="1367" 
d="M1167 0l-651 646h-185v-646h-122v1400h122v-638h187l615 638h158l-675 -689l717 -711h-166zM682 -179c46 0 82 -37 82 -83s-36 -81 -82 -81s-81 35 -81 81s35 83 81 83z" />
    <glyph glyph-name="uni1E33" unicode="&#x1e33;" horiz-adv-x="1042" 
d="M296 1440v-896h153l396 397h144l-448 -444l456 -497h-145l-403 441h-153v-441h-114v1440h114zM554 -179c46 0 82 -37 82 -83s-36 -81 -82 -81s-81 35 -81 81s35 83 81 83z" />
    <glyph glyph-name="uni1E36" unicode="&#x1e36;" horiz-adv-x="1204" 
d="M1162 116v-116h-953v1400h122v-1284h831zM674 -179c46 0 82 -37 82 -83s-36 -81 -82 -81s-81 35 -81 81s35 83 81 83z" />
    <glyph glyph-name="uni1E37" unicode="&#x1e37;" horiz-adv-x="477" 
d="M296 1440v-1440h-114v1440h114zM240 -179c46 0 82 -37 82 -83s-36 -81 -82 -81s-81 35 -81 81s35 83 81 83z" />
    <glyph glyph-name="uni1E38" unicode="&#x1e38;" horiz-adv-x="1204" 
d="M1162 116v-116h-953v1400h122v-1284h831zM674 -179c46 0 82 -37 82 -83s-36 -81 -82 -81s-81 35 -81 81s35 83 81 83zM-22 1595v93h585v-93h-585z" />
    <glyph glyph-name="uni1E39" unicode="&#x1e39;" horiz-adv-x="477" 
d="M296 1440v-1440h-114v1440h114zM-74 1611v93h585v-93h-585zM240 -179c46 0 82 -37 82 -83s-36 -81 -82 -81s-81 35 -81 81s35 83 81 83z" />
    <glyph glyph-name="uni1E3A" unicode="&#x1e3a;" horiz-adv-x="1204" 
d="M1162 116v-116h-953v1400h122v-1284h831zM382 -308v93h585v-93h-585z" />
    <glyph glyph-name="uni1E3B" unicode="&#x1e3b;" horiz-adv-x="477" 
d="M296 1440v-1440h-114v1440h114zM-53 -308v93h585v-93h-585z" />
    <glyph glyph-name="uni1E40" unicode="&#x1e40;" horiz-adv-x="1860" 
d="M1650 1400v-1400h-122v1261l-534 -1095h-129l-534 1089v-1255h-122v1400h184l537 -1091l536 1091h184zM920 1730c47 0 84 -38 84 -85s-37 -83 -84 -83c-48 0 -84 36 -84 83s36 85 84 85z" />
    <glyph glyph-name="uni1E41" unicode="&#x1e41;" horiz-adv-x="1930" 
d="M1362 956c236 0 397 -146 397 -379v-577h-114v542c0 190 -111 306 -303 306c-177 0 -315 -127 -315 -312v-536h-114v542c0 190 -110 306 -302 306c-177 0 -315 -127 -315 -312v-536h-114v941h113v-165c74 126 206 180 336 180c176 0 310 -81 366 -219
c70 154 219 219 365 219zM970 1379c46 0 82 -37 82 -83s-36 -81 -82 -81s-81 35 -81 81s35 83 81 83z" />
    <glyph glyph-name="uni1E42" unicode="&#x1e42;" horiz-adv-x="1860" 
d="M1650 1400v-1400h-122v1261l-534 -1095h-129l-534 1089v-1255h-122v1400h184l537 -1091l536 1091h184zM930 -179c46 0 82 -37 82 -83s-36 -81 -82 -81s-81 35 -81 81s35 83 81 83z" />
    <glyph glyph-name="uni1E43" unicode="&#x1e43;" horiz-adv-x="1930" 
d="M1362 956c236 0 397 -146 397 -379v-577h-114v542c0 190 -111 306 -303 306c-177 0 -315 -127 -315 -312v-536h-114v542c0 190 -110 306 -302 306c-177 0 -315 -127 -315 -312v-536h-114v941h113v-165c74 126 206 180 336 180c176 0 310 -81 366 -219
c70 154 219 219 365 219zM971 -179c46 0 82 -37 82 -83s-36 -81 -82 -81s-81 35 -81 81s35 83 81 83z" />
    <glyph glyph-name="uni1E44" unicode="&#x1e44;" horiz-adv-x="1569" 
d="M1359 1400v-1400h-110l-917 1190l-1 -1190h-122v1400h110l918 -1190v1190h122zM774 1730c47 0 84 -38 84 -85s-37 -83 -84 -83c-48 0 -84 36 -84 83s36 85 84 85z" />
    <glyph glyph-name="uni1E45" unicode="&#x1e45;" horiz-adv-x="1198" 
d="M631 956c236 0 396 -146 396 -379v-577h-114v542c0 190 -110 306 -302 306c-177 0 -315 -127 -315 -312v-536h-114v941h113v-165c74 126 206 180 336 180zM614 1362c46 0 82 -37 82 -83s-36 -81 -82 -81s-81 35 -81 81s35 83 81 83z" />
    <glyph glyph-name="uni1E46" unicode="&#x1e46;" horiz-adv-x="1569" 
d="M1359 1400v-1400h-110l-917 1190l-1 -1190h-122v1400h110l918 -1190v1190h122zM780 -179c46 0 82 -37 82 -83s-36 -81 -82 -81s-81 35 -81 81s35 83 81 83z" />
    <glyph glyph-name="uni1E47" unicode="&#x1e47;" horiz-adv-x="1198" 
d="M631 956c236 0 396 -146 396 -379v-577h-114v542c0 190 -110 306 -302 306c-177 0 -315 -127 -315 -312v-536h-114v941h113v-165c74 126 206 180 336 180zM604 -179c46 0 82 -37 82 -83s-36 -81 -82 -81s-81 35 -81 81s35 83 81 83z" />
    <glyph glyph-name="uni1E48" unicode="&#x1e48;" horiz-adv-x="1569" 
d="M1359 1400v-1400h-110l-917 1190l-1 -1190h-122v1400h110l918 -1190v1190h122zM488 -308v93h585v-93h-585z" />
    <glyph glyph-name="uni1E49" unicode="&#x1e49;" horiz-adv-x="1198" 
d="M631 956c236 0 396 -146 396 -379v-577h-114v542c0 190 -110 306 -302 306c-177 0 -315 -127 -315 -312v-536h-114v941h113v-165c74 126 206 180 336 180zM311 -308v93h585v-93h-585z" />
    <glyph glyph-name="uni1E58" unicode="&#x1e58;" horiz-adv-x="1341" 
d="M209 1400h534c309 0 483 -141 483 -389c0 -241 -184 -390 -482 -390h-55l530 -621h-152l-522 621h-214v-621h-122v1400zM742 1285h-411v-553h411c232 0 358 99 358 279c0 179 -128 274 -358 274zM651 1730c47 0 84 -38 84 -85s-37 -83 -84 -83c-48 0 -84 36 -84 83
s36 85 84 85z" />
    <glyph glyph-name="uni1E59" unicode="&#x1e59;" horiz-adv-x="814" 
d="M584 957c67 0 125 -11 176 -36l-29 -111c-46 25 -110 38 -167 38c-157 0 -269 -127 -269 -317v-531h-113v941h112v-160c61 110 166 176 290 176zM466 1362c46 0 82 -37 82 -83s-36 -81 -82 -81s-81 35 -81 81s35 83 81 83z" />
    <glyph glyph-name="uni1E5A" unicode="&#x1e5a;" horiz-adv-x="1341" 
d="M209 1400h534c309 0 483 -141 483 -389c0 -241 -184 -390 -482 -390h-55l530 -621h-152l-522 621h-214v-621h-122v1400zM742 1285h-411v-553h411c232 0 358 99 358 279c0 179 -128 274 -358 274zM660 -179c46 0 82 -37 82 -83s-36 -81 -82 -81s-81 35 -81 81s35 83 81 83
z" />
    <glyph glyph-name="uni1E5B" unicode="&#x1e5b;" horiz-adv-x="814" 
d="M584 957c67 0 125 -11 176 -36l-29 -111c-46 25 -110 38 -167 38c-157 0 -269 -127 -269 -317v-531h-113v941h112v-160c61 110 166 176 290 176zM241 -179c46 0 82 -37 82 -83s-36 -81 -82 -81s-81 35 -81 81s35 83 81 83z" />
    <glyph glyph-name="uni1E5C" unicode="&#x1e5c;" horiz-adv-x="1341" 
d="M209 1400h534c309 0 483 -141 483 -389c0 -241 -184 -390 -482 -390h-55l530 -621h-152l-522 621h-214v-621h-122v1400zM742 1285h-411v-553h411c232 0 358 99 358 279c0 179 -128 274 -358 274zM660 -179c46 0 82 -37 82 -83s-36 -81 -82 -81s-81 35 -81 81s35 83 81 83
zM369 1595v93h585v-93h-585z" />
    <glyph glyph-name="uni1E5D" unicode="&#x1e5d;" horiz-adv-x="814" 
d="M584 957c67 0 125 -11 176 -36l-29 -111c-46 25 -110 38 -167 38c-157 0 -269 -127 -269 -317v-531h-113v941h112v-160c61 110 166 176 290 176zM174 1180v93h585v-93h-585zM241 -179c46 0 82 -37 82 -83s-36 -81 -82 -81s-81 35 -81 81s35 83 81 83z" />
    <glyph glyph-name="uni1E5E" unicode="&#x1e5e;" horiz-adv-x="1341" 
d="M209 1400h534c309 0 483 -141 483 -389c0 -241 -184 -390 -482 -390h-55l530 -621h-152l-522 621h-214v-621h-122v1400zM742 1285h-411v-553h411c232 0 358 99 358 279c0 179 -128 274 -358 274zM368 -308v93h585v-93h-585z" />
    <glyph glyph-name="uni1E5F" unicode="&#x1e5f;" horiz-adv-x="814" 
d="M584 957c67 0 125 -11 176 -36l-29 -111c-46 25 -110 38 -167 38c-157 0 -269 -127 -269 -317v-531h-113v941h112v-160c61 110 166 176 290 176zM-52 -308v93h585v-93h-585z" />
    <glyph glyph-name="uni1E62" unicode="&#x1e62;" horiz-adv-x="1343" 
d="M1183 1261l-63 -99c-109 77 -254 137 -438 137c-225 0 -390 -104 -390 -279c0 -139 103 -224 342 -251l153 -17c249 -28 430 -126 430 -359c0 -272 -248 -408 -550 -408c-210 0 -418 77 -542 175l67 97c98 -78 280 -156 474 -156c237 0 424 93 424 282
c0 152 -122 226 -355 252l-159 18c-256 29 -411 144 -411 359c0 258 230 403 518 403c217 0 379 -68 500 -154zM699 -179c46 0 82 -37 82 -83s-36 -81 -82 -81s-81 35 -81 81s35 83 81 83z" />
    <glyph glyph-name="uni1E63" unicode="&#x1e63;" horiz-adv-x="974" 
d="M858 850l-49 -88c-64 45 -187 94 -319 94c-147 0 -250 -64 -250 -170c0 -87 69 -135 214 -152l120 -14c196 -23 309 -104 309 -253c0 -178 -163 -282 -405 -282c-137 0 -278 37 -387 120l53 85c73 -57 173 -106 335 -106c170 0 287 58 287 176c0 87 -72 140 -217 156
l-121 13c-213 24 -305 117 -305 251c0 173 149 276 366 276c149 0 284 -45 369 -106zM496 -179c46 0 82 -37 82 -83s-36 -81 -82 -81s-81 35 -81 81s35 83 81 83z" />
    <glyph glyph-name="uni1E6C" unicode="&#x1e6c;" horiz-adv-x="1215" 
d="M1173 1400v-116h-505v-1284h-122v1284h-504v116h1131zM607 -179c46 0 82 -37 82 -83s-36 -81 -82 -81s-81 35 -81 81s35 83 81 83z" />
    <glyph glyph-name="uni1E6D" unicode="&#x1e6d;" horiz-adv-x="904" 
d="M819 941v-104h-434v-513c0 -159 84 -232 209 -232c81 0 155 28 210 72l54 -85c-67 -56 -160 -94 -273 -94c-196 0 -314 109 -314 337v515h-216v104h216v307h114v-307h434zM554 -179c46 0 82 -37 82 -83s-36 -81 -82 -81s-81 35 -81 81s35 83 81 83z" />
    <glyph glyph-name="uni1E6E" unicode="&#x1e6e;" horiz-adv-x="1215" 
d="M1173 1400v-116h-505v-1284h-122v1284h-504v116h1131zM315 -308v93h585v-93h-585z" />
    <glyph glyph-name="uni1E6F" unicode="&#x1e6f;" horiz-adv-x="904" 
d="M819 941v-104h-434v-513c0 -159 84 -232 209 -232c81 0 155 28 210 72l54 -85c-67 -56 -160 -94 -273 -94c-196 0 -314 109 -314 337v515h-216v104h216v307h114v-307h434zM261 -308v93h585v-93h-585z" />
    <glyph glyph-name="Wgrave" unicode="&#x1e80;" horiz-adv-x="2208" 
d="M2144 1400l-472 -1400h-149l-419 1241l-419 -1241h-149l-472 1400h129l419 -1265l425 1265h137l424 -1263l420 1263h126zM1114 1497l-251 300h144l220 -300h-113z" />
    <glyph glyph-name="wgrave" unicode="&#x1e81;" horiz-adv-x="1725" 
d="M927 941l310 -825l319 825h118l-369 -941h-134l-310 822l-308 -822h-133l-369 941h121l318 -824l309 824h128zM856 1082l-251 300h144l220 -300h-113z" />
    <glyph glyph-name="Wacute" unicode="&#x1e82;" horiz-adv-x="2208" 
d="M2144 1400l-472 -1400h-149l-419 1241l-419 -1241h-149l-472 1400h129l419 -1265l425 1265h137l424 -1263l420 1263h126zM1086 1497h-113l220 300h144z" />
    <glyph glyph-name="wacute" unicode="&#x1e83;" horiz-adv-x="1725" 
d="M927 941l310 -825l319 825h118l-369 -941h-134l-310 822l-308 -822h-133l-369 941h121l318 -824l309 824h128zM858 1082h-113l220 300h144z" />
    <glyph glyph-name="Wdieresis" unicode="&#x1e84;" horiz-adv-x="2208" 
d="M2144 1400l-472 -1400h-149l-419 1241l-419 -1241h-149l-472 1400h129l419 -1265l425 1265h137l424 -1263l420 1263h126zM899 1725c46 0 82 -37 82 -83s-36 -81 -82 -81s-81 35 -81 81s35 83 81 83zM1308 1725c46 0 83 -37 83 -83s-37 -81 -83 -81s-81 35 -81 81
s35 83 81 83z" />
    <glyph glyph-name="wdieresis" unicode="&#x1e85;" horiz-adv-x="1725" 
d="M927 941l310 -825l319 825h118l-369 -941h-134l-310 822l-308 -822h-133l-369 941h121l318 -824l309 824h128zM658 1310c46 0 82 -37 82 -83s-36 -81 -82 -81s-81 35 -81 81s35 83 81 83zM1067 1310c46 0 83 -37 83 -83s-37 -81 -83 -81s-81 35 -81 81s35 83 81 83z" />
    <glyph glyph-name="uni1E88" unicode="&#x1e88;" horiz-adv-x="2208" 
d="M2144 1400l-472 -1400h-149l-419 1241l-419 -1241h-149l-472 1400h129l419 -1265l425 1265h137l424 -1263l420 1263h126zM1105 -179c46 0 82 -37 82 -83s-36 -81 -82 -81s-81 35 -81 81s35 83 81 83z" />
    <glyph glyph-name="uni1E89" unicode="&#x1e89;" horiz-adv-x="1725" 
d="M927 941l310 -825l319 825h118l-369 -941h-134l-310 822l-308 -822h-133l-369 941h121l318 -824l309 824h128zM863 -179c46 0 82 -37 82 -83s-36 -81 -82 -81s-81 35 -81 81s35 83 81 83z" />
    <glyph glyph-name="uni1E92" unicode="&#x1e92;" horiz-adv-x="1327" 
d="M1197 1400v-94l-910 -1190h914v-116h-1076v95l909 1189h-894v116h1057zM663 -179c46 0 82 -37 82 -83s-36 -81 -82 -81s-81 35 -81 81s35 83 81 83z" />
    <glyph glyph-name="uni1E93" unicode="&#x1e93;" horiz-adv-x="1066" 
d="M931 941v-84l-652 -754h660v-103h-812v83l657 754h-637v104h784zM535 -179c46 0 82 -37 82 -83s-36 -81 -82 -81s-81 35 -81 81s35 83 81 83z" />
    <glyph glyph-name="uni1E94" unicode="&#x1e94;" horiz-adv-x="1327" 
d="M1197 1400v-94l-910 -1190h914v-116h-1076v95l909 1189h-894v116h1057zM371 -308v93h585v-93h-585z" />
    <glyph glyph-name="uni1E95" unicode="&#x1e95;" horiz-adv-x="1066" 
d="M931 941v-84l-652 -754h660v-103h-812v83l657 754h-637v104h784zM242 -308v93h585v-93h-585z" />
    <glyph glyph-name="uni1E96" unicode="&#x1e96;" horiz-adv-x="1198" 
d="M296 1440v-662c74 124 206 178 335 178c236 0 396 -146 396 -379v-577h-114v542c0 190 -110 306 -302 306c-177 0 -315 -127 -315 -312v-536h-114v1440h114zM313 -308v93h585v-93h-585z" />
    <glyph glyph-name="uni1E9E" unicode="&#x1e9e;" horiz-adv-x="1464" 
d="M732 648v91l383 417c-71 81 -182 142 -377 142c-257 0 -426 -141 -426 -378v-920h-123v927c0 285 200 488 552 488c279 0 434 -100 540 -242l-387 -419c253 -22 445 -164 445 -384c0 -238 -226 -385 -499 -385c-141 0 -230 22 -307 51l31 116c65 -27 147 -49 258 -49
c230 0 388 99 388 267c0 172 -161 278 -408 278h-70z" />
    <glyph glyph-name="Ygrave" unicode="&#x1ef2;" horiz-adv-x="1263" 
d="M1251 1400l-558 -800v-600h-122v602l-559 798h146l475 -685l475 685h143zM643 1497l-251 300h144l220 -300h-113z" />
    <glyph glyph-name="ygrave" unicode="&#x1ef3;" horiz-adv-x="1028" 
d="M1011 941l-779 -1344h-126l360 613l-442 731h128l379 -619l355 619h125zM512 1082l-251 300h144l220 -300h-113z" />
    <glyph glyph-name="uni1EF4" unicode="&#x1ef4;" horiz-adv-x="1263" 
d="M1251 1400l-558 -800v-600h-122v602l-559 798h146l475 -685l475 685h143zM632 -179c46 0 82 -37 82 -83s-36 -81 -82 -81s-81 35 -81 81s35 83 81 83z" />
    <glyph glyph-name="uni1EF5" unicode="&#x1ef5;" horiz-adv-x="1028" 
d="M1011 941l-779 -1344h-126l360 613l-442 731h128l379 -619l355 619h125zM734 -179c46 0 82 -37 82 -83s-36 -81 -82 -81s-81 35 -81 81s35 83 81 83z" />
    <glyph glyph-name="uni2007" unicode="&#x2007;" horiz-adv-x="1417" 
 />
    <glyph glyph-name="uni2008" unicode="&#x2008;" horiz-adv-x="520" 
 />
    <glyph glyph-name="uni2009" unicode="&#x2009;" horiz-adv-x="177" 
 />
    <glyph glyph-name="uni200B" unicode="&#x200b;" horiz-adv-x="0" 
 />
    <glyph glyph-name="uniFEFF" unicode="&#xfeff;" horiz-adv-x="0" 
 />
    <glyph glyph-name="uni2010" unicode="&#x2010;" horiz-adv-x="835" 
d="M689 578v-103h-542v103h542z" />
    <glyph glyph-name="uni2011" unicode="&#x2011;" horiz-adv-x="835" 
d="M689 578v-103h-542v103h542z" />
    <glyph glyph-name="figuredash" unicode="&#x2012;" horiz-adv-x="1200" 
d="M1075 578v-103h-950v103h950z" />
    <glyph glyph-name="endash" unicode="&#x2013;" horiz-adv-x="1201" 
d="M1076 578v-103h-950v103h950z" />
    <glyph glyph-name="emdash" unicode="&#x2014;" horiz-adv-x="1626" 
d="M1563 578v-103h-1500v103h1500z" />
    <glyph glyph-name="quoteleft" unicode="&#x2018;" horiz-adv-x="488" 
d="M283 957h-133l96 483h99z" />
    <glyph glyph-name="quoteright" unicode="&#x2019;" horiz-adv-x="488" 
d="M205 1440h133l-96 -483h-99z" />
    <glyph glyph-name="quotesinglbase" unicode="&#x201a;" horiz-adv-x="488" 
d="M205 234h133l-96 -483h-99z" />
    <glyph glyph-name="quotedblleft" unicode="&#x201c;" horiz-adv-x="821" 
d="M283 957h-133l96 483h99zM616 957h-133l96 483h99z" />
    <glyph glyph-name="quotedblright" unicode="&#x201d;" horiz-adv-x="821" 
d="M538 1440h133l-96 -483h-99zM205 1440h133l-96 -483h-99z" />
    <glyph glyph-name="quotedblbase" unicode="&#x201e;" horiz-adv-x="821" 
d="M538 234h133l-96 -483h-99zM205 234h133l-96 -483h-99z" />
    <glyph glyph-name="dagger" unicode="&#x2020;" horiz-adv-x="713" 
d="M404 701h-95v442h-204v93h204v204h95v-204h204v-93h-204v-442z" />
    <glyph glyph-name="daggerdbl" unicode="&#x2021;" horiz-adv-x="713" 
d="M404 1440v-184h204v-92h-204v-187h204v-93h-204v-183h-95v183h-204v93h204v187h-204v92h204v184h95z" />
    <glyph glyph-name="bullet" unicode="&#x2022;" horiz-adv-x="874" 
d="M437 718c104 0 191 -85 191 -191c0 -105 -87 -191 -191 -191c-107 0 -191 86 -191 191c0 106 84 191 191 191z" />
    <glyph glyph-name="uni2023" unicode="&#x2023;" horiz-adv-x="991" 
d="M814 527l-536 -311v621z" />
    <glyph glyph-name="ellipsis" unicode="&#x2026;" horiz-adv-x="1409" 
d="M260 178c52 0 96 -44 96 -95c0 -52 -44 -97 -96 -97c-51 0 -96 45 -96 97c0 51 45 95 96 95zM705 178c51 0 95 -44 95 -95c0 -52 -44 -97 -95 -97c-52 0 -96 45 -96 97c0 51 44 95 96 95zM1149 178c51 0 96 -44 96 -95c0 -52 -45 -97 -96 -97s-96 45 -96 97
c0 51 45 95 96 95z" />
    <glyph glyph-name="perthousand" unicode="&#x2030;" horiz-adv-x="2743" 
d="M456 1415c204 0 358 -152 358 -353c0 -202 -154 -354 -358 -354c-201 0 -355 152 -355 354c0 201 154 353 355 353zM456 1315c-141 0 -248 -106 -248 -253s107 -253 248 -253c144 0 251 106 251 253s-107 253 -251 253zM1458 1400l-883 -1400h-120l883 1400h120z
M1453 692c204 0 359 -155 359 -354c0 -202 -155 -353 -359 -353c-201 0 -354 151 -354 353c0 201 153 354 354 354zM1453 591c-140 0 -247 -106 -247 -253s107 -253 247 -253c144 0 252 106 252 253s-108 253 -252 253zM2285 692c204 0 358 -153 358 -354
c0 -202 -154 -353 -358 -353c-201 0 -355 151 -355 353c0 201 154 354 355 354zM2285 591c-141 0 -248 -106 -248 -253s107 -253 248 -253c144 0 251 106 251 253s-107 253 -251 253z" />
    <glyph glyph-name="minute" unicode="&#x2032;" horiz-adv-x="533" 
d="M274 1400h109l-131 -616h-109z" />
    <glyph glyph-name="second" unicode="&#x2033;" horiz-adv-x="830" 
d="M571 1400h109l-131 -616h-109zM274 1400h109l-131 -616h-109z" />
    <glyph glyph-name="uni2034" unicode="&#x2034;" horiz-adv-x="1077" 
d="M546 1400h109l-131 -616h-109zM818 1400h109l-131 -616h-109zM274 1400h109l-131 -616h-109z" />
    <glyph glyph-name="guilsinglleft" unicode="&#x2039;" horiz-adv-x="619" 
d="M261 527l194 -364h-123l-193 364l193 364h123z" />
    <glyph glyph-name="guilsinglright" unicode="&#x203a;" horiz-adv-x="619" 
d="M358 527l-194 364h123l193 -364l-193 -364h-123z" />
    <glyph glyph-name="fraction" unicode="&#x2044;" horiz-adv-x="420" 
d="M709 1400l-883 -1400h-115l883 1400h115z" />
    <glyph glyph-name="uni2070" unicode="&#x2070;" horiz-adv-x="848" 
d="M424 1408c178 0 322 -147 322 -392c0 -244 -144 -391 -322 -391s-322 147 -322 391c0 245 144 392 322 392zM424 1317c-123 0 -224 -108 -224 -301c0 -192 101 -300 224 -300c124 0 224 108 224 300c0 193 -100 301 -224 301z" />
    <glyph glyph-name="uni2071" unicode="&#x2071;" horiz-adv-x="360" 
d="M227 1287v-653h-94v653h94zM180 1573c36 0 64 -28 64 -64s-28 -63 -64 -63s-64 27 -64 63s28 64 64 64z" />
    <glyph glyph-name="uni2074" unicode="&#x2074;" horiz-adv-x="670" 
d="M501 1095v-217h128v-87h-128v-157h-95v157h-365v69l274 538h104l-266 -520h253v217h95z" />
    <glyph glyph-name="uni2075" unicode="&#x2075;" horiz-adv-x="691" 
d="M563 1399v-87h-341l-7 -217h103c184 0 281 -93 281 -224c0 -152 -115 -246 -270 -246c-110 0 -200 40 -263 111l57 63c50 -54 124 -87 205 -87c109 0 173 62 173 152c0 84 -60 147 -203 147h-170l12 388h423z" />
    <glyph glyph-name="uni2076" unicode="&#x2076;" horiz-adv-x="686" 
d="M457 1399l-194 -292c26 11 57 17 91 17c158 0 266 -108 266 -247c0 -145 -118 -252 -279 -252c-160 0 -280 107 -280 250c0 59 21 112 56 167l226 357h114zM341 1044c-105 0 -181 -71 -181 -168c0 -96 76 -167 181 -167c104 0 180 70 180 167s-76 168 -180 168z" />
    <glyph glyph-name="uni2077" unicode="&#x2077;" horiz-adv-x="645" 
d="M594 1399v-74l-344 -691h-111l343 676h-421v89h533z" />
    <glyph glyph-name="uni2078" unicode="&#x2078;" horiz-adv-x="753" 
d="M377 1408c148 0 270 -75 270 -207c0 -95 -62 -152 -141 -180c89 -27 160 -85 160 -184c0 -137 -131 -212 -289 -212c-160 0 -290 75 -290 212c0 99 71 157 160 184c-79 28 -141 85 -141 180c0 132 122 207 271 207zM377 983c-103 0 -188 -48 -188 -137
c0 -92 85 -140 188 -140c102 0 187 48 187 140c0 89 -85 137 -187 137zM377 1325c-93 0 -170 -46 -170 -132c0 -88 77 -133 170 -133s170 45 170 133c0 86 -77 132 -170 132z" />
    <glyph glyph-name="uni2079" unicode="&#x2079;" horiz-adv-x="686" 
d="M230 634l192 291c-26 -10 -55 -16 -89 -16c-158 0 -266 108 -266 247c0 145 119 252 279 252c161 0 280 -107 280 -250c0 -58 -21 -113 -56 -168l-226 -356h-114zM346 989c105 0 180 71 181 168c0 96 -76 167 -181 167c-104 0 -180 -70 -180 -167s76 -168 180 -168z" />
    <glyph glyph-name="uni207F" unicode="&#x207f;" horiz-adv-x="850" 
d="M456 1298c158 0 268 -101 268 -261v-403h-95v374c0 125 -71 201 -198 201c-112 0 -204 -80 -204 -205v-370h-94v653h92v-125c46 93 134 136 231 136z" />
    <glyph glyph-name="uni2080" unicode="&#x2080;" horiz-adv-x="848" 
d="M424 411c178 0 322 -147 322 -392c0 -244 -144 -391 -322 -391s-322 147 -322 391c0 245 144 392 322 392zM424 320c-123 0 -224 -108 -224 -301c0 -192 101 -300 224 -300c124 0 224 108 224 300c0 193 -100 301 -224 301z" />
    <glyph glyph-name="uni2081" unicode="&#x2081;" horiz-adv-x="541" 
d="M378 410v-773h-95v641l-232 -95v94z" />
    <glyph glyph-name="uni2082" unicode="&#x2082;" horiz-adv-x="657" 
d="M128 223l-62 59c41 59 114 129 246 129c157 0 247 -100 247 -234c0 -92 -45 -160 -110 -225l-224 -227h361v-88h-496v74l292 295c47 47 80 99 80 164c0 84 -58 150 -158 150c-87 0 -139 -46 -176 -97z" />
    <glyph glyph-name="uni2083" unicode="&#x2083;" horiz-adv-x="658" 
d="M293 411c154 0 261 -85 261 -207c0 -91 -53 -153 -133 -181c90 -27 149 -92 149 -181c0 -145 -132 -214 -271 -214c-106 0 -190 37 -248 98l55 63c48 -47 113 -75 189 -75c94 0 177 43 177 136c0 83 -82 131 -181 131h-103v84h103c93 0 165 46 165 132
c0 77 -69 128 -167 128c-79 0 -139 -37 -177 -84l-58 60c51 63 128 110 239 110z" />
    <glyph glyph-name="uni2084" unicode="&#x2084;" horiz-adv-x="670" 
d="M501 98v-217h128v-87h-128v-157h-95v157h-365v69l274 538h104l-266 -520h253v217h95z" />
    <glyph glyph-name="uni2085" unicode="&#x2085;" horiz-adv-x="691" 
d="M563 402v-87h-341l-7 -217h103c184 0 281 -93 281 -224c0 -152 -115 -246 -270 -246c-110 0 -200 40 -263 111l57 63c50 -54 124 -87 205 -87c109 0 173 62 173 152c0 84 -60 147 -203 147h-170l12 388h423z" />
    <glyph glyph-name="uni2086" unicode="&#x2086;" horiz-adv-x="686" 
d="M457 402l-194 -292c26 11 57 17 91 17c158 0 266 -108 266 -247c0 -145 -118 -252 -279 -252c-160 0 -280 107 -280 250c0 59 21 112 56 167l226 357h114zM341 47c-105 0 -181 -71 -181 -168c0 -96 76 -167 181 -167c104 0 180 70 180 167s-76 168 -180 168z" />
    <glyph glyph-name="uni2087" unicode="&#x2087;" horiz-adv-x="645" 
d="M594 402v-74l-344 -691h-111l343 676h-421v89h533z" />
    <glyph glyph-name="uni2088" unicode="&#x2088;" horiz-adv-x="753" 
d="M377 411c148 0 270 -75 270 -207c0 -95 -62 -152 -141 -180c89 -27 160 -85 160 -184c0 -137 -131 -212 -289 -212c-160 0 -290 75 -290 212c0 99 71 157 160 184c-79 28 -141 85 -141 180c0 132 122 207 271 207zM377 -14c-103 0 -188 -48 -188 -137
c0 -92 85 -140 188 -140c102 0 187 48 187 140c0 89 -85 137 -187 137zM377 328c-93 0 -170 -46 -170 -132c0 -88 77 -133 170 -133s170 45 170 133c0 86 -77 132 -170 132z" />
    <glyph glyph-name="uni2089" unicode="&#x2089;" horiz-adv-x="686" 
d="M230 -363l192 291c-26 -10 -55 -16 -89 -16c-158 0 -266 108 -266 247c0 145 119 252 279 252c161 0 280 -107 280 -250c0 -58 -21 -113 -56 -168l-226 -356h-114zM346 -8c105 0 180 71 181 168c0 96 -76 167 -181 167c-104 0 -180 -70 -180 -167s76 -168 180 -168z" />
    <glyph glyph-name="Euro" unicode="&#x20ac;" horiz-adv-x="1400" 
d="M1046 590v-95h-673c57 -248 221 -401 468 -401c185 0 320 88 402 222l75 -78c-100 -157 -261 -253 -477 -253c-316 0 -527 198 -590 510h-172v95h158c-3 35 -5 72 -5 110s2 74 5 110h-158v95h172c63 312 274 510 590 510c215 0 380 -96 480 -249l-80 -82
c-81 134 -215 222 -401 222c-248 0 -411 -153 -467 -401h673v-95h-688c-4 -35 -6 -72 -6 -110s2 -75 6 -110h688z" />
    <glyph glyph-name="uni20BA" unicode="&#x20ba;" horiz-adv-x="1400" 
d="M995 788v-101l-535 -254v-321h259c201 0 341 83 461 300l101 -56c-144 -257 -315 -356 -571 -356h-367v378l-201 -95v101l201 95v218l-201 -95v101l201 95v602h117v-547l535 254v-101l-535 -254v-218z" />
    <glyph glyph-name="uni2100" unicode="&#x2100;" horiz-adv-x="1856" 
d="M470 1416c170 0 284 -84 284 -271v-393h-93v100c-55 -61 -138 -111 -247 -111c-142 0 -232 81 -232 197c0 115 96 190 271 190h206v8c0 138 -76 196 -199 196c-89 0 -156 -35 -204 -75l-38 73c64 51 148 86 252 86zM435 819c94 0 173 49 225 110v132h-193
c-131 0 -186 -54 -186 -121s57 -121 154 -121zM1478 1400l-883 -1400h-115l883 1400h115zM1426 660c101 0 188 -40 248 -109l-67 -59c-48 51 -109 80 -183 80c-134 0 -238 -104 -238 -249c0 -146 103 -249 238 -249c73 0 138 31 184 79l66 -59c-60 -69 -147 -109 -248 -109
c-197 0 -337 145 -337 338s140 337 337 337z" />
    <glyph glyph-name="uni2101" unicode="&#x2101;" horiz-adv-x="1856" 
d="M473 1416c170 0 284 -84 284 -271v-393h-93v100c-55 -61 -138 -111 -247 -111c-142 0 -232 81 -232 197c0 115 96 190 271 190h206v8c0 138 -76 196 -199 196c-89 0 -156 -35 -204 -75l-38 73c64 51 148 86 252 86zM438 819c94 0 173 49 225 110v132h-193
c-131 0 -186 -54 -186 -121s57 -121 154 -121zM1480 1400l-883 -1400h-115l883 1400h115zM1650 590l-35 -74c-49 31 -135 64 -223 64c-97 0 -162 -41 -162 -110c0 -55 47 -88 146 -99l78 -9c135 -16 213 -74 213 -177c0 -127 -113 -200 -283 -200c-102 0 -201 27 -273 80
l40 72c54 -40 125 -71 234 -71c111 0 186 36 186 112c0 58 -48 91 -148 102l-75 8c-150 16 -216 82 -216 178c0 122 104 194 258 194c104 0 192 -29 260 -70z" />
    <glyph glyph-name="afii61248" unicode="&#x2105;" horiz-adv-x="1856" 
d="M485 1416c101 0 188 -40 248 -109l-67 -59c-48 51 -109 80 -183 80c-134 0 -238 -104 -238 -249c0 -146 103 -249 238 -249c73 0 138 31 184 79l66 -59c-60 -69 -147 -109 -248 -109c-197 0 -337 145 -337 338s140 337 337 337zM1421 1400l-883 -1400h-115l883 1400h115z
M1368 660c195 0 341 -144 341 -337s-146 -338 -341 -338c-194 0 -340 145 -340 338s146 337 340 337zM1368 572c-138 0 -243 -106 -243 -249c0 -144 105 -249 243 -249c139 0 245 105 245 249c0 143 -106 249 -245 249z" />
    <glyph glyph-name="uni2106" unicode="&#x2106;" horiz-adv-x="1856" 
d="M482 1416c101 0 188 -40 248 -109l-67 -59c-48 51 -109 80 -183 80c-134 0 -238 -104 -238 -249c0 -146 103 -249 238 -249c73 0 138 31 184 79l66 -59c-60 -69 -147 -109 -248 -109c-197 0 -337 145 -337 338s140 337 337 337zM1418 1400l-883 -1400h-115l883 1400h115z
M1711 649v-382c0 -185 -131 -282 -296 -282c-164 0 -295 97 -295 282v382h94v-374c0 -131 83 -201 201 -201c119 0 202 70 202 201v374h94z" />
    <glyph glyph-name="afii61289" unicode="&#x2113;" horiz-adv-x="1081" 
d="M198 385l-42 98c58 24 114 52 167 81l1 529c1 210 113 362 289 362c167 0 281 -121 281 -295c0 -267 -196 -490 -457 -652v-184c0 -161 79 -233 197 -233c80 0 152 31 206 76l46 -90c-65 -54 -152 -93 -261 -93c-189 0 -302 110 -302 337v123c-41 -21 -83 -41 -125 -59z
M438 1093l-1 -458c205 141 340 322 340 525c0 116 -62 189 -164 189c-103 0 -175 -98 -175 -256z" />
    <glyph glyph-name="afii61352" unicode="&#x2116;" horiz-adv-x="2413" 
d="M2316 575v-103h-650v103h650zM1991 1412c193 0 338 -144 338 -336c0 -191 -145 -334 -338 -334s-337 143 -337 334c0 192 144 336 337 336zM1990 1324c-137 0 -242 -104 -242 -248c0 -143 105 -247 242 -247c139 0 244 104 244 247c0 144 -105 248 -244 248zM1359 1400
v-1400h-110l-917 1190l-1 -1190h-122v1400h110l918 -1190v1190h122z" />
    <glyph glyph-name="uni2117" unicode="&#x2117;" horiz-adv-x="1898" 
d="M949 1500c441 0 799 -356 799 -794c0 -439 -358 -796 -799 -796s-798 357 -798 796c0 438 357 794 798 794zM949 1400c-384 0 -694 -310 -694 -694c0 -385 310 -695 694 -695s695 310 695 695c0 384 -311 694 -695 694zM678 1121h334c203 0 323 -97 323 -258
c0 -158 -120 -254 -323 -254h-232v-328h-102v840zM1010 1028h-230v-328h230c138 0 220 57 220 163c0 108 -82 165 -220 165z" />
    <glyph glyph-name="uni2120" unicode="&#x2120;" horiz-adv-x="1404" 
d="M576 1351l-37 -69c-45 25 -106 50 -184 50c-83 0 -145 -31 -145 -87c0 -48 49 -72 141 -81l54 -5c116 -11 190 -58 190 -146c0 -122 -116 -175 -248 -175c-94 0 -185 27 -242 65l41 67c44 -27 116 -56 202 -56c87 0 157 27 157 88c0 52 -50 74 -144 82l-56 5
c-120 11 -186 62 -186 149c0 105 101 169 234 169c98 0 166 -24 223 -56zM1320 847h-83v441l-177 -380h-85l-178 380v-441h-83v553h117l187 -397l186 397h116v-553z" />
    <glyph glyph-name="trademark" unicode="&#x2122;" horiz-adv-x="1348" 
d="M1264 848h-83v441l-177 -380h-85l-178 380v-441h-83v553h117l187 -398l186 398h116v-553zM358 848h-82v476h-192v76h466v-76h-192v-476z" />
    <glyph glyph-name="Omega" unicode="&#x2126;" horiz-adv-x="1718" 
d="M84 116h385c-196 109 -327 316 -327 577c0 424 309 723 717 723s717 -299 717 -723c0 -261 -131 -468 -327 -577h385v-116h-588v99c237 75 402 293 402 589c0 365 -257 610 -589 610s-589 -245 -589 -610c0 -296 166 -514 402 -589v-99h-588v116z" />
    <glyph glyph-name="estimated" unicode="&#x212e;" horiz-adv-x="2000" 
d="M438 677v-353c0 -96 22 -166 98 -225c127 -98 288 -153 464 -153c262 0 492 121 625 324l37 -28c-142 -215 -386 -342 -662 -342c-437 0 -794 320 -794 800s357 800 794 800s794 -320 794 -800v-23h-1356zM438 723h1132v346c0 95 -22 166 -96 225
c-129 103 -294 160 -474 160c-176 0 -337 -55 -464 -153c-76 -59 -98 -129 -98 -225v-353z" />
    <glyph glyph-name="uni214D" unicode="&#x214d;" horiz-adv-x="1856" 
d="M517 1400l293 -729h-101l-74 190h-351l-74 -190h-99l293 729h113zM1721 660l-41 -78c-52 34 -128 68 -228 68c-103 0 -181 -44 -181 -122c0 -66 61 -100 178 -114l69 -8c143 -18 227 -76 227 -190c0 -156 -140 -224 -299 -224c-119 0 -226 37 -294 85l46 77
c54 -36 140 -76 249 -76c110 0 196 39 196 125c0 72 -60 102 -176 115l-73 8c-154 17 -225 83 -225 194c0 134 119 216 279 216c123 0 205 -33 273 -76zM460 1314l-143 -367h285zM1498 1400l-883 -1400h-115l883 1400h115z" />
    <glyph glyph-name="uni2150" unicode="&#x2150;" horiz-adv-x="1654" 
d="M1271 1400l-883 -1400h-115l883 1400h115zM1603 765v-74l-344 -691h-111l343 676h-421v89h533zM378 1407v-773h-95v641l-232 -95v94z" />
    <glyph glyph-name="uni2151" unicode="&#x2151;" horiz-adv-x="1669" 
d="M1271 1400l-883 -1400h-115l883 1400h115zM1213 0l192 291c-26 -10 -55 -16 -89 -16c-158 0 -266 108 -266 247c0 145 119 252 279 252c161 0 280 -107 280 -250c0 -58 -21 -113 -56 -168l-226 -356h-114zM1329 355c105 0 180 71 181 168c0 96 -76 167 -181 167
c-104 0 -180 -70 -180 -167s76 -168 180 -168zM378 1407v-773h-95v641l-232 -95v94z" />
    <glyph glyph-name="uni2152" unicode="&#x2152;" horiz-adv-x="2392" 
d="M1271 1400l-883 -1400h-115l883 1400h115zM1381 773v-773h-95v641l-232 -95v94zM1968 774c178 0 322 -147 322 -392c0 -244 -144 -391 -322 -391s-322 147 -322 391c0 245 144 392 322 392zM1968 683c-123 0 -224 -108 -224 -301c0 -192 101 -300 224 -300
c124 0 224 108 224 300c0 193 -100 301 -224 301zM378 1407v-773h-95v641l-232 -95v94z" />
    <glyph glyph-name="onethird" unicode="&#x2153;" horiz-adv-x="1641" 
d="M1271 1400l-883 -1400h-115l883 1400h115zM1276 774c154 0 261 -85 261 -207c0 -91 -53 -153 -133 -181c90 -27 149 -92 149 -181c0 -145 -132 -214 -271 -214c-106 0 -190 37 -248 98l55 63c48 -47 113 -75 189 -75c94 0 177 43 177 136c0 83 -82 131 -181 131h-103v84
h103c93 0 165 46 165 132c0 77 -69 128 -167 128c-79 0 -139 -37 -177 -84l-58 60c51 63 128 110 239 110zM378 1407v-773h-95v641l-232 -95v94z" />
    <glyph glyph-name="twothirds" unicode="&#x2154;" horiz-adv-x="1765" 
d="M1396 1400l-883 -1400h-115l883 1400h115zM1400 774c154 0 261 -85 261 -207c0 -91 -53 -153 -133 -181c90 -27 149 -92 149 -181c0 -145 -132 -214 -271 -214c-106 0 -190 37 -248 98l55 63c48 -47 113 -75 189 -75c94 0 177 43 177 136c0 83 -82 131 -181 131h-103v84
h103c93 0 165 46 165 132c0 77 -69 128 -167 128c-79 0 -139 -37 -177 -84l-58 60c51 63 128 110 239 110zM128 1220l-62 59c41 59 114 129 246 129c157 0 247 -100 247 -234c0 -92 -45 -160 -110 -225l-224 -227h361v-88h-496v74l292 295c47 47 80 99 80 164
c0 84 -58 150 -158 150c-87 0 -139 -46 -176 -97z" />
    <glyph glyph-name="uni2155" unicode="&#x2155;" horiz-adv-x="1673" 
d="M1271 1400l-883 -1400h-115l883 1400h115zM1546 765v-87h-341l-7 -217h103c184 0 281 -93 281 -224c0 -152 -115 -246 -270 -246c-110 0 -200 40 -263 111l57 63c50 -54 124 -87 205 -87c109 0 173 62 173 152c0 84 -60 147 -203 147h-170l12 388h423zM378 1407v-773h-95
v641l-232 -95v94z" />
    <glyph glyph-name="uni2156" unicode="&#x2156;" horiz-adv-x="1798" 
d="M1396 1400l-883 -1400h-115l883 1400h115zM1670 765v-87h-341l-7 -217h103c184 0 281 -93 281 -224c0 -152 -115 -246 -270 -246c-110 0 -200 40 -263 111l57 63c50 -54 124 -87 205 -87c109 0 173 62 173 152c0 84 -60 147 -203 147h-170l12 388h423zM128 1220l-62 59
c41 59 114 129 246 129c157 0 247 -100 247 -234c0 -92 -45 -160 -110 -225l-224 -227h361v-88h-496v74l292 295c47 47 80 99 80 164c0 84 -58 150 -158 150c-87 0 -139 -46 -176 -97z" />
    <glyph glyph-name="uni2157" unicode="&#x2157;" horiz-adv-x="1769" 
d="M1367 1400l-883 -1400h-115l883 1400h115zM1641 765v-87h-341l-7 -217h103c184 0 281 -93 281 -224c0 -152 -115 -246 -270 -246c-110 0 -200 40 -263 111l57 63c50 -54 124 -87 205 -87c109 0 173 62 173 152c0 84 -60 147 -203 147h-170l12 388h423zM293 1408
c154 0 261 -85 261 -207c0 -91 -53 -153 -133 -181c90 -27 149 -92 149 -181c0 -145 -132 -214 -271 -214c-106 0 -190 37 -248 98l55 63c48 -47 113 -75 189 -75c94 0 177 43 177 136c0 83 -82 131 -181 131h-103v84h103c93 0 165 46 165 132c0 77 -69 128 -167 128
c-79 0 -139 -37 -177 -84l-58 60c51 63 128 110 239 110z" />
    <glyph glyph-name="uni2158" unicode="&#x2158;" horiz-adv-x="1781" 
d="M1379 1400l-883 -1400h-115l883 1400h115zM1653 765v-87h-341l-7 -217h103c184 0 281 -93 281 -224c0 -152 -115 -246 -270 -246c-110 0 -200 40 -263 111l57 63c50 -54 124 -87 205 -87c109 0 173 62 173 152c0 84 -60 147 -203 147h-170l12 388h423zM501 1095v-217h128
v-87h-128v-157h-95v157h-365v69l274 538h104l-266 -520h253v217h95z" />
    <glyph glyph-name="uni2159" unicode="&#x2159;" horiz-adv-x="1588" 
d="M1271 1400l-883 -1400h-115l883 1400h115zM1359 765l-194 -292c26 11 57 17 91 17c158 0 266 -108 266 -247c0 -145 -118 -252 -279 -252c-160 0 -280 107 -280 250c0 59 21 112 56 167l226 357h114zM1243 410c-105 0 -181 -71 -181 -168c0 -96 76 -167 181 -167
c104 0 180 70 180 167s-76 168 -180 168zM378 1407v-773h-95v641l-232 -95v94z" />
    <glyph glyph-name="uni215A" unicode="&#x215a;" horiz-adv-x="1711" 
d="M1395 1400l-883 -1400h-115l883 1400h115zM1482 765l-194 -292c26 11 57 17 91 17c158 0 266 -108 266 -247c0 -145 -118 -252 -279 -252c-160 0 -280 107 -280 250c0 59 21 112 56 167l226 357h114zM1366 410c-105 0 -181 -71 -181 -168c0 -96 76 -167 181 -167
c104 0 180 70 180 167s-76 168 -180 168zM563 1399v-87h-341l-7 -217h103c184 0 281 -93 281 -224c0 -152 -115 -246 -270 -246c-110 0 -200 40 -263 111l57 63c50 -54 124 -87 205 -87c109 0 173 62 173 152c0 84 -60 147 -203 147h-170l12 388h423z" />
    <glyph glyph-name="oneeighth" unicode="&#x215b;" horiz-adv-x="1710" 
d="M1271 1400l-883 -1400h-115l883 1400h115zM1334 774c148 0 270 -75 270 -207c0 -95 -62 -152 -141 -180c89 -27 160 -85 160 -184c0 -137 -131 -212 -289 -212c-160 0 -290 75 -290 212c0 99 71 157 160 184c-79 28 -141 85 -141 180c0 132 122 207 271 207zM1334 349
c-103 0 -188 -48 -188 -137c0 -92 85 -140 188 -140c102 0 187 48 187 140c0 89 -85 137 -187 137zM1334 691c-93 0 -170 -46 -170 -132c0 -88 77 -133 170 -133s170 45 170 133c0 86 -77 132 -170 132zM378 1407v-773h-95v641l-232 -95v94z" />
    <glyph glyph-name="threeeighths" unicode="&#x215c;" horiz-adv-x="1805" 
d="M1367 1400l-883 -1400h-115l883 1400h115zM1429 774c148 0 270 -75 270 -207c0 -95 -62 -152 -141 -180c89 -27 160 -85 160 -184c0 -137 -131 -212 -289 -212c-160 0 -290 75 -290 212c0 99 71 157 160 184c-79 28 -141 85 -141 180c0 132 122 207 271 207zM1429 349
c-103 0 -188 -48 -188 -137c0 -92 85 -140 188 -140c102 0 187 48 187 140c0 89 -85 137 -187 137zM1429 691c-93 0 -170 -46 -170 -132c0 -88 77 -133 170 -133s170 45 170 133c0 86 -77 132 -170 132zM293 1408c154 0 261 -85 261 -207c0 -91 -53 -153 -133 -181
c90 -27 149 -92 149 -181c0 -145 -132 -214 -271 -214c-106 0 -190 37 -248 98l55 63c48 -47 113 -75 189 -75c94 0 177 43 177 136c0 83 -82 131 -181 131h-103v84h103c93 0 165 46 165 132c0 77 -69 128 -167 128c-79 0 -139 -37 -177 -84l-58 60c51 63 128 110 239 110z
" />
    <glyph glyph-name="fiveeighths" unicode="&#x215d;" horiz-adv-x="1833" 
d="M1395 1400l-883 -1400h-115l883 1400h115zM1457 774c148 0 270 -75 270 -207c0 -95 -62 -152 -141 -180c89 -27 160 -85 160 -184c0 -137 -131 -212 -289 -212c-160 0 -290 75 -290 212c0 99 71 157 160 184c-79 28 -141 85 -141 180c0 132 122 207 271 207zM1457 349
c-103 0 -188 -48 -188 -137c0 -92 85 -140 188 -140c102 0 187 48 187 140c0 89 -85 137 -187 137zM1457 691c-93 0 -170 -46 -170 -132c0 -88 77 -133 170 -133s170 45 170 133c0 86 -77 132 -170 132zM563 1399v-87h-341l-7 -217h103c184 0 281 -93 281 -224
c0 -152 -115 -246 -270 -246c-110 0 -200 40 -263 111l57 63c50 -54 124 -87 205 -87c109 0 173 62 173 152c0 84 -60 147 -203 147h-170l12 388h423z" />
    <glyph glyph-name="seveneighths" unicode="&#x215e;" horiz-adv-x="1678" 
d="M1239 1400l-883 -1400h-115l883 1400h115zM1301 774c148 0 270 -75 270 -207c0 -95 -62 -152 -141 -180c89 -27 160 -85 160 -184c0 -137 -131 -212 -289 -212c-160 0 -290 75 -290 212c0 99 71 157 160 184c-79 28 -141 85 -141 180c0 132 122 207 271 207zM1301 349
c-103 0 -188 -48 -188 -137c0 -92 85 -140 188 -140c102 0 187 48 187 140c0 89 -85 137 -187 137zM1301 691c-93 0 -170 -46 -170 -132c0 -88 77 -133 170 -133s170 45 170 133c0 86 -77 132 -170 132zM594 1399v-74l-344 -691h-111l343 676h-421v89h533z" />
    <glyph glyph-name="uni215F" unicode="&#x215f;" horiz-adv-x="983" 
d="M1271 1400l-883 -1400h-115l883 1400h115zM378 1407v-773h-95v641l-232 -95v94z" />
    <glyph glyph-name="uni2189" unicode="&#x2189;" horiz-adv-x="1876" 
d="M1507 1400l-883 -1400h-115l883 1400h115zM1512 774c154 0 261 -85 261 -207c0 -91 -53 -153 -133 -181c90 -27 149 -92 149 -181c0 -145 -132 -214 -271 -214c-106 0 -190 37 -248 98l55 63c48 -47 113 -75 189 -75c94 0 177 43 177 136c0 83 -82 131 -181 131h-103v84
h103c93 0 165 46 165 132c0 77 -69 128 -167 128c-79 0 -139 -37 -177 -84l-58 60c51 63 128 110 239 110zM424 1408c178 0 322 -147 322 -392c0 -244 -144 -391 -322 -391s-322 147 -322 391c0 245 144 392 322 392zM424 1317c-123 0 -224 -108 -224 -301
c0 -192 101 -300 224 -300c124 0 224 108 224 300c0 193 -100 301 -224 301z" />
    <glyph glyph-name="arrowleft" unicode="&#x2190;" horiz-adv-x="2000" 
d="M1762 595h-1192c-44 0 -79 0 -148 4c51 -42 103 -93 144 -134l356 -356l-73 -73l-610 610l610 611l73 -73l-356 -356c-41 -41 -93 -93 -144 -134c69 4 104 4 148 4h1192v-103z" />
    <glyph glyph-name="arrowup" unicode="&#x2191;" horiz-adv-x="2000" 
d="M949 -58v1192c0 45 0 79 4 148c-42 -51 -93 -103 -134 -144l-356 -356l-73 73l610 610l611 -610l-73 -73l-356 356c-41 41 -92 93 -134 144c4 -69 4 -103 4 -148v-1192h-103z" />
    <glyph glyph-name="arrowright" unicode="&#x2192;" horiz-adv-x="2000" 
d="M239 698h1191c45 0 80 0 149 -5c-52 42 -103 94 -144 134l-357 356l73 73l611 -610l-611 -611l-73 73l357 357c40 40 92 92 144 133c-69 -4 -104 -4 -149 -4h-1191v104z" />
    <glyph glyph-name="arrowdown" unicode="&#x2193;" horiz-adv-x="2000" 
d="M1052 1463v-1192c0 -44 0 -79 -4 -148c41 51 92 103 133 144l356 357l74 -74l-611 -610l-611 610l74 74l356 -357c41 -41 92 -93 133 -144c-4 69 -4 104 -4 148v1192h104z" />
    <glyph glyph-name="uni2196" unicode="&#x2196;" horiz-adv-x="2000" 
d="M1483 78l-842 843c-31 32 -56 56 -102 107c7 -65 7 -138 7 -196v-504h-103v864h864v-104h-504c-58 0 -131 1 -197 8c52 -46 76 -71 108 -102l843 -843z" />
    <glyph glyph-name="uni2197" unicode="&#x2197;" horiz-adv-x="2000" 
d="M425 144l843 843c31 32 56 56 107 102c-65 -7 -138 -8 -196 -8h-504v104l864 -1v-863h-104v504c0 58 1 131 8 196c-46 -51 -71 -76 -102 -107l-843 -843z" />
    <glyph glyph-name="uni2198" unicode="&#x2198;" horiz-adv-x="2000" 
d="M499 1221l842 -843c31 -32 56 -56 102 -107c-7 65 -7 139 -7 197v503h103v-863l-864 -1v104h504c58 0 131 0 197 -8c-52 47 -77 71 -108 102l-843 843z" />
    <glyph glyph-name="uni2199" unicode="&#x2199;" horiz-adv-x="2000" 
d="M1558 1140l-843 -843c-32 -31 -56 -56 -107 -101c65 6 138 7 196 7h504v-104l-864 1v863h104v-504c0 -58 -1 -130 -8 -196c46 52 71 76 102 107l843 843z" />
    <glyph glyph-name="partialdiff" unicode="&#x2202;" horiz-adv-x="1181" 
d="M278 1357l51 92c463 -200 665 -539 724 -871c5 -30 10 -65 10 -101c0 -280 -211 -492 -490 -492c-278 0 -488 206 -488 478c0 274 203 480 469 480c140 0 263 -66 341 -175c-89 236 -281 436 -617 589zM573 836c-211 0 -371 -156 -371 -373c0 -215 160 -371 371 -371
c212 0 373 156 373 371c0 217 -161 373 -373 373z" />
    <glyph glyph-name="Delta" unicode="&#x2206;" horiz-adv-x="1419" 
d="M784 1402l551 -1307v-95h-1251v95l551 1307h149zM710 1277l-489 -1161h976z" />
    <glyph glyph-name="product" unicode="&#x220f;" horiz-adv-x="1455" 
d="M1245 1400v-1665h-122v1549h-792v-1549h-122v1665h1036z" />
    <glyph glyph-name="summation" unicode="&#x2211;" horiz-adv-x="1317" 
d="M1189 1400v-116h-882l584 -671v-68l-587 -694h888v-116h-1066v95l636 746l-634 729v95h1061z" />
    <glyph glyph-name="minus" unicode="&#x2212;" horiz-adv-x="1200" 
d="M1026 578v-103h-852v103h852z" />
    <glyph glyph-name="uni2219" unicode="&#x2219;" horiz-adv-x="1200" 
d="M600 718c104 0 191 -85 191 -191c0 -105 -87 -191 -191 -191c-107 0 -191 86 -191 191c0 106 84 191 191 191z" />
    <glyph glyph-name="radical" unicode="&#x221a;" horiz-adv-x="1222" 
d="M1182 1440l-587 -1705h-151l-410 1000h135l350 -856l538 1561h125z" />
    <glyph glyph-name="infinity" unicode="&#x221e;" horiz-adv-x="1608" 
d="M55 520c0 223 158 362 342 362c154 0 257 -118 407 -285c150 168 253 285 407 285c184 0 342 -139 342 -362s-158 -362 -342 -362c-154 0 -257 117 -407 285c-150 -168 -253 -285 -407 -285c-184 0 -342 139 -342 362zM1445 520c0 164 -106 258 -234 258
c-107 0 -184 -88 -337 -258h1l-1 -1c153 -169 230 -257 337 -257c128 0 234 94 234 258zM164 520c0 -164 105 -258 233 -258c108 0 184 88 336 257v1c-152 170 -228 258 -336 258c-128 0 -233 -94 -233 -258z" />
    <glyph glyph-name="integral" unicode="&#x222b;" horiz-adv-x="680" 
d="M661 1403l-31 -103c-23 5 -47 8 -72 8c-136 0 -190 -84 -190 -230v-1021c0 -197 -83 -337 -296 -337c-39 0 -76 4 -110 12l30 103c24 -5 47 -8 73 -8c135 0 190 84 190 230v1021c0 197 83 337 296 337c39 0 76 -4 110 -12z" />
    <glyph glyph-name="congruent" unicode="&#x2245;" horiz-adv-x="1200" 
d="M1026 403v-104h-852v104h852zM1026 754v-103h-852v103h852zM973 1149l63 -72c-69 -77 -143 -115 -254 -115c-181 0 -219 91 -373 91c-75 0 -126 -30 -184 -89l-63 72c69 77 143 115 254 115c182 0 219 -91 373 -91c75 0 126 30 184 89z" />
    <glyph glyph-name="approxequal" unicode="&#x2248;" horiz-adv-x="1200" 
d="M973 795l63 -72c-69 -77 -143 -115 -254 -115c-181 0 -219 91 -373 91c-75 0 -126 -30 -184 -89l-63 72c69 77 143 115 254 115c182 0 219 -91 373 -91c75 0 126 30 184 89zM973 447l63 -72c-69 -77 -143 -115 -254 -115c-181 0 -219 91 -373 91c-75 0 -126 -30 -184 -89
l-63 72c69 77 143 115 254 115c182 0 219 -91 373 -91c75 0 126 30 184 89z" />
    <glyph glyph-name="uni2259" unicode="&#x2259;" horiz-adv-x="1200" 
d="M1026 403v-104h-852v104h852zM1026 754v-103h-852v103h852zM923 938h-123l-200 205l-200 -205h-123l248 282h150z" />
    <glyph glyph-name="notequal" unicode="&#x2260;" horiz-adv-x="1200" 
d="M1026 403v-104h-483l-127 -261h-109l127 261h-260v104h311l121 248h-432v103h482l128 261h109l-128 -261h261v-103h-311l-121 -248h432z" />
    <glyph glyph-name="lessequal" unicode="&#x2264;" horiz-adv-x="1200" 
d="M986 1083v-121l-651 -278l651 -277v-121l-770 342v113zM216 72v104h770v-104h-770z" />
    <glyph glyph-name="greaterequal" unicode="&#x2265;" horiz-adv-x="1200" 
d="M215 962v121l770 -342v-113l-770 -342v121l651 277zM985 176v-104h-770v104h770z" />
    <glyph glyph-name="dotmath" unicode="&#x22c5;" horiz-adv-x="1200" 
d="M600 623c51 0 95 -44 95 -96c0 -51 -44 -96 -95 -96s-96 45 -96 96c0 52 45 96 96 96z" />
    <glyph glyph-name="uni2300" unicode="&#x2205;" horiz-adv-x="1414" 
d="M1131 1018l73 -74l-131 -131c64 -81 103 -183 103 -293c0 -258 -211 -469 -469 -469c-111 0 -213 38 -293 103l-132 -132l-73 74l131 131c-64 80 -103 182 -103 293c0 258 210 470 470 470c110 0 212 -39 292 -104zM340 520c0 -84 28 -162 76 -224l515 514
c-62 48 -140 77 -224 77c-203 0 -367 -165 -367 -367zM707 154c201 0 366 164 366 366c0 84 -29 161 -76 223l-514 -514c62 -47 140 -75 224 -75z" />
    <glyph glyph-name="uni2300" unicode="&#x2300;" horiz-adv-x="1414" 
d="M1131 1018l73 -74l-131 -131c64 -81 103 -183 103 -293c0 -258 -211 -469 -469 -469c-111 0 -213 38 -293 103l-132 -132l-73 74l131 131c-64 80 -103 182 -103 293c0 258 210 470 470 470c110 0 212 -39 292 -104zM340 520c0 -84 28 -162 76 -224l515 514
c-62 48 -140 77 -224 77c-203 0 -367 -165 -367 -367zM707 154c201 0 366 164 366 366c0 84 -29 161 -76 223l-514 -514c62 -47 140 -75 224 -75z" />
    <glyph glyph-name="uni2460" unicode="&#x2460;" horiz-adv-x="2050" 
d="M1025 1575c486 0 878 -392 878 -874c0 -483 -392 -876 -878 -876c-485 0 -878 393 -878 876c0 482 393 874 878 874zM1025 1469c-424 0 -768 -343 -768 -768s344 -770 768 -770s769 345 769 770s-345 768 -769 768zM1129 1141v-847h-101v707l-279 -114v101z" />
    <glyph glyph-name="uni2461" unicode="&#x2461;" horiz-adv-x="2050" 
d="M1025 1575c486 0 878 -392 878 -874c0 -483 -392 -876 -878 -876c-485 0 -878 393 -878 876c0 482 393 874 878 874zM1025 1469c-424 0 -768 -343 -768 -768s344 -770 768 -770s769 345 769 770s-345 768 -769 768zM815 938l-68 63c45 65 127 141 271 141
c174 0 275 -110 275 -257c0 -104 -57 -179 -124 -246l-251 -251h403v-94h-549v79l326 324c52 52 89 110 89 181c0 93 -64 167 -177 167c-97 0 -155 -51 -195 -107z" />
    <glyph glyph-name="uni2462" unicode="&#x2462;" horiz-adv-x="2050" 
d="M1025 1575c486 0 878 -392 878 -874c0 -483 -392 -876 -878 -876c-485 0 -878 393 -878 876c0 482 393 874 878 874zM1025 1469c-424 0 -768 -343 -768 -768s344 -770 768 -770s769 345 769 770s-345 768 -769 768zM1009 1142c177 0 298 -93 298 -226
c0 -103 -62 -172 -156 -200c104 -29 174 -99 174 -197c0 -160 -150 -236 -309 -236c-115 0 -213 41 -276 107l59 67c54 -52 130 -84 213 -84c110 0 208 49 208 152c0 93 -93 148 -208 148h-118v89h118c107 0 190 50 190 146c0 85 -81 143 -197 143c-88 0 -157 -42 -199 -93
l-63 65c56 68 147 119 266 119z" />
    <glyph glyph-name="uni2463" unicode="&#x2463;" horiz-adv-x="2050" 
d="M1025 1575c486 0 878 -392 878 -874c0 -483 -392 -876 -878 -876c-485 0 -878 393 -878 876c0 482 393 874 878 874zM1025 1469c-424 0 -768 -343 -768 -768s344 -770 768 -770s769 345 769 770s-345 768 -769 768zM1191 798v-236h144v-95h-144v-173h-101v173h-408v73
l305 592h112l-295 -570h286v236h101z" />
    <glyph glyph-name="uni2464" unicode="&#x2464;" horiz-adv-x="2050" 
d="M1025 1575c486 0 878 -392 878 -874c0 -483 -392 -876 -878 -876c-485 0 -878 393 -878 876c0 482 393 874 878 874zM1025 1469c-424 0 -768 -343 -768 -768s344 -770 768 -770s769 345 769 770s-345 768 -769 768zM1287 1133v-94h-378l-10 -241h116
c206 0 313 -98 313 -251c0 -161 -126 -264 -300 -264c-121 0 -221 45 -290 122l55 73c54 -61 140 -101 235 -101c122 0 194 67 194 163c0 104 -69 168 -234 168h-181l12 425h468z" />
    <glyph glyph-name="uni2465" unicode="&#x2465;" horiz-adv-x="2050" 
d="M1025 1575c486 0 878 -392 878 -874c0 -483 -392 -876 -878 -876c-485 0 -878 393 -878 876c0 482 393 874 878 874zM1025 1469c-424 0 -768 -343 -768 -768s344 -770 768 -770s769 345 769 770s-345 768 -769 768zM1145 1133l-212 -321c31 12 65 19 101 19
c173 0 293 -118 293 -271c0 -159 -130 -277 -306 -277c-177 0 -309 118 -309 275c0 63 22 122 60 181l251 394h122zM1021 744c-117 0 -203 -79 -203 -185s86 -185 203 -185c116 0 201 79 201 185s-85 185 -201 185z" />
    <glyph glyph-name="uni2466" unicode="&#x2466;" horiz-adv-x="2050" 
d="M1025 1575c486 0 878 -392 878 -874c0 -483 -392 -876 -878 -876c-485 0 -878 393 -878 876c0 482 393 874 878 874zM1025 1469c-424 0 -768 -343 -768 -768s344 -770 768 -770s769 345 769 770s-345 768 -769 768zM1349 1133v-80l-382 -759h-120l382 744h-470v95h590z
" />
    <glyph glyph-name="uni2467" unicode="&#x2467;" horiz-adv-x="2050" 
d="M1025 1575c486 0 878 -392 878 -874c0 -483 -392 -876 -878 -876c-485 0 -878 393 -878 876c0 482 393 874 878 874zM1025 1469c-424 0 -768 -343 -768 -768s344 -770 768 -770s769 345 769 770s-345 768 -769 768zM1025 1142c164 0 298 -81 298 -225
c0 -104 -70 -169 -159 -199c100 -30 180 -94 180 -202c0 -149 -144 -233 -319 -233s-319 84 -319 233c0 108 80 173 180 202c-89 30 -159 95 -159 199c0 144 135 225 298 225zM1025 678c-114 0 -209 -53 -209 -152c0 -101 95 -153 209 -153s209 52 209 153
c0 99 -95 152 -209 152zM1025 1052c-105 0 -190 -49 -190 -144c0 -97 85 -148 190 -148c106 0 191 51 191 148c0 95 -86 144 -191 144z" />
    <glyph glyph-name="uni2468" unicode="&#x2468;" horiz-adv-x="2050" 
d="M1025 1575c486 0 878 -392 878 -874c0 -483 -392 -876 -878 -876c-485 0 -878 393 -878 876c0 482 393 874 878 874zM1025 1469c-424 0 -768 -343 -768 -768s344 -770 768 -770s769 345 769 770s-345 768 -769 768zM914 294l211 319c-30 -12 -64 -18 -100 -18
c-173 0 -294 118 -294 271c0 159 131 276 308 276c176 0 307 -116 307 -273c0 -64 -21 -123 -59 -182l-251 -393h-122zM1039 683c116 0 202 78 202 184s-86 184 -202 184c-117 0 -202 -78 -202 -184s85 -184 202 -184z" />
    <glyph glyph-name="uni24EA" unicode="&#x24ea;" horiz-adv-x="2050" 
d="M1025 1575c486 0 878 -392 878 -874c0 -483 -392 -876 -878 -876c-485 0 -878 393 -878 876c0 482 393 874 878 874zM1025 1469c-424 0 -768 -343 -768 -768s344 -770 768 -770s769 345 769 770s-345 768 -769 768zM1025 1142c202 0 365 -161 365 -429
s-163 -430 -365 -430c-201 0 -364 162 -364 430s163 429 364 429zM1025 1045c-143 0 -259 -120 -259 -332s116 -332 259 -332c144 0 260 120 260 332s-116 332 -260 332z" />
    <glyph glyph-name="uni24FF" unicode="&#x24ff;" horiz-adv-x="2050" 
d="M1025 1142c-201 0 -364 -161 -364 -429s163 -430 364 -430c202 0 365 162 365 430s-163 429 -365 429zM1025 1045c144 0 260 -120 260 -332s-116 -332 -260 -332c-143 0 -259 120 -259 332s116 332 259 332zM1025 1564c479 0 867 -387 867 -863
c0 -477 -388 -865 -867 -865s-867 388 -867 865c0 476 388 863 867 863z" />
    <glyph glyph-name="filledbox" unicode="&#x25a0;" horiz-adv-x="1800" 
d="M200 1400h1400v-1400h-1400v1400z" />
    <glyph glyph-name="H22073" unicode="&#x25a1;" horiz-adv-x="1800" 
d="M200 1400h1400v-1400h-1400v1400zM306 1294v-1188h1188v1188h-1188z" />
    <glyph glyph-name="uni25AE" unicode="&#x258c;" horiz-adv-x="1800" 
d="M200 1400h700v-1400h-700v1400z" />
    <glyph glyph-name="uni25AE" unicode="&#x25ae;" horiz-adv-x="1800" 
d="M200 1400h700v-1400h-700v1400z" />
    <glyph glyph-name="triagup" unicode="&#x25b2;" horiz-adv-x="1800" 
d="M900 1420l820 -1420h-1640z" />
    <glyph glyph-name="uni25B3" unicode="&#x25b3;" horiz-adv-x="1800" 
d="M900 1420l820 -1420h-1640zM900 1209l-637 -1103h1274z" />
    <glyph glyph-name="uni25B4" unicode="&#x25b4;" horiz-adv-x="1200" 
d="M601 914l310 -535h-621z" />
    <glyph glyph-name="uni25B8" unicode="&#x25b8;" horiz-adv-x="1200" 
d="M929 646l-536 -311v621z" />
    <glyph glyph-name="triagdn" unicode="&#x25bc;" horiz-adv-x="1800" 
d="M900 -20l-820 1420h1640z" />
    <glyph glyph-name="uni25BD" unicode="&#x25bd;" horiz-adv-x="1800" 
d="M900 -20l-820 1420h1640zM900 191l637 1103h-1274z" />
    <glyph glyph-name="uni25BE" unicode="&#x25be;" horiz-adv-x="1200" 
d="M599 378l-310 536h621z" />
    <glyph glyph-name="uni25C2" unicode="&#x25c2;" horiz-adv-x="1200" 
d="M271 646l536 310v-621z" />
    <glyph glyph-name="uni25C6" unicode="&#x25c6;" horiz-adv-x="1800" 
d="M900 1438l738 -738l-738 -738l-738 738z" />
    <glyph glyph-name="uni25C7" unicode="&#x25c7;" horiz-adv-x="1800" 
d="M900 1438l738 -738l-738 -738l-738 738zM900 1289l-589 -589l589 -589l589 589z" />
    <glyph glyph-name="lozenge" unicode="&#x25ca;" horiz-adv-x="1551" 
d="M1446 700l-605 -700h-132l-604 700l604 700h133zM1297 700l-524 596l-519 -595l524 -597z" />
    <glyph glyph-name="circle" unicode="&#x25cb;" horiz-adv-x="1800" 
d="M900 -39c-409 0 -739 331 -739 739s330 739 739 739c408 0 739 -331 739 -739s-331 -739 -739 -739zM900 67c350 0 633 283 633 633s-283 633 -633 633c-351 0 -633 -283 -633 -633s282 -633 633 -633z" />
    <glyph glyph-name="H18533" unicode="&#x25cf;" horiz-adv-x="1800" 
d="M900 -39c-409 0 -739 331 -739 739s330 739 739 739c408 0 739 -331 739 -739s-331 -739 -739 -739z" />
    <glyph glyph-name="uni25D0" unicode="&#x25d0;" horiz-adv-x="1800" 
d="M900 -39c-409 0 -739 331 -739 739s330 739 739 739c408 0 739 -331 739 -739s-331 -739 -739 -739zM900 1333v-1266c350 0 633 283 633 633s-283 633 -633 633z" />
    <glyph glyph-name="uni25D6" unicode="&#x25d6;" horiz-adv-x="1800" 
d="M900 1439v-1478c-409 0 -739 331 -739 739s330 739 739 739z" />
    <glyph glyph-name="uni25E7" unicode="&#x25e7;" horiz-adv-x="1800" 
d="M200 1400h1400v-1400h-1400v1400zM900 1294v-1188h594v1188h-594z" />
    <glyph glyph-name="uni2610" unicode="&#x2610;" horiz-adv-x="2200" 
d="M253 1547h1694v-1694h-1694v1694zM341 1459v-1518h1518v1518h-1518z" />
    <glyph glyph-name="uni2611" unicode="&#x2611;" horiz-adv-x="2200" 
d="M253 1547h1694v-1694h-1694v1694zM341 1459v-1518h1518v1518h-1518zM1600 1210l72 -52l-707 -998l-405 516l68 56l333 -429z" />
    <glyph glyph-name="uni2612" unicode="&#x2612;" horiz-adv-x="2200" 
d="M1947 1547v-1694h-1694v1694h1694zM1859 1459h-1518v-1518h1518v1518zM608 267l429 430l-432 432l62 63l433 -433l433 433l62 -63l-433 -432l430 -430l-63 -62l-429 429l-429 -429z" />
    <glyph glyph-name="heart" unicode="&#x2665;" horiz-adv-x="1800" 
d="M1168 1173c157 0 272 -121 272 -278c0 -234 -251 -504 -540 -707c-289 203 -540 473 -540 707c0 157 115 278 272 278c141 0 268 -97 268 -211c0 114 127 211 268 211z" />
    <glyph glyph-name="uni2713" unicode="&#x2713;" horiz-adv-x="2200" 
d="M1642 1269l84 -61l-811 -1095l-440 480l76 70l355 -388z" />
    <glyph glyph-name="uni2715" unicode="&#x2573;" horiz-adv-x="2096" 
d="M1128 700l969 -968l-80 -81l-969 969l-969 -969l-80 81l969 968l-969 968l80 81l969 -968l969 968l80 -81z" />
    <glyph glyph-name="uni2715" unicode="&#x2715;" horiz-adv-x="2096" 
d="M1128 700l969 -968l-80 -81l-969 969l-969 -969l-80 81l969 968l-969 968l80 81l969 -968l969 968l80 -81z" />
    <glyph glyph-name="uni2717" unicode="&#x2717;" horiz-adv-x="2200" 
d="M1173 700l472 -471l-73 -74l-472 472l-471 -472l-73 74l471 471l-471 471l73 74l471 -472l472 472l73 -74z" />
    <glyph glyph-name="uni278A" unicode="&#x2776;" horiz-adv-x="2050" 
d="M1129 1141l-380 -153v-101l279 114v-707h101v847zM1025 1564c479 0 867 -387 867 -863c0 -477 -388 -865 -867 -865s-867 388 -867 865c0 476 388 863 867 863z" />
    <glyph glyph-name="uni278A" unicode="&#x278a;" horiz-adv-x="2050" 
d="M1129 1141l-380 -153v-101l279 114v-707h101v847zM1025 1564c479 0 867 -387 867 -863c0 -477 -388 -865 -867 -865s-867 388 -867 865c0 476 388 863 867 863z" />
    <glyph glyph-name="uni278B" unicode="&#x2777;" horiz-adv-x="2050" 
d="M747 1001l68 -63c40 56 98 107 195 107c113 0 177 -74 177 -167c0 -71 -37 -129 -89 -181l-326 -324v-79h549v94h-403l251 251c67 67 124 142 124 246c0 147 -101 257 -275 257c-144 0 -226 -76 -271 -141zM1025 1564c479 0 867 -387 867 -863
c0 -477 -388 -865 -867 -865s-867 388 -867 865c0 476 388 863 867 863z" />
    <glyph glyph-name="uni278B" unicode="&#x278b;" horiz-adv-x="2050" 
d="M747 1001l68 -63c40 56 98 107 195 107c113 0 177 -74 177 -167c0 -71 -37 -129 -89 -181l-326 -324v-79h549v94h-403l251 251c67 67 124 142 124 246c0 147 -101 257 -275 257c-144 0 -226 -76 -271 -141zM1025 1564c479 0 867 -387 867 -863
c0 -477 -388 -865 -867 -865s-867 388 -867 865c0 476 388 863 867 863z" />
    <glyph glyph-name="uni278C" unicode="&#x2778;" horiz-adv-x="2050" 
d="M1025 1564c479 0 867 -387 867 -863c0 -477 -388 -865 -867 -865s-867 388 -867 865c0 476 388 863 867 863zM1009 1142c-119 0 -210 -51 -266 -119l63 -65c42 51 111 93 199 93c116 0 197 -58 197 -143c0 -96 -83 -146 -190 -146h-118v-89h118c115 0 208 -55 208 -148
c0 -103 -98 -152 -208 -152c-83 0 -159 32 -213 84l-59 -67c63 -66 161 -107 276 -107c159 0 309 76 309 236c0 98 -70 168 -174 197c94 28 156 97 156 200c0 133 -121 226 -298 226z" />
    <glyph glyph-name="uni278C" unicode="&#x278c;" horiz-adv-x="2050" 
d="M1025 1564c479 0 867 -387 867 -863c0 -477 -388 -865 -867 -865s-867 388 -867 865c0 476 388 863 867 863zM1009 1142c-119 0 -210 -51 -266 -119l63 -65c42 51 111 93 199 93c116 0 197 -58 197 -143c0 -96 -83 -146 -190 -146h-118v-89h118c115 0 208 -55 208 -148
c0 -103 -98 -152 -208 -152c-83 0 -159 32 -213 84l-59 -67c63 -66 161 -107 276 -107c159 0 309 76 309 236c0 98 -70 168 -174 197c94 28 156 97 156 200c0 133 -121 226 -298 226z" />
    <glyph glyph-name="uni278D" unicode="&#x2779;" horiz-adv-x="2050" 
d="M1025 1564c479 0 867 -387 867 -863c0 -477 -388 -865 -867 -865s-867 388 -867 865c0 476 388 863 867 863zM1191 798h-101v-236h-286l295 570h-112l-305 -592v-73h408v-173h101v173h144v95h-144v236z" />
    <glyph glyph-name="uni278D" unicode="&#x278d;" horiz-adv-x="2050" 
d="M1025 1564c479 0 867 -387 867 -863c0 -477 -388 -865 -867 -865s-867 388 -867 865c0 476 388 863 867 863zM1191 798h-101v-236h-286l295 570h-112l-305 -592v-73h408v-173h101v173h144v95h-144v236z" />
    <glyph glyph-name="uni278E" unicode="&#x277a;" horiz-adv-x="2050" 
d="M1287 1133h-468l-12 -425h181c165 0 234 -64 234 -168c0 -96 -72 -163 -194 -163c-95 0 -181 40 -235 101l-55 -73c69 -77 169 -122 290 -122c174 0 300 103 300 264c0 153 -107 251 -313 251h-116l10 241h378v94zM1025 1564c479 0 867 -387 867 -863
c0 -477 -388 -865 -867 -865s-867 388 -867 865c0 476 388 863 867 863z" />
    <glyph glyph-name="uni278E" unicode="&#x278e;" horiz-adv-x="2050" 
d="M1287 1133h-468l-12 -425h181c165 0 234 -64 234 -168c0 -96 -72 -163 -194 -163c-95 0 -181 40 -235 101l-55 -73c69 -77 169 -122 290 -122c174 0 300 103 300 264c0 153 -107 251 -313 251h-116l10 241h378v94zM1025 1564c479 0 867 -387 867 -863
c0 -477 -388 -865 -867 -865s-867 388 -867 865c0 476 388 863 867 863z" />
    <glyph glyph-name="uni278F" unicode="&#x277b;" horiz-adv-x="2050" 
d="M1025 1564c479 0 867 -387 867 -863c0 -477 -388 -865 -867 -865s-867 388 -867 865c0 476 388 863 867 863zM1145 1133h-122l-251 -394c-38 -59 -60 -118 -60 -181c0 -157 132 -275 309 -275c176 0 306 118 306 277c0 153 -120 271 -293 271c-36 0 -70 -7 -101 -19z
M1021 744c116 0 201 -79 201 -185s-85 -185 -201 -185c-117 0 -203 79 -203 185s86 185 203 185z" />
    <glyph glyph-name="uni278F" unicode="&#x278f;" horiz-adv-x="2050" 
d="M1025 1564c479 0 867 -387 867 -863c0 -477 -388 -865 -867 -865s-867 388 -867 865c0 476 388 863 867 863zM1145 1133h-122l-251 -394c-38 -59 -60 -118 -60 -181c0 -157 132 -275 309 -275c176 0 306 118 306 277c0 153 -120 271 -293 271c-36 0 -70 -7 -101 -19z
M1021 744c116 0 201 -79 201 -185s-85 -185 -201 -185c-117 0 -203 79 -203 185s86 185 203 185z" />
    <glyph glyph-name="uni2790" unicode="&#x277c;" horiz-adv-x="2050" 
d="M1349 1133h-590v-95h470l-382 -744h120l382 759v80zM1025 1564c479 0 867 -387 867 -863c0 -477 -388 -865 -867 -865s-867 388 -867 865c0 476 388 863 867 863z" />
    <glyph glyph-name="uni2790" unicode="&#x2790;" horiz-adv-x="2050" 
d="M1349 1133h-590v-95h470l-382 -744h120l382 759v80zM1025 1564c479 0 867 -387 867 -863c0 -477 -388 -865 -867 -865s-867 388 -867 865c0 476 388 863 867 863z" />
    <glyph glyph-name="uni2791" unicode="&#x277d;" horiz-adv-x="2050" 
d="M1025 1564c479 0 867 -387 867 -863c0 -477 -388 -865 -867 -865s-867 388 -867 865c0 476 388 863 867 863zM1025 1141c-163 0 -297 -81 -297 -225c0 -104 70 -168 159 -198c-100 -29 -180 -94 -180 -202c0 -148 144 -232 318 -232c175 0 319 84 319 232
c0 108 -80 173 -181 202c90 30 160 94 160 198c0 144 -135 225 -298 225zM1025 678c114 0 209 -53 209 -152c0 -100 -95 -152 -209 -152c-113 0 -208 52 -208 152c0 99 95 152 208 152zM1025 1051c105 0 191 -49 191 -144c0 -96 -86 -147 -191 -147c-104 0 -190 51 -190 147
c0 95 86 144 190 144z" />
    <glyph glyph-name="uni2791" unicode="&#x2791;" horiz-adv-x="2050" 
d="M1025 1564c479 0 867 -387 867 -863c0 -477 -388 -865 -867 -865s-867 388 -867 865c0 476 388 863 867 863zM1025 1141c-163 0 -297 -81 -297 -225c0 -104 70 -168 159 -198c-100 -29 -180 -94 -180 -202c0 -148 144 -232 318 -232c175 0 319 84 319 232
c0 108 -80 173 -181 202c90 30 160 94 160 198c0 144 -135 225 -298 225zM1025 678c114 0 209 -53 209 -152c0 -100 -95 -152 -209 -152c-113 0 -208 52 -208 152c0 99 95 152 208 152zM1025 1051c105 0 191 -49 191 -144c0 -96 -86 -147 -191 -147c-104 0 -190 51 -190 147
c0 95 86 144 190 144z" />
    <glyph glyph-name="uni2792" unicode="&#x277e;" horiz-adv-x="2050" 
d="M1025 1564c479 0 867 -387 867 -863c0 -477 -388 -865 -867 -865s-867 388 -867 865c0 476 388 863 867 863zM914 294h122l251 393c38 59 59 118 59 182c0 157 -131 273 -307 273c-177 0 -308 -117 -308 -276c0 -153 121 -271 294 -271c36 0 70 6 101 18zM1039 683
c-117 0 -202 78 -202 184s85 184 202 184c116 0 202 -78 202 -184s-86 -184 -202 -184z" />
    <glyph glyph-name="uni2792" unicode="&#x2792;" horiz-adv-x="2050" 
d="M1025 1564c479 0 867 -387 867 -863c0 -477 -388 -865 -867 -865s-867 388 -867 865c0 476 388 863 867 863zM914 294h122l251 393c38 59 59 118 59 182c0 157 -131 273 -307 273c-177 0 -308 -117 -308 -276c0 -153 121 -271 294 -271c36 0 70 6 101 18zM1039 683
c-117 0 -202 78 -202 184s85 184 202 184c116 0 202 -78 202 -184s-86 -184 -202 -184z" />
    <glyph glyph-name="uni2B51" unicode="&#x2b51;" horiz-adv-x="1800" 
d="M1057 860h506l-409 -298l157 -483l-410 299l-409 -299l156 483l-411 298h508l156 482z" />
    <glyph glyph-name="uni2B52" unicode="&#x2b52;" horiz-adv-x="1800" 
d="M1057 860h506l-409 -298l157 -483l-410 299l-409 -299l156 483l-411 298h508l156 482zM1005 789l-104 322l-104 -322h-340l274 -200l-104 -323l274 200l274 -200l-105 323l274 200h-339z" />
    <glyph glyph-name="uni2E17" unicode="&#x2e17;" horiz-adv-x="938" 
d="M748 864v-100l-557 -203v100zM748 540v-100l-557 -203v101z" />
    <glyph glyph-name="uni2E38" unicode="&#x2e38;" horiz-adv-x="713" 
d="M309 1440h95v-442h204v-93h-204v-204h-95v204h-204v93h204v442z" />
    <glyph glyph-name="uniEA00" unicode="&#xea00;" horiz-adv-x="1800" 
d="M1057 860h506l-409 -298l157 -483l-410 299l-409 -299l156 483l-411 298h508l156 482zM1005 789l-104 322v-645l274 -200l-105 323l274 200h-339z" />
    <glyph glyph-name="uniEA01" unicode="&#xea01;" horiz-adv-x="1800" 
d="M901 378l-409 -299l156 483l-411 298h508l156 482v-964z" />
    <glyph glyph-name="uniFB00" unicode="&#xfb00;" horiz-adv-x="1721" 
d="M805 941v-104h-405v-837h-114v837h-231v104h231v162c0 207 87 352 311 352c104 0 189 -30 254 -70l-41 -95c-53 32 -128 58 -206 58c-146 0 -204 -91 -204 -245v-162h405zM1651 941v-104h-405v-837h-114v837h-231v104h231v162c0 207 87 352 311 352
c104 0 189 -30 254 -70l-41 -95c-53 32 -128 58 -206 58c-146 0 -204 -91 -204 -245v-162h405z" />
    <glyph glyph-name="fi" unicode="&#xfb01;" horiz-adv-x="1352" 
d="M805 941v-104h-405v-837h-114v837h-231v104h231v162c0 207 87 352 311 352c104 0 189 -30 254 -70l-41 -95c-53 32 -128 58 -206 58c-146 0 -204 -91 -204 -245v-162h405zM1171 941v-941h-114v941h114zM1114 1362c46 0 82 -37 82 -83s-36 -81 -82 -81s-81 35 -81 81
s35 83 81 83z" />
    <glyph glyph-name="fl" unicode="&#xfb02;" horiz-adv-x="1352" 
d="M805 941v-104h-405v-837h-114v837h-231v104h231v162c0 207 87 352 311 352c104 0 189 -30 254 -70l-41 -95c-53 32 -128 58 -206 58c-146 0 -204 -91 -204 -245v-162h405zM1171 1440v-1440h-114v1440h114z" />
    <glyph glyph-name="uniFB03" unicode="&#xfb03;" horiz-adv-x="2198" 
d="M805 941v-104h-405v-837h-114v837h-231v104h231v162c0 207 87 352 311 352c104 0 189 -30 254 -70l-41 -95c-53 32 -128 58 -206 58c-146 0 -204 -91 -204 -245v-162h405zM1651 941v-104h-405v-837h-114v837h-231v104h231v162c0 207 87 352 311 352
c104 0 189 -30 254 -70l-41 -95c-53 32 -128 58 -206 58c-146 0 -204 -91 -204 -245v-162h405zM2017 941v-941h-114v941h114zM1960 1362c46 0 82 -37 82 -83s-36 -81 -82 -81s-81 35 -81 81s35 83 81 83z" />
    <glyph glyph-name="uniFB04" unicode="&#xfb04;" horiz-adv-x="2198" 
d="M805 941v-104h-405v-837h-114v837h-231v104h231v162c0 207 87 352 311 352c104 0 189 -30 254 -70l-41 -95c-53 32 -128 58 -206 58c-146 0 -204 -91 -204 -245v-162h405zM1651 941v-104h-405v-837h-114v837h-231v104h231v162c0 207 87 352 311 352
c104 0 189 -30 254 -70l-41 -95c-53 32 -128 58 -206 58c-146 0 -204 -91 -204 -245v-162h405zM2017 1440v-1440h-114v1440h114z" />
    <glyph glyph-name="uniFB05" unicode="&#xfb05;" horiz-adv-x="1467" 
d="M1382 941v-104h-434v-513c0 -159 84 -232 209 -232c81 0 155 28 210 72l54 -85c-67 -56 -160 -94 -273 -94c-196 0 -314 109 -314 337v515h-214v104h214v105c0 198 -113 302 -273 302s-274 -104 -274 -302v-1046h-114v1053c0 266 177 402 388 402s387 -136 387 -402v-112
h434z" />
    <glyph glyph-name="uniFB06" unicode="&#xfb06;" horiz-adv-x="1878" 
d="M858 850l-49 -88c-64 45 -187 94 -319 94c-147 0 -250 -64 -250 -170c0 -87 69 -135 214 -152l120 -14c196 -23 309 -104 309 -253c0 -178 -163 -282 -405 -282c-137 0 -278 37 -387 120l53 85c73 -57 173 -106 335 -106c170 0 287 58 287 176c0 87 -72 140 -217 156
l-121 13c-213 24 -305 117 -305 251c0 173 149 276 366 276c149 0 284 -45 369 -106zM1793 941v-104h-434v-513c0 -159 84 -232 209 -232c81 0 155 28 210 72l54 -85c-67 -56 -160 -94 -273 -94c-196 0 -314 109 -314 337v515h-216v104h216v307h114v-307h434z" />
    <glyph glyph-name="uni030C.alt001" 
d="M-564 1051h-96l11 389h117z" />
    <glyph glyph-name="uni0328.alt001" 
d="M-463 -256l61 -74c-53 -56 -115 -82 -185 -82c-116 0 -200 65 -200 167c0 109 90 198 227 290l29 -45c-92 -79 -148 -156 -148 -223c0 -56 41 -91 102 -91c44 0 82 21 114 58z" />
    <glyph glyph-name="uni0328.alt002" 
d="M-556 55l22 -42c-120 -63 -182 -124 -182 -208c0 -71 55 -119 139 -119c59 0 111 22 154 63l61 -73c-59 -58 -138 -88 -222 -88c-145 0 -243 83 -243 197c0 127 99 201 271 270z" />
    <glyph glyph-name="uni0328.alt003" 
d="M-464 -256l62 -74c-54 -56 -116 -82 -186 -82c-116 0 -200 65 -200 167c0 123 117 204 318 291l28 -46c-159 -74 -238 -142 -238 -223c0 -56 41 -91 102 -91c44 0 82 21 114 58z" />
    <glyph glyph-name="uni0328.alt004" 
d="M-423 -251l61 -73c-59 -58 -138 -88 -222 -88c-145 0 -243 83 -243 197c0 143 127 220 321 299l15 -45c-139 -73 -225 -136 -225 -234c0 -71 55 -119 139 -119c59 0 111 22 154 63z" />
    <glyph glyph-name="i.latn_TRK" horiz-adv-x="477" 
d="M296 941v-941h-114v941h114zM239 1362c46 0 82 -37 82 -83s-36 -81 -82 -81s-81 35 -81 81s35 83 81 83z" />
    <glyph glyph-name="j.latn_NLD" horiz-adv-x="480" 
d="M299 941v-1119c0 -152 -79 -234 -210 -234c-48 0 -98 14 -130 33l28 98c25 -14 58 -24 93 -24c67 0 105 42 105 132v1114h114zM236 1082h-113l220 300h144z" />
    <glyph glyph-name="Ldot.latn_CAT" horiz-adv-x="1204" 
d="M1162 116v-116h-953v1400h122v-1284h831zM846 789c47 0 84 -38 84 -85s-37 -83 -84 -83c-48 0 -84 36 -84 83s36 85 84 85z" />
    <glyph glyph-name="ldot.latn_CAT" horiz-adv-x="567" 
d="M296 1440v-1440h-114v1440h114zM518 813c46 0 82 -37 82 -83s-36 -81 -82 -81s-81 35 -81 81s35 83 81 83z" />
    <glyph glyph-name="zero.numr" horiz-adv-x="848" 
d="M424 1408c178 0 322 -147 322 -392c0 -244 -144 -391 -322 -391s-322 147 -322 391c0 245 144 392 322 392zM424 1317c-123 0 -224 -108 -224 -301c0 -192 101 -300 224 -300c124 0 224 108 224 300c0 193 -100 301 -224 301z" />
    <glyph glyph-name="one.numr" horiz-adv-x="541" 
d="M378 1407v-773h-95v641l-232 -95v94z" />
    <glyph glyph-name="two.numr" horiz-adv-x="657" 
d="M128 1220l-62 59c41 59 114 129 246 129c157 0 247 -100 247 -234c0 -92 -45 -160 -110 -225l-224 -227h361v-88h-496v74l292 295c47 47 80 99 80 164c0 84 -58 150 -158 150c-87 0 -139 -46 -176 -97z" />
    <glyph glyph-name="three.numr" horiz-adv-x="658" 
d="M293 1408c154 0 261 -85 261 -207c0 -91 -53 -153 -133 -181c90 -27 149 -92 149 -181c0 -145 -132 -214 -271 -214c-106 0 -190 37 -248 98l55 63c48 -47 113 -75 189 -75c94 0 177 43 177 136c0 83 -82 131 -181 131h-103v84h103c93 0 165 46 165 132
c0 77 -69 128 -167 128c-79 0 -139 -37 -177 -84l-58 60c51 63 128 110 239 110z" />
    <glyph glyph-name="four.numr" horiz-adv-x="670" 
d="M501 1095v-217h128v-87h-128v-157h-95v157h-365v69l274 538h104l-266 -520h253v217h95z" />
    <glyph glyph-name="five.numr" horiz-adv-x="691" 
d="M563 1399v-87h-341l-7 -217h103c184 0 281 -93 281 -224c0 -152 -115 -246 -270 -246c-110 0 -200 40 -263 111l57 63c50 -54 124 -87 205 -87c109 0 173 62 173 152c0 84 -60 147 -203 147h-170l12 388h423z" />
    <glyph glyph-name="six.numr" horiz-adv-x="686" 
d="M457 1399l-194 -292c26 11 57 17 91 17c158 0 266 -108 266 -247c0 -145 -118 -252 -279 -252c-160 0 -280 107 -280 250c0 59 21 112 56 167l226 357h114zM341 1044c-105 0 -181 -71 -181 -168c0 -96 76 -167 181 -167c104 0 180 70 180 167s-76 168 -180 168z" />
    <glyph glyph-name="seven.numr" horiz-adv-x="645" 
d="M594 1399v-74l-344 -691h-111l343 676h-421v89h533z" />
    <glyph glyph-name="eight.numr" horiz-adv-x="753" 
d="M377 1408c148 0 270 -75 270 -207c0 -95 -62 -152 -141 -180c89 -27 160 -85 160 -184c0 -137 -131 -212 -289 -212c-160 0 -290 75 -290 212c0 99 71 157 160 184c-79 28 -141 85 -141 180c0 132 122 207 271 207zM377 983c-103 0 -188 -48 -188 -137
c0 -92 85 -140 188 -140c102 0 187 48 187 140c0 89 -85 137 -187 137zM377 1325c-93 0 -170 -46 -170 -132c0 -88 77 -133 170 -133s170 45 170 133c0 86 -77 132 -170 132z" />
    <glyph glyph-name="nine.numr" horiz-adv-x="686" 
d="M230 634l192 291c-26 -10 -55 -16 -89 -16c-158 0 -266 108 -266 247c0 145 119 252 279 252c161 0 280 -107 280 -250c0 -58 -21 -113 -56 -168l-226 -356h-114zM346 989c105 0 180 71 181 168c0 96 -76 167 -181 167c-104 0 -180 -70 -180 -167s76 -168 180 -168z" />
    <glyph glyph-name="zero.dnom" horiz-adv-x="848" 
d="M424 774c178 0 322 -147 322 -392c0 -244 -144 -391 -322 -391s-322 147 -322 391c0 245 144 392 322 392zM424 683c-123 0 -224 -108 -224 -301c0 -192 101 -300 224 -300c124 0 224 108 224 300c0 193 -100 301 -224 301z" />
    <glyph glyph-name="one.dnom" horiz-adv-x="542" 
d="M378 773v-773h-95v641l-232 -95v94z" />
    <glyph glyph-name="two.dnom" horiz-adv-x="658" 
d="M128 586l-62 59c41 59 114 129 246 129c157 0 247 -100 247 -234c0 -92 -45 -160 -110 -225l-224 -227h361v-88h-496v74l292 295c47 47 80 99 80 164c0 84 -58 150 -158 150c-87 0 -139 -46 -176 -97z" />
    <glyph glyph-name="three.dnom" horiz-adv-x="657" 
d="M293 774c154 0 261 -85 261 -207c0 -91 -53 -153 -133 -181c90 -27 149 -92 149 -181c0 -145 -132 -214 -271 -214c-106 0 -190 37 -248 98l55 63c48 -47 113 -75 189 -75c94 0 177 43 177 136c0 83 -82 131 -181 131h-103v84h103c93 0 165 46 165 132
c0 77 -69 128 -167 128c-79 0 -139 -37 -177 -84l-58 60c51 63 128 110 239 110z" />
    <glyph glyph-name="four.dnom" horiz-adv-x="670" 
d="M501 461v-217h128v-87h-128v-157h-95v157h-365v69l274 538h104l-266 -520h253v217h95z" />
    <glyph glyph-name="five.dnom" horiz-adv-x="691" 
d="M563 765v-87h-341l-7 -217h103c184 0 281 -93 281 -224c0 -152 -115 -246 -270 -246c-110 0 -200 40 -263 111l57 63c50 -54 124 -87 205 -87c109 0 173 62 173 152c0 84 -60 147 -203 147h-170l12 388h423z" />
    <glyph glyph-name="six.dnom" horiz-adv-x="687" 
d="M457 765l-194 -292c26 11 57 17 91 17c158 0 266 -108 266 -247c0 -145 -118 -252 -279 -252c-160 0 -280 107 -280 250c0 59 21 112 56 167l226 357h114zM341 410c-105 0 -181 -71 -181 -168c0 -96 76 -167 181 -167c104 0 180 70 180 167s-76 168 -180 168z" />
    <glyph glyph-name="seven.dnom" horiz-adv-x="645" 
d="M594 765v-74l-344 -691h-111l343 676h-421v89h533z" />
    <glyph glyph-name="eight.dnom" horiz-adv-x="753" 
d="M377 774c148 0 270 -75 270 -207c0 -95 -62 -152 -141 -180c89 -27 160 -85 160 -184c0 -137 -131 -212 -289 -212c-160 0 -290 75 -290 212c0 99 71 157 160 184c-79 28 -141 85 -141 180c0 132 122 207 271 207zM377 349c-103 0 -188 -48 -188 -137
c0 -92 85 -140 188 -140c102 0 187 48 187 140c0 89 -85 137 -187 137zM377 691c-93 0 -170 -46 -170 -132c0 -88 77 -133 170 -133s170 45 170 133c0 86 -77 132 -170 132z" />
    <glyph glyph-name="nine.dnom" horiz-adv-x="687" 
d="M230 0l192 291c-26 -10 -55 -16 -89 -16c-158 0 -266 108 -266 247c0 145 119 252 279 252c161 0 280 -107 280 -250c0 -58 -21 -113 -56 -168l-226 -356h-114zM346 355c105 0 180 71 181 168c0 96 -76 167 -181 167c-104 0 -180 -70 -180 -167s76 -168 180 -168z" />
    <glyph glyph-name="space.frac" horiz-adv-x="106" 
 />
    <glyph glyph-name="b.ordn" horiz-adv-x="885" 
d="M477 1298c183 0 323 -144 323 -337c0 -194 -140 -338 -323 -338c-120 0 -204 62 -252 150v-139h-92v994h94v-477c48 86 132 147 250 147zM462 1210c-140 0 -240 -107 -240 -249c0 -143 100 -249 240 -249c141 0 241 108 241 249c0 140 -100 249 -241 249z" />
    <glyph glyph-name="c.ordn" horiz-adv-x="753" 
d="M421 1298c101 0 188 -40 248 -109l-67 -59c-48 51 -109 80 -183 80c-134 0 -238 -104 -238 -249c0 -146 103 -249 238 -249c73 0 138 31 184 79l66 -59c-60 -69 -147 -109 -248 -109c-197 0 -337 145 -337 338s140 337 337 337z" />
    <glyph glyph-name="d.ordn" horiz-adv-x="885" 
d="M407 1298c119 0 203 -63 251 -150v480h94v-994h-93v140c-47 -88 -132 -151 -252 -151c-183 0 -323 144 -323 338c0 193 140 337 323 337zM422 1210c-142 0 -241 -109 -241 -249c0 -141 99 -249 241 -249c139 0 240 106 240 249c0 142 -101 249 -240 249z" />
    <glyph glyph-name="e.ordn" horiz-adv-x="804" 
d="M410 1298c177 0 308 -138 310 -334c0 -11 -1 -24 -2 -34h-537c12 -143 111 -225 239 -225c88 0 158 35 213 91l54 -63c-81 -83 -174 -110 -272 -110c-193 0 -331 138 -331 337c0 197 139 338 326 338zM409 1216c-125 0 -213 -90 -227 -218h442c-11 130 -98 218 -215 218z
" />
    <glyph glyph-name="h.ordn" horiz-adv-x="850" 
d="M227 1628v-462c47 90 134 132 229 132c158 0 268 -101 268 -261v-403h-95v374c0 125 -71 201 -198 201c-112 0 -204 -80 -204 -205v-370h-94v994h94z" />
    <glyph glyph-name="l.ordn" horiz-adv-x="360" 
d="M227 1628v-994h-94v994h94z" />
    <glyph glyph-name="m.ordn" horiz-adv-x="1346" 
d="M950 1298c162 0 271 -101 271 -261v-403h-95v374c0 125 -72 201 -198 201c-112 0 -204 -80 -204 -205v-370h-95v374c0 125 -71 201 -198 201c-112 0 -204 -80 -204 -205v-370h-94v653h92v-125c46 93 134 136 231 136c116 0 207 -55 246 -148c47 101 145 148 248 148z" />
    <glyph glyph-name="r.ordn" horiz-adv-x="587" 
d="M426 1298c43 0 81 -7 111 -22l-17 -93c-32 16 -75 25 -114 25c-106 0 -179 -82 -179 -207v-367h-94v653h92v-115c39 81 109 126 201 126z" />
    <glyph glyph-name="s.ordn" horiz-adv-x="704" 
d="M613 1228l-35 -74c-49 31 -135 64 -223 64c-97 0 -162 -41 -162 -110c0 -55 47 -88 146 -99l78 -9c135 -16 213 -74 213 -177c0 -127 -113 -200 -283 -200c-102 0 -201 27 -273 80l40 72c54 -40 125 -71 234 -71c111 0 186 36 186 112c0 58 -48 91 -148 102l-75 8
c-150 16 -216 82 -216 178c0 122 104 194 258 194c104 0 192 -29 260 -70z" />
    <glyph glyph-name="t.ordn" horiz-adv-x="661" 
d="M586 1287v-85h-293v-335c0 -107 56 -155 140 -155c57 0 109 21 147 52l36 -74c-48 -39 -113 -67 -196 -67c-141 0 -222 81 -222 238v341h-148v85h148v211h95v-211h293z" />
    <glyph glyph-name="u.ordn" horiz-adv-x="857" 
d="M724 1287v-382c0 -185 -131 -282 -296 -282c-164 0 -295 97 -295 282v382h94v-374c0 -131 83 -201 201 -201c119 0 202 70 202 201v374h94z" />
    <glyph glyph-name="egrave.ordn" horiz-adv-x="804" 
d="M410 1298c177 0 308 -138 310 -334c0 -11 -1 -24 -2 -34h-537c12 -143 111 -225 239 -225c88 0 158 35 213 91l54 -63c-81 -83 -174 -110 -272 -110c-193 0 -331 138 -331 337c0 197 139 338 326 338zM409 1216c-125 0 -213 -90 -227 -218h442c-11 130 -98 218 -215 218z
M401 1381l-177 212h115l154 -212h-92z" />
    <glyph glyph-name="zero.osf" horiz-adv-x="1337" 
d="M669 1047c298 0 541 -210 541 -530c0 -324 -243 -532 -541 -532c-299 0 -542 213 -542 532c0 320 243 530 542 530zM669 939c-236 0 -425 -164 -425 -422c0 -257 189 -425 425 -425s425 164 425 425c0 258 -189 422 -425 422z" />
    <glyph glyph-name="one.osf" horiz-adv-x="759" 
d="M555 1049v-1049h-115v892l-370 -127v114z" />
    <glyph glyph-name="two.osf" horiz-adv-x="1059" 
d="M165 768l-82 70c65 85 193 208 415 208c250 0 409 -158 409 -354c0 -174 -120 -301 -302 -411l-284 -170h649v-111h-858v95l428 266c185 115 246 219 246 326c0 131 -101 248 -292 248c-169 0 -263 -88 -329 -167z" />
    <glyph glyph-name="three.osf" horiz-adv-x="1077" 
d="M488 1046c268 0 450 -155 450 -375c0 -172 -96 -282 -236 -333c156 -49 267 -166 267 -335c0 -262 -229 -388 -468 -388c-188 0 -337 67 -437 176l76 78c89 -90 215 -144 359 -144c187 0 349 90 349 282c0 175 -161 278 -357 278h-191v106h190c184 0 327 93 327 276
c0 163 -143 270 -337 270c-144 0 -254 -73 -319 -164l-87 70c79 116 221 203 414 203z" />
    <glyph glyph-name="four.osf" horiz-adv-x="1139" 
d="M814 475v-365h274v-110h-274v-370h-115v370h-648v91l488 939h125l-476 -920h511v365h115z" />
    <glyph glyph-name="five.osf" horiz-adv-x="1134" 
d="M958 1030v-110h-636l-16 -460h211c338 0 502 -178 502 -418c0 -272 -208 -428 -470 -428c-194 0 -350 72 -466 217l81 73c96 -117 234 -179 385 -179c223 0 349 135 349 307c0 190 -118 317 -416 317h-286l19 681h743z" />
    <glyph glyph-name="six.osf" horiz-adv-x="1138" 
d="M734 1400l-350 -555c58 26 123 40 192 40c275 0 479 -193 479 -451c0 -256 -207 -449 -489 -449s-490 193 -490 450c0 100 33 190 91 283l425 682h142zM566 777c-213 0 -370 -144 -370 -342c0 -199 156 -342 370 -342s369 143 369 342c0 198 -155 342 -369 342z" />
    <glyph glyph-name="seven.osf" horiz-adv-x="1094" 
d="M1018 1030v-90l-651 -1310h-134l646 1290h-803v110h942z" />
    <glyph glyph-name="eight.osf" horiz-adv-x="1196" 
d="M599 1415c251 0 456 -146 456 -375c0 -167 -100 -275 -230 -331c147 -54 263 -166 263 -339c0 -238 -220 -386 -489 -386c-270 0 -491 148 -491 386c0 173 116 285 264 339c-131 56 -230 164 -230 331c0 229 206 375 457 375zM599 654c-204 0 -369 -107 -369 -279
c0 -176 165 -282 369 -282c202 0 368 106 368 282c0 172 -166 279 -368 279zM599 1306c-185 0 -336 -104 -336 -270c0 -174 151 -278 336 -278c184 0 335 104 335 278c0 166 -151 270 -335 270z" />
    <glyph glyph-name="nine.osf" horiz-adv-x="1137" 
d="M404 -369l349 555c-57 -26 -123 -40 -192 -40c-275 0 -478 193 -478 450s206 450 489 450c281 0 489 -193 489 -450c0 -100 -33 -189 -91 -283l-424 -682h-142zM572 254c213 0 370 144 370 342c0 199 -157 342 -370 342c-214 0 -370 -144 -370 -342s156 -342 370 -342z
" />
    <glyph glyph-name="zero.tf" horiz-adv-x="1200" 
d="M602 1415c286 0 514 -234 514 -715c0 -496 -228 -715 -514 -715c-288 0 -519 219 -519 715c0 497 231 715 519 715zM602 1302c-222 0 -397 -178 -397 -602s175 -602 397 -602c219 0 393 178 393 602c0 408 -174 602 -393 602z" />
    <glyph glyph-name="one.tf" horiz-adv-x="1200" 
d="M189 112h413v1141l-426 -152v120l543 193v-1302h385v-112h-915v112z" />
    <glyph glyph-name="two.tf" horiz-adv-x="1200" 
d="M232 1115l-85 69c66 102 187 231 417 231c281 0 438 -186 438 -424c0 -172 -95 -299 -189 -397l-458 -482h698v-112h-872v92l542 570c90 94 156 198 156 329c0 173 -112 312 -318 312c-170 0 -263 -90 -329 -188z" />
    <glyph glyph-name="three.tf" horiz-adv-x="1200" 
d="M555 1415c271 0 455 -154 455 -374c0 -173 -96 -284 -239 -334c158 -50 270 -166 270 -335c0 -262 -231 -387 -473 -387c-188 0 -337 66 -438 175l75 79c90 -90 216 -144 360 -144c187 0 353 90 353 282c0 174 -162 276 -359 276h-193v108h193c184 0 328 93 328 275
c0 161 -144 269 -339 269c-145 0 -256 -73 -323 -164l-86 72c82 116 222 202 416 202z" />
    <glyph glyph-name="four.tf" horiz-adv-x="1200" 
d="M877 817v-399h253v-111h-253v-307h-117v307h-672v91l523 1001h133l-515 -981h531v399h117z" />
    <glyph glyph-name="five.tf" horiz-adv-x="1200" 
d="M993 1400v-111h-636l-17 -458h219c331 0 494 -181 494 -408c0 -277 -206 -438 -471 -438c-194 0 -351 72 -467 214l79 77c95 -116 236 -179 387 -179c221 0 350 137 350 316c0 173 -118 306 -407 306h-295l20 681h744z" />
    <glyph glyph-name="six.tf" horiz-adv-x="1200" 
d="M767 1400l-350 -553c58 25 123 39 191 39c276 0 479 -193 479 -451c0 -257 -207 -450 -489 -450s-490 193 -490 450c0 101 33 190 91 284l424 681h144zM598 777c-213 0 -369 -144 -369 -342s156 -341 369 -341c212 0 368 143 368 341s-156 342 -368 342z" />
    <glyph glyph-name="seven.tf" horiz-adv-x="1200" 
d="M1077 1400v-92l-648 -1308h-137l644 1289h-802v111h943z" />
    <glyph glyph-name="eight.tf" horiz-adv-x="1200" 
d="M599 1415c262 0 478 -135 478 -374c0 -172 -103 -278 -237 -332c152 -53 271 -161 271 -340c0 -247 -231 -384 -512 -384s-511 137 -511 384c0 179 118 287 270 340c-135 54 -237 160 -237 332c0 239 216 374 478 374zM599 655c-213 0 -387 -97 -387 -279
c0 -186 175 -282 387 -282s387 96 387 282c0 182 -174 279 -387 279zM599 1305c-194 0 -353 -93 -353 -270c0 -183 159 -277 353 -277s354 94 354 277c0 177 -160 270 -354 270z" />
    <glyph glyph-name="nine.tf" horiz-adv-x="1200" 
d="M432 0l349 553c-57 -25 -122 -39 -191 -39c-276 0 -478 193 -478 451c0 257 206 450 489 450c282 0 490 -193 490 -450c0 -101 -33 -190 -91 -284l-424 -681h-144zM601 623c213 0 368 144 369 342c0 197 -156 341 -369 341s-368 -144 -368 -341c0 -198 155 -342 368 -342
z" />
    <glyph glyph-name="uni2007.tf" horiz-adv-x="1200" 
 />
    <glyph glyph-name="zero.tosf" horiz-adv-x="1200" 
d="M599 1046c284 0 517 -204 517 -529c0 -329 -233 -533 -517 -533c-283 0 -515 208 -515 533s232 529 515 529zM599 941c-220 0 -399 -159 -399 -424s179 -428 399 -428c221 0 400 159 400 428c0 265 -179 424 -400 424z" />
    <glyph glyph-name="one.tosf" horiz-adv-x="1200" 
d="M208 111h395v790l-407 -117v116l522 149v-938l370 1v-112h-880v111z" />
    <glyph glyph-name="two.tosf" horiz-adv-x="1200" 
d="M257 768l-82 70c65 85 193 208 415 208c250 0 409 -158 409 -354c0 -174 -120 -301 -302 -411l-284 -170h649v-111h-858v95l428 266c185 115 246 219 246 326c0 131 -101 248 -292 248c-169 0 -263 -88 -329 -167z" />
    <glyph glyph-name="three.tosf" horiz-adv-x="1200" 
d="M567 1046c268 0 450 -155 450 -375c0 -172 -96 -282 -236 -333c156 -49 267 -166 267 -335c0 -262 -229 -388 -468 -388c-188 0 -337 67 -437 176l76 78c89 -90 215 -144 359 -144c187 0 349 90 349 282c0 175 -161 278 -357 278h-191v106h190c184 0 327 93 327 276
c0 163 -143 270 -337 270c-144 0 -254 -73 -319 -164l-87 70c79 116 221 203 414 203z" />
    <glyph glyph-name="four.tosf" horiz-adv-x="1200" 
d="M865 475v-365h274v-110h-274v-370h-115v370h-648v91l488 939h125l-476 -920h511v365h115z" />
    <glyph glyph-name="five.tosf" horiz-adv-x="1200" 
d="M992 1030v-110h-636l-16 -460h211c338 0 502 -178 502 -418c0 -272 -208 -428 -470 -428c-194 0 -350 72 -466 217l81 73c96 -117 234 -179 385 -179c223 0 349 135 349 307c0 190 -118 317 -416 317h-286l19 681h743z" />
    <glyph glyph-name="six.tosf" horiz-adv-x="1200" 
d="M774 1400l-350 -555c58 26 123 40 192 40c275 0 479 -193 479 -451c0 -256 -207 -449 -489 -449s-490 193 -490 450c0 100 33 190 91 283l425 682h142zM606 777c-213 0 -370 -144 -370 -342c0 -199 156 -342 370 -342s369 143 369 342c0 198 -155 342 -369 342z" />
    <glyph glyph-name="seven.tosf" horiz-adv-x="1200" 
d="M1093 1030v-90l-651 -1310h-134l646 1290h-803v110h942z" />
    <glyph glyph-name="eight.tosf" horiz-adv-x="1200" 
d="M613 1415c251 0 456 -146 456 -375c0 -167 -100 -275 -230 -331c147 -54 263 -166 263 -339c0 -238 -220 -386 -489 -386c-270 0 -491 148 -491 386c0 173 116 285 264 339c-131 56 -230 164 -230 331c0 229 206 375 457 375zM613 654c-204 0 -369 -107 -369 -279
c0 -176 165 -282 369 -282c202 0 368 106 368 282c0 172 -166 279 -368 279zM613 1306c-185 0 -336 -104 -336 -270c0 -174 151 -278 336 -278c184 0 335 104 335 278c0 166 -151 270 -335 270z" />
    <glyph glyph-name="nine.tosf" horiz-adv-x="1200" 
d="M426 -369l349 555c-57 -26 -123 -40 -192 -40c-275 0 -478 193 -478 450s206 450 489 450c281 0 489 -193 489 -450c0 -100 -33 -189 -91 -283l-424 -682h-142zM594 254c213 0 370 144 370 342c0 199 -157 342 -370 342c-214 0 -370 -144 -370 -342s156 -342 370 -342z
" />
    <glyph glyph-name="uni2007.tosf" horiz-adv-x="1200" 
 />
    <glyph glyph-name="exclam.sc" horiz-adv-x="520" 
d="M323 1033l-14 -691h-97l-15 691h126zM260 156c46 0 85 -39 85 -85c0 -45 -39 -85 -85 -85c-45 0 -85 40 -85 85c0 46 40 85 85 85z" />
    <glyph glyph-name="numbersign.sc" horiz-adv-x="1183" 
d="M230 766h173l60 267h97l-60 -267h289l60 267h98l-60 -267h174l-20 -91h-174l-70 -313h174l-20 -91h-174l-60 -271h-98l60 271h-289l-60 -271h-98l60 271h-171l20 91h172l70 313h-172zM480 675l-70 -313h289l70 313h-289z" />
    <glyph glyph-name="dollar.sc" horiz-adv-x="1200" 
d="M557 1166h93v-139c142 -9 255 -53 340 -106l-52 -88c-71 46 -171 86 -288 96v-364c152 -10 362 -68 360 -266c-1 -185 -162 -279 -360 -293v-143h-92v142c-140 7 -286 57 -373 119l57 85c68 -47 191 -97 316 -106v368l-33 4c-202 25 -313 117 -311 265
c2 170 148 274 343 287v139zM898 291c0 94 -85 150 -248 170v-357c143 12 248 72 248 187zM325 745c0 -87 72 -147 233 -169l-1 353c-136 -12 -232 -79 -232 -184z" />
    <glyph glyph-name="percent.sc" horiz-adv-x="1498" 
d="M367 1047c156 0 273 -113 273 -263c0 -151 -117 -263 -273 -263c-153 0 -270 112 -270 263c0 150 117 263 270 263zM367 961c-101 0 -177 -75 -177 -177c0 -103 76 -177 177 -177c104 0 180 74 180 177c0 102 -76 177 -180 177zM1143 1033l-682 -1033h-108l683 1033h107z
M1128 514c155 0 273 -113 273 -263c0 -151 -118 -263 -273 -263c-153 0 -271 112 -271 263c0 149 118 263 271 263zM1128 428c-102 0 -178 -75 -178 -177c0 -103 76 -177 178 -177c103 0 180 74 180 177c0 102 -77 177 -180 177z" />
    <glyph glyph-name="ampersand.sc" horiz-adv-x="1096" 
d="M1064 0h-143l-177 165c-83 -97 -183 -177 -338 -177c-182 0 -299 99 -299 252c0 144 108 234 222 311c-108 103 -160 166 -160 265c0 126 108 229 262 229c153 0 261 -97 261 -225c0 -122 -102 -201 -211 -275l255 -238l178 245l79 -52l-188 -258zM413 81
c113 0 187 59 260 147l-277 260c-97 -67 -180 -138 -180 -241c0 -98 80 -166 197 -166zM274 810c0 -64 38 -107 139 -202c95 63 175 124 175 209c0 75 -63 134 -157 134s-157 -61 -157 -141z" />
    <glyph glyph-name="parenleft.sc" horiz-adv-x="641" 
d="M526 1151l34 -95c-200 -75 -327 -290 -327 -539c0 -250 127 -465 327 -540l-34 -95c-237 82 -405 334 -405 635c0 300 168 552 405 634z" />
    <glyph glyph-name="parenright.sc" horiz-adv-x="641" 
d="M115 -118l-34 95c200 75 327 290 327 539c0 250 -127 465 -327 540l34 95c237 -82 405 -334 405 -635c0 -300 -168 -552 -405 -634z" />
    <glyph glyph-name="asterisk.sc" horiz-adv-x="712" 
d="M128 900l188 -62v195h82v-195l187 62l26 -78l-189 -59l118 -155l-67 -49l-116 158l-116 -158l-67 49l118 155l-190 59z" />
    <glyph glyph-name="slash.sc" horiz-adv-x="812" 
d="M731 1033l-527 -1033h-123l527 1033h123z" />
    <glyph glyph-name="zero.sc" horiz-adv-x="1144" 
d="M572 1044c245 0 446 -197 446 -527s-201 -529 -446 -529c-246 0 -446 199 -446 529s200 527 446 527zM572 940c-183 0 -332 -152 -332 -423s149 -425 332 -425s333 154 333 425s-150 423 -333 423z" />
    <glyph glyph-name="one.sc" horiz-adv-x="723" 
d="M521 1043v-1043h-109v890l-349 -145v110z" />
    <glyph glyph-name="two.sc" horiz-adv-x="867" 
d="M158 807l-76 65c52 78 149 172 325 172c213 0 335 -135 335 -314c0 -125 -67 -219 -147 -299l-326 -329h510v-102h-669v85l405 408c67 67 114 141 114 232c0 120 -82 215 -228 215c-123 0 -193 -63 -243 -133z" />
    <glyph glyph-name="three.sc" horiz-adv-x="883" 
d="M391 1044c216 0 362 -114 362 -277c0 -125 -73 -208 -181 -246c121 -38 204 -123 204 -245c0 -195 -183 -288 -376 -288c-140 0 -260 50 -337 130l66 72c67 -65 165 -104 268 -104c141 0 266 63 266 195c0 120 -119 192 -267 192h-147v98h147c137 0 244 64 244 189
c0 110 -106 185 -254 185c-108 0 -195 -53 -245 -117l-73 69c65 84 177 147 323 147z" />
    <glyph glyph-name="four.sc" horiz-adv-x="897" 
d="M663 613v-292h184v-102h-184v-219h-109v219h-504v80l386 733h121l-376 -711h373v292h109z" />
    <glyph glyph-name="five.sc" horiz-adv-x="914" 
d="M753 1033v-102h-473l-12 -313h150c255 0 383 -125 383 -309c0 -200 -156 -321 -364 -321c-147 0 -268 54 -355 153l65 76c70 -80 175 -128 290 -128c158 0 251 89 251 211c0 133 -88 219 -300 219h-220l14 514h571z" />
    <glyph glyph-name="six.sc" horiz-adv-x="904" 
d="M593 1033l-260 -397c39 14 82 22 127 22c212 0 362 -144 362 -333c0 -193 -158 -337 -372 -337c-215 0 -374 143 -374 335c0 76 25 147 71 218l314 492h132zM450 562c-150 0 -261 -101 -261 -238s111 -237 261 -237c149 0 260 100 260 237s-111 238 -260 238z" />
    <glyph glyph-name="seven.sc" horiz-adv-x="871" 
d="M795 1033v-86l-480 -947h-127l480 931h-592v102h719z" />
    <glyph glyph-name="eight.sc" horiz-adv-x="991" 
d="M496 1044c198 0 363 -100 363 -278c0 -123 -71 -201 -167 -243c109 -41 192 -121 192 -250c0 -184 -175 -286 -388 -286s-389 102 -389 286c0 130 83 209 192 250c-95 42 -166 120 -166 243c0 178 164 278 363 278zM496 477c-148 0 -272 -68 -272 -196
c0 -129 124 -196 272 -196s271 67 271 196c0 128 -123 196 -271 196zM496 945c-135 0 -247 -64 -247 -186c0 -127 111 -191 247 -191s248 64 248 191c0 122 -113 186 -248 186z" />
    <glyph glyph-name="nine.sc" horiz-adv-x="905" 
d="M312 0l259 396c-39 -14 -82 -21 -127 -21c-212 0 -362 144 -362 333c0 193 159 337 373 337s374 -143 374 -335c0 -77 -26 -147 -72 -218l-313 -492h-132zM455 471c149 0 261 100 261 237c0 138 -111 238 -261 238s-260 -101 -260 -238c0 -136 110 -237 260 -237z" />
    <glyph glyph-name="question.sc" horiz-adv-x="760" 
d="M333 337h-97v231h42c176 0 282 70 282 188c0 112 -111 183 -277 183c-35 0 -70 -3 -97 -5l-8 105c32 5 76 8 115 8c230 0 383 -113 383 -284c0 -164 -125 -269 -338 -289zM285 156c45 0 85 -39 85 -85c0 -45 -40 -85 -85 -85c-46 0 -85 40 -85 85c0 46 39 85 85 85z" />
    <glyph glyph-name="at.sc" horiz-adv-x="1487" 
d="M1016 804v-348c0 -99 34 -143 89 -143c85 0 144 86 144 237c0 294 -220 482 -506 482c-288 0 -506 -216 -506 -506c0 -292 218 -510 506 -510c115 0 219 34 306 97l52 -64c-103 -77 -228 -115 -358 -115c-342 0 -598 258 -598 592c0 332 256 588 598 588
c340 0 598 -229 598 -564c0 -179 -92 -316 -240 -316c-91 0 -144 46 -163 116c-44 -65 -115 -111 -215 -111c-160 0 -278 124 -278 287c0 164 116 288 277 288c95 0 165 -48 208 -113v103h86zM734 732c-115 0 -199 -89 -199 -206c0 -116 84 -205 199 -205
c116 0 198 87 198 205s-82 206 -198 206z" />
    <glyph glyph-name="bracketleft.sc" horiz-adv-x="621" 
d="M540 -1v-96h-338v1228h338v-97h-230v-1035h230z" />
    <glyph glyph-name="backslash.sc" horiz-adv-x="812" 
d="M608 0l-527 1033h123l527 -1033h-123z" />
    <glyph glyph-name="bracketright.sc" horiz-adv-x="621" 
d="M81 1035v96h338v-1228h-338v97h230v1035h-230z" />
    <glyph glyph-name="a.sc" horiz-adv-x="1126" 
d="M630 1033l462 -1033h-120l-128 288h-566l-127 -288h-117l462 1033h134zM561 926l-237 -534h474z" />
    <glyph glyph-name="b.sc" horiz-adv-x="1173" 
d="M202 1033h436c236 0 393 -82 393 -272c0 -116 -69 -196 -175 -231c116 -35 196 -121 196 -247c0 -194 -152 -283 -396 -283h-454v1033zM651 475h-336v-375h336c172 0 285 49 285 189c0 138 -112 186 -285 186zM634 932h-319v-357h320c162 0 278 44 278 179
c0 134 -116 178 -279 178z" />
    <glyph glyph-name="c.sc" horiz-adv-x="1189" 
d="M652 1045c182 0 343 -82 428 -221l-95 -59c-68 108 -193 172 -333 172c-232 0 -413 -170 -413 -420c0 -255 183 -422 413 -422c141 0 265 64 334 172l91 -65c-88 -134 -244 -215 -425 -215c-302 0 -531 219 -531 530c0 310 229 528 531 528z" />
    <glyph glyph-name="d.sc" horiz-adv-x="1269" 
d="M202 1033h404c324 0 542 -205 542 -517s-218 -516 -542 -516h-404v1033zM605 927h-290v-821h290c267 0 426 166 426 410c0 246 -159 411 -426 411z" />
    <glyph glyph-name="e.sc" horiz-adv-x="1131" 
d="M969 104v-104h-767v1033h763v-104h-650v-357h630v-104h-630v-364h654z" />
    <glyph glyph-name="f.sc" horiz-adv-x="1079" 
d="M934 568v-104h-619v-464h-113v1033h755v-104h-642v-361h619z" />
    <glyph glyph-name="g.sc" horiz-adv-x="1269" 
d="M654 1045c162 0 303 -65 397 -172l-82 -79c-75 89 -188 144 -318 144c-232 0 -413 -171 -413 -421c0 -256 183 -424 411 -424c216 0 364 134 381 358h-342v96h458c1 -12 2 -24 2 -35c-1 -311 -211 -524 -498 -524c-283 0 -529 205 -529 529c0 311 231 528 533 528z" />
    <glyph glyph-name="h.sc" horiz-adv-x="1306" 
d="M315 1033v-461h676v461h112v-1033h-112v467h-676v-467h-113v1033h113z" />
    <glyph glyph-name="i.sc" horiz-adv-x="518" 
d="M315 1033v-1033h-113v1033h113z" />
    <glyph glyph-name="j.sc" horiz-adv-x="956" 
d="M763 1033v-658c0 -251 -165 -387 -387 -387c-163 0 -270 66 -332 130l69 82c54 -56 140 -104 260 -104c163 0 277 98 277 289v648h113z" />
    <glyph glyph-name="k.sc" horiz-adv-x="1131" 
d="M315 1033v-462h154l458 462h144l-517 -509l549 -524h-150l-485 467h-153v-467h-113v1033h113z" />
    <glyph glyph-name="l.sc" horiz-adv-x="1000" 
d="M959 106v-106h-757v1033h113v-927h644z" />
    <glyph glyph-name="m.sc" horiz-adv-x="1543" 
d="M1340 1033v-1033h-113v891l-397 -771h-117l-398 768v-888h-113v1033h163l406 -783l405 783h164z" />
    <glyph glyph-name="n.sc" horiz-adv-x="1317" 
d="M1114 1033v-1033h-104l-695 843v-843h-113v1033h104l695 -845v845h113z" />
    <glyph glyph-name="o.sc" horiz-adv-x="1306" 
d="M653 1045c303 0 532 -219 532 -528c0 -311 -229 -530 -532 -530s-532 219 -532 530c0 309 229 528 532 528zM653 937c-234 0 -414 -170 -414 -420c0 -252 180 -422 414 -422s415 170 415 422c0 250 -181 420 -415 420z" />
    <glyph glyph-name="p.sc" horiz-adv-x="1119" 
d="M621 406h-306v-406h-113v1033h419c246 0 394 -117 394 -314c0 -196 -148 -313 -394 -313zM618 929h-303v-420h303c176 0 281 73 281 210s-105 210 -281 210z" />
    <glyph glyph-name="q.sc" horiz-adv-x="1306" 
d="M653 1045c303 0 532 -219 532 -528c0 -129 -41 -240 -110 -328l150 -189h-133l-90 112c-92 -79 -212 -125 -349 -125c-303 0 -532 219 -532 530c0 309 229 528 532 528zM815 514l188 -234c41 65 65 146 65 237c0 250 -181 420 -415 420s-414 -170 -414 -420
c0 -252 180 -422 414 -422c109 0 207 37 280 102l-253 317h135z" />
    <glyph glyph-name="r.sc" horiz-adv-x="1123" 
d="M626 1033c240 0 384 -106 384 -296c0 -182 -150 -292 -383 -292h-20l407 -445h-143l-398 445h-158v-445h-113v1033h424zM624 928h-309v-384h309c169 0 270 66 270 193s-103 191 -270 191z" />
    <glyph glyph-name="s.sc" horiz-adv-x="1116" 
d="M966 931l-55 -91c-83 54 -208 100 -348 100c-167 0 -291 -69 -292 -189c0 -97 80 -153 269 -174l116 -13c203 -24 338 -102 338 -267c0 -211 -201 -309 -439 -309c-160 0 -335 56 -434 127l59 91c79 -56 229 -114 375 -114c178 0 320 62 320 194c0 105 -96 154 -273 173
l-119 13c-213 23 -331 113 -331 269c0 192 180 304 411 304c171 0 304 -50 403 -114z" />
    <glyph glyph-name="t.sc" horiz-adv-x="977" 
d="M936 1033v-106h-391v-927h-113v927h-392v106h896z" />
    <glyph glyph-name="u.sc" horiz-adv-x="1251" 
d="M1069 1033v-628c0 -276 -192 -417 -443 -417c-252 0 -444 141 -444 417v628h113v-622c0 -213 143 -315 331 -315s331 102 331 315v622h112z" />
    <glyph glyph-name="v.sc" horiz-adv-x="1108" 
d="M1074 1033l-452 -1033h-136l-452 1033h120l401 -925l402 925h117z" />
    <glyph glyph-name="w.sc" horiz-adv-x="1736" 
d="M1682 1033l-361 -1033h-136l-317 888l-318 -888h-135l-361 1033h117l313 -914l323 914h124l323 -913l312 913h116z" />
    <glyph glyph-name="x.sc" horiz-adv-x="1090" 
d="M1018 1033l-400 -505l418 -528h-133l-359 450l-358 -450h-132l418 528l-399 505h133l340 -428l340 428h132z" />
    <glyph glyph-name="y.sc" horiz-adv-x="1011" 
d="M1001 1033l-438 -604v-429h-112v431l-441 602h134l363 -492l364 492h130z" />
    <glyph glyph-name="z.sc" horiz-adv-x="1102" 
d="M977 1033v-88l-705 -841h708v-104h-859v87l705 842h-692v104h843z" />
    <glyph glyph-name="braceleft.sc" horiz-adv-x="692" 
d="M611 1036h-53c-99 0 -165 -55 -158 -179l6 -105c8 -127 -46 -205 -151 -235c105 -30 159 -108 151 -235l-6 -105c-7 -125 59 -179 158 -179h53v-96h-59c-170 0 -269 99 -259 282l6 106c8 125 -64 180 -173 180v94c109 0 181 55 173 181l-6 104c-11 184 89 282 259 282h59
v-95z" />
    <glyph glyph-name="braceright.sc" horiz-adv-x="692" 
d="M134 1036h-53v95h59c170 0 270 -98 259 -282l-6 -104c-8 -126 64 -181 173 -181v-94c-109 0 -181 -55 -173 -180l6 -106c10 -183 -89 -282 -259 -282h-59v96h53c99 0 165 54 158 179l-6 105c-8 127 46 205 151 235c-105 30 -159 108 -151 235l6 105
c7 124 -59 179 -158 179z" />
    <glyph glyph-name="exclamdown.sc" horiz-adv-x="520" 
d="M197 0l14 691h97l15 -691h-126zM260 877c-46 0 -85 39 -85 85c0 45 39 85 85 85c45 0 85 -40 85 -85c0 -46 -40 -85 -85 -85z" />
    </font>
</defs>
</svg>
