<svg width="140" height="17" viewBox="0 0 140 17" xmlns="http://www.w3.org/2000/svg"><title>1thing_logo_Black-01</title><path d="M67.683.773a1.056 1.056 0 0 0-1.013-.74 1.05 1.05 0 0 0-1.052.944c-.006.044-.01.09-.01.136l-.015 5.88-.033-.002-8.772-.004c-.026 0-.051.005-.076.006l.005-5.88c0-.148-.028-.285-.082-.412a1.057 1.057 0 0 0-.984-.656 1.063 1.063 0 0 0-1.066 1.068l.008 14.037c0 .223.06.417.177.585.19.282.514.469.884.469.362 0 .68-.178.87-.45a.966.966 0 0 0 .2-.604l-.02-6.085c.026.002.049.015.077.015l8.779.006c.012 0 .02-.005.033-.006l.049 6.061c0 .263.083.487.248.674.194.235.49.385.821.385a1.057 1.057 0 0 0 1.062-1.059L67.74 1.113c0-.12-.02-.233-.057-.34zm15.943.317a.999.999 0 0 0-.252-.677 1.049 1.049 0 0 0-.227-.202 1.036 1.036 0 0 0-.478-.17h-.004a1.147 1.147 0 0 0-.117-.006 1.01 1.01 0 0 0-.75.31 1.026 1.026 0 0 0-.305.745l.016 14.056c0 .224.06.42.181.59.19.279.514.464.882.464.366 0 .688-.183.879-.46a.968.968 0 0 0 .191-.594L83.626 1.09zM.87.058C.375.146 0 .568 0 1.078c0 .12.021.233.06.34a.85.85 0 0 0 .172.307c.18.219.447.365.75.386.038.006.075.011.113.015l3.146.012-.003 13.023c0 .185.069.374.185.538a1.1 1.1 0 0 0 .929.503c.594 0 1.076-.462 1.096-1.04.001-.012.003-.023.003-.035L6.453.056 1.098.034C1.02.034.943.043.87.058zM40.497.33a.859.859 0 0 0-.287-.182 1.069 1.069 0 0 0-.586-.104H28.118c-.008 0-.015.003-.022.004a1.045 1.045 0 0 0-1.014 1.034c0 .484.338.889.795 1.003.105.03.215.048.333.048h4.686v13.013c0 .292.102.536.305.735.204.198.453.3.749.3h.015c.063 0 .124-.007.183-.017l.019-.003a3.43 3.43 0 0 0 .108-.026l.014-.005c.155-.048.295-.13.42-.247a.97.97 0 0 0 .317-.735V2.133h4.709c.297 0 .547-.1.749-.3a.983.983 0 0 0 .289-.547 1.025 1.025 0 0 0 .012-.352.936.936 0 0 0-.288-.604zm71.235 14.631l.012-.051c.016-.07.03-.14.043-.21l.024-13.597a.61.61 0 0 0-.016-.131 1.05 1.05 0 0 0-1.051-.925c-.53 0-.967.38-1.045.877a.839.839 0 0 0-.02.177l-.023 12.29L100.632.733a1.899 1.899 0 0 0-.107-.12 1.711 1.711 0 0 0-2.383-.237 1.66 1.66 0 0 0-.46.59l-.01.02-.033.08-.031.082-.01.027c-.04.123-.067.251-.083.386l.004 13.597c0 .04.003.08.007.12.001.017.005.036.008.055l.006.043c.006.024.01.049.018.072l.006.023c.128.431.534.746 1.016.746.37 0 .695-.186.885-.469a.96.96 0 0 0 .187-.588l-.004-12.314 9.07 12.725c.174.23.382.395.62.497a1.7 1.7 0 0 0 1.481.01c.003 0 .006-.002.008-.003l.074-.037c.145-.072.281-.17.41-.292.195-.185.309-.408.381-.642a1.338 1.338 0 0 0 .04-.144zm28.253-1.462a1.45 1.45 0 0 0-.009-.17c.012-.489-.013-3.342-.013-3.342V8.469a1.01 1.01 0 0 0-.25-.676 1.04 1.04 0 0 0-.203-.184 1.04 1.04 0 0 0-.625-.196 1.01 1.01 0 0 0-.75.31 1.026 1.026 0 0 0-.305.746l.01 4.947a8.596 8.596 0 0 1-3.843.892c-1.968 0-3.529-.597-4.685-1.79-1.124-1.163-1.695-2.561-1.695-4.365 0-1.96.523-3.285 1.725-4.418 1.155-1.07 2.638-1.606 4.45-1.606 1.511 0 2.985.476 4.466 1.297a1.304 1.304 0 0 0 .107.06c.141.066.297.105.463.105.03 0 .057-.002.085-.004l.021-.001h.007c.026-.003.054-.005.08-.01l.019-.006a1.174 1.174 0 0 0 .148-.04c.407-.146.697-.526.697-.975 0-.257-.095-.49-.252-.672a.862.862 0 0 0-.205-.183l-.005-.003a1.042 1.042 0 0 0-.097-.057c-.711-.427-1.533-.74-2.405-1.047-.912-.321-2.034-.482-3.361-.482-2.343 0-4.271.75-5.786 2.25-1.577 1.576-2.288 3.36-2.288 5.795 0 2.401.766 4.29 2.282 5.835 1.515 1.53 3.5 2.294 5.95 2.294 1.707 0 3.378-.378 5.014-1.124.069-.026.135-.059.2-.092.05-.024.1-.044.15-.069l.01-.015a1.85 1.85 0 0 0 .208-.156c.415-.304.685-.785.685-1.33z" fill-rule="evenodd"/></svg>